<ttFont>
    <TTGlyph name=".notdef" xMin="50" yMin="0" xMax="464" yMax="500">
      <contour>
        <pt x="50" y="0" on="1"/>
        <pt x="50" y="500" on="1"/>
        <pt x="464" y="500" on="1"/>
        <pt x="464" y="0" on="1"/>
      </contour>
      <contour>
        <pt x="112" y="438" on="1"/>
        <pt x="112" y="62" on="1"/>
        <pt x="402" y="62" on="1"/>
        <pt x="402" y="438" on="1"/>
      </contour>
    </TTGlyph>
    <TTGlyph name="A" xMin="-6" yMin="-5" xMax="703" yMax="727">
      <contour>
        <pt x="436" y="240" on="1"/>
        <pt x="204" y="240" on="1"/>
        <pt x="139" y="50" on="1"/>
        <pt x="216" y="30" on="1"/>
        <pt x="219" y="11" on="0"/>
        <pt x="211" y="-5" on="1"/>
        <pt x="121" y="0" on="0"/>
        <pt x="89" y="0" on="1"/>
        <pt x="72" y="0" on="0"/>
        <pt x="40" y="-2" on="0"/>
        <pt x="10" y="-4" on="0"/>
        <pt x="-3" y="-5" on="1"/>
        <pt x="-6" y="14" on="0"/>
        <pt x="-1" y="30" on="1"/>
        <pt x="44" y="36" on="0"/>
        <pt x="76" y="50" on="1"/>
        <pt x="313" y="719" on="1"/>
        <pt x="328" y="727" on="0"/>
        <pt x="352" y="727" on="1"/>
        <pt x="623" y="50" on="1"/>
        <pt x="700" y="30" on="1"/>
        <pt x="703" y="11" on="0"/>
        <pt x="695" y="-5" on="1"/>
        <pt x="605" y="0" on="0"/>
        <pt x="573" y="0" on="1"/>
        <pt x="521" y="0" on="0"/>
        <pt x="428" y="-5" on="1"/>
        <pt x="425" y="14" on="0"/>
        <pt x="430" y="30" on="1"/>
        <pt x="477" y="36" on="0"/>
        <pt x="510" y="50" on="1"/>
      </contour>
      <contour>
        <pt x="315" y="580" on="1"/>
        <pt x="313" y="580" on="1"/>
        <pt x="282" y="469" on="0"/>
        <pt x="269" y="432" on="1"/>
        <pt x="222" y="295" on="1"/>
        <pt x="414" y="295" on="1"/>
        <pt x="359" y="437" on="1"/>
        <pt x="327" y="511" on="0"/>
      </contour>
    </TTGlyph>
    <TTGlyph name="AE" xMin="1" yMin="-5" xMax="860" yMax="700">
      <contour>
        <pt x="417" y="240" on="1"/>
        <pt x="230" y="240" on="1"/>
        <pt x="146" y="50" on="1"/>
        <pt x="223" y="30" on="1"/>
        <pt x="226" y="11" on="0"/>
        <pt x="218" y="-5" on="1"/>
        <pt x="128" y="0" on="0"/>
        <pt x="96" y="0" on="1"/>
        <pt x="79" y="0" on="0"/>
        <pt x="17" y="-4" on="0"/>
        <pt x="4" y="-5" on="1"/>
        <pt x="1" y="14" on="0"/>
        <pt x="6" y="30" on="1"/>
        <pt x="51" y="36" on="0"/>
        <pt x="83" y="50" on="1"/>
        <pt x="375" y="700" on="1"/>
        <pt x="832" y="700" on="1"/>
        <pt x="834" y="598" on="0"/>
        <pt x="821" y="525" on="1"/>
        <pt x="809" y="519" on="0"/>
        <pt x="785" y="522" on="1"/>
        <pt x="759" y="655" on="1"/>
        <pt x="522" y="655" on="1"/>
        <pt x="522" y="385" on="1"/>
        <pt x="688" y="385" on="1"/>
        <pt x="707" y="473" on="1"/>
        <pt x="730" y="480" on="0"/>
        <pt x="747" y="468" on="1"/>
        <pt x="743" y="429" on="0"/>
        <pt x="743" y="361" on="1"/>
        <pt x="743" y="286" on="0"/>
        <pt x="747" y="243" on="1"/>
        <pt x="729" y="236" on="0"/>
        <pt x="707" y="241" on="1"/>
        <pt x="688" y="330" on="1"/>
        <pt x="522" y="330" on="1"/>
        <pt x="522" y="45" on="1"/>
        <pt x="789" y="45" on="1"/>
        <pt x="813" y="178" on="1"/>
        <pt x="834" y="181" on="0"/>
        <pt x="848" y="175" on="1"/>
        <pt x="860" y="117" on="0"/>
        <pt x="860" y="31" on="1"/>
        <pt x="860" y="0" on="1"/>
        <pt x="472" y="0" on="1"/>
        <pt x="431" y="0" on="0"/>
        <pt x="339" y="-5" on="1"/>
        <pt x="336" y="14" on="0"/>
        <pt x="341" y="30" on="1"/>
        <pt x="393" y="40" on="0"/>
        <pt x="417" y="50" on="1"/>
      </contour>
      <contour>
        <pt x="413" y="655" on="1"/>
        <pt x="254" y="295" on="1"/>
        <pt x="417" y="295" on="1"/>
        <pt x="417" y="655" on="1"/>
      </contour>
    </TTGlyph>
    <TTGlyph name="Aacute" xMin="-6" yMin="-5" xMax="703" yMax="919">
      <component glyphName="A" x="0" y="0" flags="0x204"/>
      <component glyphName="acute.case" x="229" y="-50" flags="0x4"/>
    </TTGlyph>
    <TTGlyph name="Acircumflex" xMin="-6" yMin="-5" xMax="703" yMax="920">
      <component glyphName="A" x="0" y="0" flags="0x204"/>
      <component glyphName="circumflex.case" x="166" y="-50" flags="0x4"/>
    </TTGlyph>
    <TTGlyph name="Adieresis" xMin="-6" yMin="-5" xMax="703" yMax="898">
      <component glyphName="A" x="0" y="0" flags="0x204"/>
      <component glyphName="dieresis.case" x="154" y="-50" flags="0x4"/>
    </TTGlyph>
    <TTGlyph name="Agrave" xMin="-6" yMin="-5" xMax="703" yMax="919">
      <component glyphName="A" x="0" y="0" flags="0x204"/>
      <component glyphName="grave.case" x="182" y="-50" flags="0x4"/>
    </TTGlyph>
    <TTGlyph name="Aring" xMin="-6" yMin="-5" xMax="703" yMax="934">
      <contour>
        <pt x="436" y="240" on="1"/>
        <pt x="204" y="240" on="1"/>
        <pt x="139" y="50" on="1"/>
        <pt x="216" y="30" on="1"/>
        <pt x="219" y="11" on="0"/>
        <pt x="211" y="-5" on="1"/>
        <pt x="121" y="0" on="0"/>
        <pt x="89" y="0" on="1"/>
        <pt x="72" y="0" on="0"/>
        <pt x="40" y="-2" on="0"/>
        <pt x="10" y="-4" on="0"/>
        <pt x="-3" y="-5" on="1"/>
        <pt x="-6" y="14" on="0"/>
        <pt x="-1" y="30" on="1"/>
        <pt x="44" y="36" on="0"/>
        <pt x="76" y="50" on="1"/>
        <pt x="312" y="717" on="1"/>
        <pt x="281" y="724" on="0"/>
        <pt x="255" y="756" on="1"/>
        <pt x="222" y="796" on="0"/>
        <pt x="222" y="833" on="1"/>
        <pt x="222" y="867" on="0"/>
        <pt x="303" y="934" on="0"/>
        <pt x="344" y="934" on="1"/>
        <pt x="388" y="934" on="0"/>
        <pt x="451" y="857" on="0"/>
        <pt x="451" y="820" on="1"/>
        <pt x="451" y="784" on="0"/>
        <pt x="411" y="750" on="1"/>
        <pt x="384" y="726" on="0"/>
        <pt x="355" y="719" on="1"/>
        <pt x="623" y="50" on="1"/>
        <pt x="700" y="30" on="1"/>
        <pt x="703" y="11" on="0"/>
        <pt x="695" y="-5" on="1"/>
        <pt x="605" y="0" on="0"/>
        <pt x="573" y="0" on="1"/>
        <pt x="521" y="0" on="0"/>
        <pt x="428" y="-5" on="1"/>
        <pt x="425" y="14" on="0"/>
        <pt x="430" y="30" on="1"/>
        <pt x="477" y="36" on="0"/>
        <pt x="510" y="50" on="1"/>
      </contour>
      <contour>
        <pt x="315" y="580" on="1"/>
        <pt x="313" y="580" on="1"/>
        <pt x="282" y="469" on="0"/>
        <pt x="269" y="432" on="1"/>
        <pt x="222" y="295" on="1"/>
        <pt x="414" y="295" on="1"/>
        <pt x="359" y="437" on="1"/>
        <pt x="327" y="511" on="0"/>
      </contour>
      <contour>
        <pt x="335" y="772" on="1"/>
        <pt x="355" y="772" on="0"/>
        <pt x="394" y="805" on="0"/>
        <pt x="394" y="823" on="1"/>
        <pt x="394" y="842" on="0"/>
        <pt x="363" y="880" on="0"/>
        <pt x="341" y="880" on="1"/>
        <pt x="320" y="880" on="0"/>
        <pt x="280" y="847" on="0"/>
        <pt x="280" y="830" on="1"/>
        <pt x="280" y="811" on="0"/>
        <pt x="313" y="772" on="0"/>
      </contour>
    </TTGlyph>
    <TTGlyph name="Atilde" xMin="-6" yMin="-5" xMax="703" yMax="897">
      <component glyphName="A" x="0" y="0" flags="0x204"/>
      <component glyphName="tilde.case" x="164" y="-50" flags="0x4"/>
    </TTGlyph>
    <TTGlyph name="B" xMin="33" yMin="-5" xMax="594" yMax="705">
      <contour>
        <pt x="326" y="-5" on="1"/>
        <pt x="173" y="0" on="1"/>
        <pt x="129" y="0" on="0"/>
        <pt x="36" y="-5" on="1"/>
        <pt x="33" y="14" on="0"/>
        <pt x="38" y="30" on="1"/>
        <pt x="80" y="36" on="0"/>
        <pt x="118" y="50" on="1"/>
        <pt x="118" y="650" on="1"/>
        <pt x="41" y="670" on="1"/>
        <pt x="38" y="689" on="0"/>
        <pt x="46" y="705" on="1"/>
        <pt x="136" y="700" on="0"/>
        <pt x="168" y="700" on="1"/>
        <pt x="302" y="701" on="1"/>
        <pt x="549" y="703" on="0"/>
        <pt x="551" y="540" on="1"/>
        <pt x="551" y="475" on="0"/>
        <pt x="462" y="386" on="0"/>
        <pt x="396" y="375" on="1"/>
        <pt x="396" y="373" on="1"/>
        <pt x="594" y="351" on="0"/>
        <pt x="594" y="190" on="1"/>
        <pt x="594" y="136" on="0"/>
        <pt x="550" y="57" on="0"/>
        <pt x="472" y="14" on="0"/>
        <pt x="381" y="-5" on="0"/>
      </contour>
      <contour>
        <pt x="223" y="45" on="1"/>
        <pt x="314" y="40" on="1"/>
        <pt x="406" y="40" on="0"/>
        <pt x="484" y="119" on="0"/>
        <pt x="482" y="191" on="1"/>
        <pt x="482" y="273" on="0"/>
        <pt x="397" y="342" on="0"/>
        <pt x="294" y="342" on="1"/>
        <pt x="223" y="342" on="1"/>
      </contour>
      <contour>
        <pt x="223" y="392" on="1"/>
        <pt x="281" y="392" on="1"/>
        <pt x="369" y="392" on="0"/>
        <pt x="444" y="463" on="0"/>
        <pt x="444" y="536" on="1"/>
        <pt x="444" y="599" on="0"/>
        <pt x="365" y="654" on="0"/>
        <pt x="273" y="654" on="1"/>
        <pt x="259" y="654" on="0"/>
        <pt x="223" y="652" on="1"/>
      </contour>
    </TTGlyph>
    <TTGlyph name="C" xMin="44" yMin="-20" xMax="623" yMax="720">
      <contour>
        <pt x="592" y="109" on="1"/>
        <pt x="613" y="103" on="0"/>
        <pt x="615" y="76" on="1"/>
        <pt x="517" y="-20" on="0"/>
        <pt x="387" y="-20" on="1"/>
        <pt x="319" y="-20" on="0"/>
        <pt x="196" y="25" on="0"/>
        <pt x="101" y="113" on="0"/>
        <pt x="44" y="258" on="0"/>
        <pt x="44" y="350" on="1"/>
        <pt x="44" y="441" on="0"/>
        <pt x="107" y="586" on="0"/>
        <pt x="212" y="676" on="0"/>
        <pt x="333" y="720" on="0"/>
        <pt x="397" y="720" on="1"/>
        <pt x="537" y="720" on="0"/>
        <pt x="619" y="675" on="1"/>
        <pt x="623" y="604" on="0"/>
        <pt x="588" y="511" on="1"/>
        <pt x="563" y="507" on="0"/>
        <pt x="544" y="516" on="1"/>
        <pt x="533" y="645" on="1"/>
        <pt x="479" y="668" on="0"/>
        <pt x="404" y="667" on="1"/>
        <pt x="300" y="667" on="0"/>
        <pt x="160" y="484" on="0"/>
        <pt x="160" y="350" on="1"/>
        <pt x="160" y="205" on="0"/>
        <pt x="283" y="33" on="0"/>
        <pt x="398" y="33" on="1"/>
        <pt x="502" y="33" on="0"/>
      </contour>
    </TTGlyph>
    <TTGlyph name="Ccedilla" xMin="44" yMin="-223" xMax="623" yMax="721">
      <contour>
        <pt x="372" y="-36" on="1"/>
        <pt x="489" y="-36" on="0"/>
        <pt x="489" y="-121" on="1"/>
        <pt x="489" y="-165" on="0"/>
        <pt x="416" y="-223" on="0"/>
        <pt x="353" y="-223" on="1"/>
        <pt x="308" y="-222" on="0"/>
        <pt x="272" y="-210" on="1"/>
        <pt x="273" y="-192" on="0"/>
        <pt x="287" y="-181" on="1"/>
        <pt x="318" y="-193" on="0"/>
        <pt x="347" y="-193" on="1"/>
        <pt x="379" y="-193" on="0"/>
        <pt x="421" y="-162" on="0"/>
        <pt x="421" y="-143" on="1"/>
        <pt x="421" y="-115" on="0"/>
        <pt x="373" y="-85" on="0"/>
        <pt x="331" y="-85" on="1"/>
        <pt x="329" y="-16" on="1"/>
        <pt x="292" y="-11" on="0"/>
        <pt x="257" y="2" on="1"/>
        <pt x="193" y="26" on="0"/>
        <pt x="100" y="115" on="0"/>
        <pt x="44" y="257" on="0"/>
        <pt x="44" y="351" on="1"/>
        <pt x="44" y="440" on="0"/>
        <pt x="106" y="585" on="0"/>
        <pt x="212" y="677" on="0"/>
        <pt x="333" y="721" on="0"/>
        <pt x="397" y="721" on="1"/>
        <pt x="537" y="721" on="0"/>
        <pt x="619" y="675" on="1"/>
        <pt x="623" y="604" on="0"/>
        <pt x="588" y="511" on="1"/>
        <pt x="563" y="508" on="0"/>
        <pt x="544" y="516" on="1"/>
        <pt x="533" y="645" on="1"/>
        <pt x="479" y="668" on="0"/>
        <pt x="404" y="667" on="1"/>
        <pt x="297" y="665" on="0"/>
        <pt x="161" y="484" on="0"/>
        <pt x="160" y="351" on="1"/>
        <pt x="160" y="205" on="0"/>
        <pt x="283" y="34" on="0"/>
        <pt x="398" y="33" on="1"/>
        <pt x="502" y="32" on="0"/>
        <pt x="592" y="109" on="1"/>
        <pt x="613" y="104" on="0"/>
        <pt x="615" y="76" on="1"/>
        <pt x="517" y="-20" on="0"/>
        <pt x="387" y="-20" on="1"/>
        <pt x="369" y="-19" on="1"/>
      </contour>
    </TTGlyph>
    <TTGlyph name="D" xMin="33" yMin="-7" xMax="693" yMax="705">
      <contour>
        <pt x="298" y="-7" on="1"/>
        <pt x="173" y="0" on="1"/>
        <pt x="129" y="0" on="0"/>
        <pt x="36" y="-5" on="1"/>
        <pt x="33" y="14" on="0"/>
        <pt x="38" y="30" on="1"/>
        <pt x="83" y="36" on="0"/>
        <pt x="118" y="50" on="1"/>
        <pt x="118" y="650" on="1"/>
        <pt x="41" y="670" on="1"/>
        <pt x="38" y="689" on="0"/>
        <pt x="46" y="705" on="1"/>
        <pt x="136" y="700" on="0"/>
        <pt x="168" y="700" on="1"/>
        <pt x="298" y="704" on="1"/>
        <pt x="495" y="704" on="0"/>
        <pt x="693" y="522" on="0"/>
        <pt x="693" y="360" on="1"/>
        <pt x="693" y="261" on="0"/>
        <pt x="628" y="116" on="0"/>
        <pt x="515" y="31" on="0"/>
        <pt x="378" y="-7" on="0"/>
      </contour>
      <contour>
        <pt x="223" y="45" on="1"/>
        <pt x="257" y="42" on="0"/>
        <pt x="289" y="42" on="1"/>
        <pt x="448" y="42" on="0"/>
        <pt x="582" y="193" on="0"/>
        <pt x="582" y="360" on="1"/>
        <pt x="582" y="511" on="0"/>
        <pt x="439" y="657" on="0"/>
        <pt x="274" y="657" on="1"/>
        <pt x="259" y="657" on="0"/>
        <pt x="223" y="655" on="1"/>
      </contour>
    </TTGlyph>
    <TTGlyph name="E" xMin="37" yMin="-5" xMax="583" yMax="705">
      <contour>
        <pt x="409" y="330" on="1"/>
        <pt x="223" y="330" on="1"/>
        <pt x="223" y="45" on="1"/>
        <pt x="513" y="45" on="1"/>
        <pt x="534" y="178" on="1"/>
        <pt x="554" y="182" on="0"/>
        <pt x="569" y="175" on="1"/>
        <pt x="583" y="116" on="0"/>
        <pt x="581" y="0" on="1"/>
        <pt x="173" y="0" on="1"/>
        <pt x="133" y="0" on="0"/>
        <pt x="40" y="-5" on="1"/>
        <pt x="37" y="14" on="0"/>
        <pt x="42" y="30" on="1"/>
        <pt x="94" y="40" on="0"/>
        <pt x="118" y="50" on="1"/>
        <pt x="118" y="650" on="1"/>
        <pt x="41" y="670" on="1"/>
        <pt x="38" y="689" on="0"/>
        <pt x="46" y="705" on="1"/>
        <pt x="136" y="700" on="0"/>
        <pt x="168" y="700" on="1"/>
        <pt x="553" y="700" on="1"/>
        <pt x="555" y="598" on="0"/>
        <pt x="542" y="525" on="1"/>
        <pt x="527" y="519" on="0"/>
        <pt x="506" y="522" on="1"/>
        <pt x="480" y="655" on="1"/>
        <pt x="223" y="655" on="1"/>
        <pt x="223" y="385" on="1"/>
        <pt x="409" y="385" on="1"/>
        <pt x="428" y="473" on="1"/>
        <pt x="451" y="480" on="0"/>
        <pt x="468" y="468" on="1"/>
        <pt x="464" y="429" on="0"/>
        <pt x="464" y="361" on="1"/>
        <pt x="464" y="286" on="0"/>
        <pt x="468" y="243" on="1"/>
        <pt x="450" y="236" on="0"/>
        <pt x="428" y="241" on="1"/>
      </contour>
    </TTGlyph>
    <TTGlyph name="Eacute" xMin="37" yMin="-5" xMax="583" yMax="919">
      <component glyphName="E" x="0" y="0" flags="0x4"/>
      <component glyphName="acute.case" x="228" y="-50" flags="0x4"/>
    </TTGlyph>
    <TTGlyph name="Ecircumflex" xMin="37" yMin="-5" xMax="583" yMax="920">
      <component glyphName="E" x="0" y="0" flags="0x4"/>
      <component glyphName="circumflex.case" x="160" y="-50" flags="0x4"/>
    </TTGlyph>
    <TTGlyph name="Edieresis" xMin="37" yMin="-5" xMax="583" yMax="898">
      <component glyphName="E" x="0" y="0" flags="0x4"/>
      <component glyphName="dieresis.case" x="143" y="-50" flags="0x4"/>
    </TTGlyph>
    <TTGlyph name="Egrave" xMin="37" yMin="-5" xMax="583" yMax="919">
      <component glyphName="E" x="0" y="0" flags="0x4"/>
      <component glyphName="grave.case" x="171" y="-50" flags="0x4"/>
    </TTGlyph>
    <TTGlyph name="Eth" xMin="33" yMin="-7" xMax="693" yMax="705">
      <contour>
        <pt x="298" y="-7" on="1"/>
        <pt x="173" y="0" on="1"/>
        <pt x="129" y="0" on="0"/>
        <pt x="36" y="-5" on="1"/>
        <pt x="33" y="14" on="0"/>
        <pt x="38" y="30" on="1"/>
        <pt x="83" y="36" on="0"/>
        <pt x="118" y="50" on="1"/>
        <pt x="118" y="340" on="1"/>
        <pt x="38" y="340" on="1"/>
        <pt x="37" y="352" on="0"/>
        <pt x="44" y="389" on="0"/>
        <pt x="49" y="395" on="1"/>
        <pt x="118" y="395" on="1"/>
        <pt x="118" y="650" on="1"/>
        <pt x="41" y="670" on="1"/>
        <pt x="38" y="689" on="0"/>
        <pt x="46" y="705" on="1"/>
        <pt x="136" y="700" on="0"/>
        <pt x="168" y="700" on="1"/>
        <pt x="298" y="704" on="1"/>
        <pt x="492" y="705" on="0"/>
        <pt x="693" y="524" on="0"/>
        <pt x="693" y="360" on="1"/>
        <pt x="693" y="261" on="0"/>
        <pt x="628" y="114" on="0"/>
        <pt x="513" y="31" on="0"/>
        <pt x="378" y="-7" on="0"/>
      </contour>
      <contour>
        <pt x="223" y="45" on="1"/>
        <pt x="257" y="42" on="0"/>
        <pt x="289" y="42" on="1"/>
        <pt x="447" y="42" on="0"/>
        <pt x="582" y="192" on="0"/>
        <pt x="582" y="360" on="1"/>
        <pt x="582" y="512" on="0"/>
        <pt x="438" y="657" on="0"/>
        <pt x="274" y="657" on="1"/>
        <pt x="259" y="657" on="0"/>
        <pt x="223" y="655" on="1"/>
        <pt x="223" y="395" on="1"/>
        <pt x="412" y="395" on="1"/>
        <pt x="411" y="357" on="0"/>
        <pt x="401" y="340" on="1"/>
        <pt x="223" y="340" on="1"/>
      </contour>
    </TTGlyph>
    <TTGlyph name="Euro" xMin="53" yMin="-20" xMax="690" yMax="720">
      <contour>
        <pt x="64" y="426" on="1"/>
        <pt x="135" y="426" on="1"/>
        <pt x="148" y="501" on="0"/>
        <pt x="219" y="615" on="0"/>
        <pt x="318" y="686" on="0"/>
        <pt x="427" y="720" on="0"/>
        <pt x="483" y="720" on="1"/>
        <pt x="590" y="720" on="0"/>
        <pt x="690" y="675" on="1"/>
        <pt x="674" y="577" on="0"/>
        <pt x="640" y="507" on="1"/>
        <pt x="636" y="506" on="0"/>
        <pt x="626" y="506" on="1"/>
        <pt x="606" y="506" on="0"/>
        <pt x="592" y="512" on="1"/>
        <pt x="605" y="641" on="1"/>
        <pt x="552" y="667" on="0"/>
        <pt x="492" y="667" on="1"/>
        <pt x="408" y="667" on="0"/>
        <pt x="267" y="534" on="0"/>
        <pt x="253" y="426" on="1"/>
        <pt x="479" y="426" on="1"/>
        <pt x="478" y="393" on="0"/>
        <pt x="469" y="376" on="1"/>
        <pt x="247" y="376" on="1"/>
        <pt x="247" y="350" on="1"/>
        <pt x="247" y="319" on="0"/>
        <pt x="248" y="305" on="1"/>
        <pt x="458" y="305" on="1"/>
        <pt x="457" y="272" on="0"/>
        <pt x="448" y="255" on="1"/>
        <pt x="254" y="255" on="1"/>
        <pt x="270" y="154" on="0"/>
        <pt x="389" y="33" on="0"/>
        <pt x="473" y="33" on="1"/>
        <pt x="578" y="32" on="0"/>
        <pt x="667" y="109" on="1"/>
        <pt x="688" y="98" on="0"/>
        <pt x="690" y="76" on="1"/>
        <pt x="593" y="-19" on="0"/>
        <pt x="462" y="-20" on="1"/>
        <pt x="393" y="-20" on="0"/>
        <pt x="256" y="40" on="0"/>
        <pt x="155" y="164" on="0"/>
        <pt x="137" y="255" on="1"/>
        <pt x="54" y="255" on="1"/>
        <pt x="53" y="270" on="0"/>
        <pt x="58" y="295" on="0"/>
        <pt x="64" y="305" on="1"/>
        <pt x="130" y="305" on="1"/>
        <pt x="129" y="319" on="0"/>
        <pt x="129" y="350" on="1"/>
        <pt x="129" y="367" on="0"/>
        <pt x="130" y="376" on="1"/>
        <pt x="54" y="376" on="1"/>
        <pt x="53" y="390" on="0"/>
        <pt x="58" y="416" on="0"/>
      </contour>
    </TTGlyph>
    <TTGlyph name="F" xMin="38" yMin="-5" xMax="544" yMax="705">
      <contour>
        <pt x="223" y="340" on="1"/>
        <pt x="223" y="49" on="1"/>
        <pt x="318" y="30" on="1"/>
        <pt x="321" y="11" on="0"/>
        <pt x="313" y="-5" on="1"/>
        <pt x="223" y="0" on="0"/>
        <pt x="168" y="0" on="1"/>
        <pt x="141" y="0" on="0"/>
        <pt x="48" y="-5" on="1"/>
        <pt x="45" y="14" on="0"/>
        <pt x="50" y="30" on="1"/>
        <pt x="101" y="39" on="0"/>
        <pt x="118" y="50" on="1"/>
        <pt x="118" y="650" on="1"/>
        <pt x="41" y="670" on="1"/>
        <pt x="38" y="689" on="0"/>
        <pt x="46" y="705" on="1"/>
        <pt x="136" y="700" on="0"/>
        <pt x="168" y="700" on="1"/>
        <pt x="543" y="700" on="1"/>
        <pt x="544" y="687" on="0"/>
        <pt x="543" y="601" on="0"/>
        <pt x="532" y="525" on="1"/>
        <pt x="517" y="519" on="0"/>
        <pt x="496" y="522" on="1"/>
        <pt x="471" y="655" on="1"/>
        <pt x="223" y="655" on="1"/>
        <pt x="223" y="395" on="1"/>
        <pt x="380" y="395" on="1"/>
        <pt x="399" y="483" on="1"/>
        <pt x="422" y="490" on="0"/>
        <pt x="439" y="478" on="1"/>
        <pt x="435" y="439" on="0"/>
        <pt x="435" y="371" on="1"/>
        <pt x="435" y="296" on="0"/>
        <pt x="439" y="253" on="1"/>
        <pt x="421" y="246" on="0"/>
        <pt x="399" y="251" on="1"/>
        <pt x="380" y="340" on="1"/>
      </contour>
    </TTGlyph>
    <TTGlyph name="G" xMin="44" yMin="-20" xMax="698" yMax="720">
      <contour>
        <pt x="620" y="250" on="1"/>
        <pt x="620" y="49" on="1"/>
        <pt x="501" y="-20" on="0"/>
        <pt x="378" y="-20" on="1"/>
        <pt x="233" y="-20" on="0"/>
        <pt x="44" y="176" on="0"/>
        <pt x="44" y="350" on="1"/>
        <pt x="44" y="520" on="0"/>
        <pt x="255" y="720" on="0"/>
        <pt x="424" y="720" on="1"/>
        <pt x="541" y="720" on="0"/>
        <pt x="630" y="677" on="1"/>
        <pt x="630" y="602" on="0"/>
        <pt x="599" y="502" on="1"/>
        <pt x="595" y="501" on="0"/>
        <pt x="586" y="501" on="1"/>
        <pt x="568" y="501" on="0"/>
        <pt x="555" y="507" on="1"/>
        <pt x="544" y="643" on="1"/>
        <pt x="478" y="668" on="0"/>
        <pt x="417" y="668" on="1"/>
        <pt x="304" y="668" on="0"/>
        <pt x="161" y="491" on="0"/>
        <pt x="160" y="350" on="1"/>
        <pt x="160" y="205" on="0"/>
        <pt x="285" y="33" on="0"/>
        <pt x="397" y="33" on="1"/>
        <pt x="455" y="32" on="0"/>
        <pt x="515" y="58" on="1"/>
        <pt x="515" y="250" on="1"/>
        <pt x="438" y="270" on="1"/>
        <pt x="437" y="274" on="0"/>
        <pt x="437" y="281" on="1"/>
        <pt x="437" y="293" on="0"/>
        <pt x="443" y="305" on="1"/>
        <pt x="533" y="300" on="0"/>
        <pt x="569" y="300" on="1"/>
        <pt x="602" y="300" on="0"/>
        <pt x="692" y="305" on="1"/>
        <pt x="698" y="293" on="0"/>
        <pt x="698" y="281" on="1"/>
        <pt x="698" y="279" on="0"/>
        <pt x="697" y="273" on="0"/>
        <pt x="697" y="270" on="1"/>
        <pt x="649" y="265" on="0"/>
      </contour>
    </TTGlyph>
    <TTGlyph name="H" xMin="33" yMin="-5" xMax="749" yMax="705">
      <contour>
        <pt x="663" y="650" on="1"/>
        <pt x="663" y="50" on="1"/>
        <pt x="740" y="30" on="1"/>
        <pt x="743" y="11" on="0"/>
        <pt x="735" y="-5" on="1"/>
        <pt x="645" y="0" on="0"/>
        <pt x="613" y="0" on="1"/>
        <pt x="569" y="0" on="0"/>
        <pt x="476" y="-5" on="1"/>
        <pt x="473" y="14" on="0"/>
        <pt x="478" y="30" on="1"/>
        <pt x="523" y="36" on="0"/>
        <pt x="558" y="50" on="1"/>
        <pt x="558" y="340" on="1"/>
        <pt x="223" y="340" on="1"/>
        <pt x="223" y="50" on="1"/>
        <pt x="300" y="30" on="1"/>
        <pt x="303" y="11" on="0"/>
        <pt x="295" y="-5" on="1"/>
        <pt x="205" y="0" on="0"/>
        <pt x="173" y="0" on="1"/>
        <pt x="129" y="0" on="0"/>
        <pt x="36" y="-5" on="1"/>
        <pt x="33" y="14" on="0"/>
        <pt x="38" y="30" on="1"/>
        <pt x="92" y="39" on="0"/>
        <pt x="118" y="50" on="1"/>
        <pt x="118" y="650" on="1"/>
        <pt x="41" y="670" on="1"/>
        <pt x="38" y="689" on="0"/>
        <pt x="46" y="705" on="1"/>
        <pt x="136" y="700" on="0"/>
        <pt x="168" y="700" on="1"/>
        <pt x="213" y="700" on="0"/>
        <pt x="305" y="705" on="1"/>
        <pt x="309" y="686" on="0"/>
        <pt x="303" y="670" on="1"/>
        <pt x="251" y="661" on="0"/>
        <pt x="223" y="650" on="1"/>
        <pt x="223" y="395" on="1"/>
        <pt x="558" y="395" on="1"/>
        <pt x="558" y="650" on="1"/>
        <pt x="481" y="670" on="1"/>
        <pt x="478" y="689" on="0"/>
        <pt x="486" y="705" on="1"/>
        <pt x="576" y="700" on="0"/>
        <pt x="608" y="700" on="1"/>
        <pt x="653" y="700" on="0"/>
        <pt x="745" y="705" on="1"/>
        <pt x="749" y="686" on="0"/>
        <pt x="743" y="670" on="1"/>
        <pt x="691" y="661" on="0"/>
      </contour>
    </TTGlyph>
    <TTGlyph name="I" xMin="33" yMin="-5" xMax="308" yMax="705">
      <contour>
        <pt x="223" y="650" on="1"/>
        <pt x="223" y="50" on="1"/>
        <pt x="300" y="30" on="1"/>
        <pt x="303" y="11" on="0"/>
        <pt x="295" y="-5" on="1"/>
        <pt x="205" y="0" on="0"/>
        <pt x="173" y="0" on="1"/>
        <pt x="129" y="0" on="0"/>
        <pt x="36" y="-5" on="1"/>
        <pt x="33" y="16" on="0"/>
        <pt x="38" y="30" on="1"/>
        <pt x="93" y="37" on="0"/>
        <pt x="118" y="50" on="1"/>
        <pt x="118" y="650" on="1"/>
        <pt x="41" y="670" on="1"/>
        <pt x="38" y="689" on="0"/>
        <pt x="46" y="705" on="1"/>
        <pt x="136" y="700" on="0"/>
        <pt x="168" y="700" on="1"/>
        <pt x="213" y="700" on="0"/>
        <pt x="305" y="705" on="1"/>
        <pt x="308" y="685" on="0"/>
        <pt x="303" y="670" on="1"/>
        <pt x="251" y="661" on="0"/>
      </contour>
    </TTGlyph>
    <TTGlyph name="Iacute" xMin="33" yMin="-5" xMax="308" yMax="920">
      <component glyphName="I" x="0" y="0" flags="0x204"/>
      <component glyphName="acute.case" x="75" y="-49" flags="0x4"/>
    </TTGlyph>
    <TTGlyph name="Icircumflex" xMin="25" yMin="-5" xMax="335" yMax="921">
      <component glyphName="I" x="0" y="0" flags="0x204"/>
      <component glyphName="circumflex.case" x="7" y="-49" flags="0x4"/>
    </TTGlyph>
    <TTGlyph name="Idieresis" xMin="16" yMin="-5" xMax="328" yMax="899">
      <component glyphName="I" x="0" y="0" flags="0x204"/>
      <component glyphName="dieresis.case" x="-9" y="-49" flags="0x4"/>
    </TTGlyph>
    <TTGlyph name="Igrave" xMin="18" yMin="-5" xMax="308" yMax="920">
      <component glyphName="I" x="0" y="0" flags="0x204"/>
      <component glyphName="grave.case" x="-11" y="-49" flags="0x4"/>
    </TTGlyph>
    <TTGlyph name="J" xMin="-9" yMin="-106" xMax="301" yMax="705">
      <contour>
        <pt x="111" y="139" on="1"/>
        <pt x="111" y="650" on="1"/>
        <pt x="34" y="670" on="1"/>
        <pt x="31" y="689" on="0"/>
        <pt x="39" y="705" on="1"/>
        <pt x="129" y="700" on="0"/>
        <pt x="161" y="700" on="1"/>
        <pt x="206" y="700" on="0"/>
        <pt x="298" y="705" on="1"/>
        <pt x="301" y="686" on="0"/>
        <pt x="296" y="670" on="1"/>
        <pt x="244" y="663" on="0"/>
        <pt x="216" y="650" on="1"/>
        <pt x="216" y="139" on="1"/>
        <pt x="216" y="52" on="0"/>
        <pt x="115" y="-66" on="0"/>
        <pt x="11" y="-106" on="1"/>
        <pt x="4" y="-105" on="0"/>
        <pt x="-9" y="-88" on="0"/>
        <pt x="-9" y="-81" on="1"/>
        <pt x="111" y="-19" on="0"/>
      </contour>
    </TTGlyph>
    <TTGlyph name="K" xMin="33" yMin="-5" xMax="681" yMax="705">
      <contour>
        <pt x="543" y="628" on="1"/>
        <pt x="341" y="389" on="1"/>
        <pt x="582" y="62" on="1"/>
        <pt x="591" y="50" on="0"/>
        <pt x="654" y="32" on="0"/>
        <pt x="678" y="30" on="1"/>
        <pt x="681" y="11" on="0"/>
        <pt x="673" y="-5" on="1"/>
        <pt x="583" y="0" on="0"/>
        <pt x="551" y="0" on="1"/>
        <pt x="491" y="0" on="0"/>
        <pt x="399" y="-5" on="1"/>
        <pt x="396" y="15" on="0"/>
        <pt x="401" y="30" on="1"/>
        <pt x="453" y="35" on="0"/>
        <pt x="481" y="50" on="1"/>
        <pt x="289" y="310" on="1"/>
        <pt x="223" y="310" on="1"/>
        <pt x="223" y="50" on="1"/>
        <pt x="300" y="30" on="1"/>
        <pt x="303" y="11" on="0"/>
        <pt x="295" y="-5" on="1"/>
        <pt x="205" y="0" on="0"/>
        <pt x="173" y="0" on="1"/>
        <pt x="129" y="0" on="0"/>
        <pt x="36" y="-5" on="1"/>
        <pt x="33" y="16" on="0"/>
        <pt x="38" y="30" on="1"/>
        <pt x="81" y="36" on="0"/>
        <pt x="118" y="50" on="1"/>
        <pt x="118" y="650" on="1"/>
        <pt x="41" y="670" on="1"/>
        <pt x="38" y="689" on="0"/>
        <pt x="46" y="705" on="1"/>
        <pt x="136" y="700" on="0"/>
        <pt x="168" y="700" on="1"/>
        <pt x="213" y="700" on="0"/>
        <pt x="305" y="705" on="1"/>
        <pt x="308" y="686" on="0"/>
        <pt x="303" y="670" on="1"/>
        <pt x="256" y="665" on="0"/>
        <pt x="223" y="650" on="1"/>
        <pt x="223" y="365" on="1"/>
        <pt x="261" y="365" on="1"/>
        <pt x="493" y="650" on="1"/>
        <pt x="470" y="664" on="0"/>
        <pt x="416" y="670" on="1"/>
        <pt x="413" y="689" on="0"/>
        <pt x="421" y="705" on="1"/>
        <pt x="511" y="700" on="0"/>
        <pt x="545" y="700" on="1"/>
        <pt x="579" y="700" on="0"/>
        <pt x="649" y="705" on="1"/>
        <pt x="652" y="686" on="0"/>
        <pt x="647" y="670" on="1"/>
        <pt x="574" y="661" on="0"/>
      </contour>
    </TTGlyph>
    <TTGlyph name="L" xMin="37" yMin="-5" xMax="536" yMax="705">
      <contour>
        <pt x="223" y="55" on="1"/>
        <pt x="463" y="55" on="1"/>
        <pt x="490" y="178" on="1"/>
        <pt x="511" y="182" on="0"/>
        <pt x="526" y="175" on="1"/>
        <pt x="536" y="102" on="0"/>
        <pt x="536" y="0" on="1"/>
        <pt x="173" y="0" on="1"/>
        <pt x="133" y="0" on="0"/>
        <pt x="40" y="-5" on="1"/>
        <pt x="37" y="14" on="0"/>
        <pt x="42" y="30" on="1"/>
        <pt x="100" y="41" on="0"/>
        <pt x="118" y="50" on="1"/>
        <pt x="118" y="650" on="1"/>
        <pt x="41" y="670" on="1"/>
        <pt x="38" y="689" on="0"/>
        <pt x="46" y="705" on="1"/>
        <pt x="136" y="700" on="0"/>
        <pt x="168" y="700" on="1"/>
        <pt x="213" y="700" on="0"/>
        <pt x="305" y="705" on="1"/>
        <pt x="308" y="686" on="0"/>
        <pt x="303" y="670" on="1"/>
        <pt x="250" y="665" on="0"/>
        <pt x="223" y="650" on="1"/>
      </contour>
    </TTGlyph>
    <TTGlyph name="M" xMin="19" yMin="-6" xMax="903" yMax="705">
      <contour>
        <pt x="495" y="265" on="1"/>
        <pt x="658" y="680" on="1"/>
        <pt x="658" y="700" on="1"/>
        <pt x="718" y="700" on="1"/>
        <pt x="763" y="700" on="0"/>
        <pt x="855" y="705" on="1"/>
        <pt x="858" y="686" on="0"/>
        <pt x="853" y="670" on="1"/>
        <pt x="798" y="661" on="0"/>
        <pt x="773" y="650" on="1"/>
        <pt x="823" y="50" on="1"/>
        <pt x="900" y="30" on="1"/>
        <pt x="903" y="11" on="0"/>
        <pt x="895" y="-5" on="1"/>
        <pt x="805" y="0" on="0"/>
        <pt x="773" y="0" on="1"/>
        <pt x="729" y="0" on="0"/>
        <pt x="636" y="-5" on="1"/>
        <pt x="633" y="15" on="0"/>
        <pt x="638" y="30" on="1"/>
        <pt x="704" y="39" on="0"/>
        <pt x="718" y="50" on="1"/>
        <pt x="676" y="488" on="1"/>
        <pt x="674" y="507" on="0"/>
        <pt x="674" y="544" on="1"/>
        <pt x="674" y="575" on="0"/>
        <pt x="675" y="590" on="1"/>
        <pt x="672" y="590" on="1"/>
        <pt x="656" y="530" on="0"/>
        <pt x="640" y="488" on="1"/>
        <pt x="459" y="31" on="1"/>
        <pt x="439" y="20" on="0"/>
        <pt x="423" y="21" on="1"/>
        <pt x="226" y="488" on="1"/>
        <pt x="213" y="519" on="0"/>
        <pt x="193" y="590" on="1"/>
        <pt x="190" y="590" on="1"/>
        <pt x="187" y="487" on="1"/>
        <pt x="162" y="49" on="1"/>
        <pt x="239" y="29" on="1"/>
        <pt x="242" y="10" on="0"/>
        <pt x="234" y="-6" on="1"/>
        <pt x="222" y="-5" on="0"/>
        <pt x="180" y="-2" on="0"/>
        <pt x="145" y="0" on="0"/>
        <pt x="129" y="0" on="1"/>
        <pt x="95" y="0" on="0"/>
        <pt x="22" y="-5" on="1"/>
        <pt x="19" y="14" on="0"/>
        <pt x="24" y="30" on="1"/>
        <pt x="68" y="36" on="0"/>
        <pt x="102" y="50" on="1"/>
        <pt x="142" y="650" on="1"/>
        <pt x="65" y="670" on="1"/>
        <pt x="62" y="689" on="0"/>
        <pt x="70" y="705" on="1"/>
        <pt x="160" y="700" on="0"/>
        <pt x="192" y="700" on="1"/>
        <pt x="257" y="700" on="1"/>
        <pt x="257" y="680" on="1"/>
        <pt x="420" y="265" on="1"/>
        <pt x="438" y="223" on="0"/>
        <pt x="456" y="147" on="1"/>
        <pt x="458" y="147" on="1"/>
        <pt x="476" y="216" on="0"/>
      </contour>
    </TTGlyph>
    <TTGlyph name="N" xMin="34" yMin="-30" xMax="732" yMax="705">
      <contour>
        <pt x="591" y="650" on="1"/>
        <pt x="514" y="670" on="1"/>
        <pt x="511" y="689" on="0"/>
        <pt x="519" y="705" on="1"/>
        <pt x="584" y="700" on="0"/>
        <pt x="619" y="700" on="1"/>
        <pt x="657" y="700" on="0"/>
        <pt x="729" y="705" on="1"/>
        <pt x="732" y="686" on="0"/>
        <pt x="727" y="670" on="1"/>
        <pt x="675" y="661" on="0"/>
        <pt x="647" y="650" on="1"/>
        <pt x="647" y="-20" on="1"/>
        <pt x="636" y="-27" on="0"/>
        <pt x="627" y="-30" on="1"/>
        <pt x="229" y="475" on="1"/>
        <pt x="209" y="499" on="0"/>
        <pt x="170" y="570" on="1"/>
        <pt x="167" y="570" on="1"/>
        <pt x="172" y="539" on="0"/>
        <pt x="172" y="472" on="1"/>
        <pt x="172" y="50" on="1"/>
        <pt x="249" y="29" on="1"/>
        <pt x="252" y="10" on="0"/>
        <pt x="244" y="-6" on="1"/>
        <pt x="232" y="-5" on="0"/>
        <pt x="190" y="-2" on="0"/>
        <pt x="155" y="0" on="0"/>
        <pt x="139" y="0" on="1"/>
        <pt x="129" y="0" on="0"/>
        <pt x="37" y="-5" on="1"/>
        <pt x="34" y="14" on="0"/>
        <pt x="39" y="30" on="1"/>
        <pt x="77" y="36" on="0"/>
        <pt x="117" y="50" on="1"/>
        <pt x="117" y="650" on="1"/>
        <pt x="40" y="670" on="1"/>
        <pt x="37" y="689" on="0"/>
        <pt x="45" y="705" on="1"/>
        <pt x="135" y="700" on="0"/>
        <pt x="167" y="700" on="1"/>
        <pt x="207" y="700" on="1"/>
        <pt x="232" y="648" on="1"/>
        <pt x="541" y="251" on="1"/>
        <pt x="565" y="220" on="0"/>
        <pt x="595" y="153" on="1"/>
        <pt x="598" y="153" on="1"/>
        <pt x="596" y="177" on="0"/>
        <pt x="594" y="201" on="0"/>
        <pt x="592" y="231" on="0"/>
        <pt x="592" y="249" on="1"/>
      </contour>
    </TTGlyph>
    <TTGlyph name="Ntilde" xMin="34" yMin="-30" xMax="732" yMax="897">
      <component glyphName="N" x="0" y="0" flags="0x204"/>
      <component glyphName="tilde.case" x="213" y="-50" flags="0x4"/>
    </TTGlyph>
    <TTGlyph name="O" xMin="44" yMin="-20" xMax="709" yMax="720">
      <contour>
        <pt x="44" y="351" on="1"/>
        <pt x="44" y="517" on="0"/>
        <pt x="230" y="720" on="0"/>
        <pt x="375" y="720" on="1"/>
        <pt x="523" y="720" on="0"/>
        <pt x="709" y="515" on="0"/>
        <pt x="709" y="351" on="1"/>
        <pt x="709" y="184" on="0"/>
        <pt x="525" y="-20" on="0"/>
        <pt x="375" y="-20" on="1"/>
        <pt x="224" y="-20" on="0"/>
        <pt x="44" y="184" on="0"/>
      </contour>
      <contour>
        <pt x="594" y="358" on="1"/>
        <pt x="594" y="439" on="0"/>
        <pt x="545" y="580" on="0"/>
        <pt x="441" y="674" on="0"/>
        <pt x="372" y="674" on="1"/>
        <pt x="316" y="674" on="0"/>
        <pt x="232" y="619" on="0"/>
        <pt x="183" y="524" on="0"/>
        <pt x="159" y="409" on="0"/>
        <pt x="159" y="342" on="1"/>
        <pt x="159" y="207" on="0"/>
        <pt x="282" y="26" on="0"/>
        <pt x="386" y="26" on="1"/>
        <pt x="488" y="26" on="0"/>
        <pt x="594" y="215" on="0"/>
      </contour>
    </TTGlyph>
    <TTGlyph name="OE" xMin="44" yMin="-20" xMax="1037" yMax="720">
      <contour>
        <pt x="44" y="351" on="1"/>
        <pt x="46" y="519" on="0"/>
        <pt x="227" y="719" on="0"/>
        <pt x="375" y="720" on="1"/>
        <pt x="501" y="720" on="0"/>
        <pt x="584" y="639" on="1"/>
        <pt x="584" y="700" on="1"/>
        <pt x="1009" y="700" on="1"/>
        <pt x="1011" y="598" on="0"/>
        <pt x="998" y="525" on="1"/>
        <pt x="983" y="519" on="0"/>
        <pt x="962" y="522" on="1"/>
        <pt x="936" y="655" on="1"/>
        <pt x="679" y="655" on="1"/>
        <pt x="679" y="385" on="1"/>
        <pt x="865" y="385" on="1"/>
        <pt x="884" y="473" on="1"/>
        <pt x="907" y="480" on="0"/>
        <pt x="924" y="468" on="1"/>
        <pt x="920" y="429" on="0"/>
        <pt x="920" y="361" on="1"/>
        <pt x="920" y="286" on="0"/>
        <pt x="924" y="243" on="1"/>
        <pt x="906" y="236" on="0"/>
        <pt x="884" y="241" on="1"/>
        <pt x="865" y="330" on="1"/>
        <pt x="679" y="330" on="1"/>
        <pt x="679" y="45" on="1"/>
        <pt x="969" y="45" on="1"/>
        <pt x="990" y="178" on="1"/>
        <pt x="1011" y="182" on="0"/>
        <pt x="1025" y="175" on="1"/>
        <pt x="1037" y="117" on="0"/>
        <pt x="1037" y="31" on="1"/>
        <pt x="1037" y="0" on="1"/>
        <pt x="584" y="0" on="1"/>
        <pt x="584" y="59" on="1"/>
        <pt x="503" y="-20" on="0"/>
        <pt x="375" y="-20" on="1"/>
        <pt x="220" y="-18" on="0"/>
        <pt x="45" y="185" on="0"/>
      </contour>
      <contour>
        <pt x="386" y="26" on="1"/>
        <pt x="450" y="26" on="0"/>
        <pt x="539" y="112" on="0"/>
        <pt x="582" y="255" on="0"/>
        <pt x="584" y="344" on="1"/>
        <pt x="584" y="370" on="1"/>
        <pt x="581" y="495" on="0"/>
        <pt x="466" y="673" on="0"/>
        <pt x="372" y="674" on="1"/>
        <pt x="316" y="674" on="0"/>
        <pt x="232" y="618" on="0"/>
        <pt x="183" y="525" on="0"/>
        <pt x="159" y="409" on="0"/>
        <pt x="159" y="342" on="1"/>
        <pt x="159" y="211" on="0"/>
        <pt x="277" y="28" on="0"/>
      </contour>
    </TTGlyph>
    <TTGlyph name="Oacute" xMin="40" yMin="-20" xMax="705" yMax="919">
      <component glyphName="O" x="-4" y="0" flags="0x4"/>
      <component glyphName="acute.case" x="274" y="-50" flags="0x4"/>
    </TTGlyph>
    <TTGlyph name="Ocircumflex" xMin="40" yMin="-20" xMax="705" yMax="920">
      <component glyphName="O" x="-4" y="0" flags="0x4"/>
      <component glyphName="circumflex.case" x="206" y="-50" flags="0x4"/>
    </TTGlyph>
    <TTGlyph name="Odieresis" xMin="40" yMin="-20" xMax="705" yMax="898">
      <component glyphName="O" x="-4" y="0" flags="0x4"/>
      <component glyphName="dieresis.case" x="189" y="-50" flags="0x4"/>
    </TTGlyph>
    <TTGlyph name="Ograve" xMin="40" yMin="-20" xMax="705" yMax="919">
      <component glyphName="O" x="-4" y="0" flags="0x4"/>
      <component glyphName="grave.case" x="197" y="-50" flags="0x4"/>
    </TTGlyph>
    <TTGlyph name="Oslash" xMin="44" yMin="-51" xMax="709" yMax="768">
      <contour>
        <pt x="44" y="351" on="1"/>
        <pt x="44" y="513" on="0"/>
        <pt x="226" y="719" on="0"/>
        <pt x="374" y="720" on="1"/>
        <pt x="467" y="720" on="0"/>
        <pt x="536" y="681" on="1"/>
        <pt x="586" y="765" on="1"/>
        <pt x="630" y="768" on="0"/>
        <pt x="645" y="755" on="1"/>
        <pt x="583" y="649" on="1"/>
        <pt x="709" y="541" on="0"/>
        <pt x="709" y="351" on="1"/>
        <pt x="709" y="185" on="0"/>
        <pt x="524" y="-19" on="0"/>
        <pt x="374" y="-20" on="1"/>
        <pt x="288" y="-20" on="0"/>
        <pt x="219" y="16" on="1"/>
        <pt x="183" y="-50" on="1"/>
        <pt x="148" y="-51" on="0"/>
        <pt x="122" y="-40" on="1"/>
        <pt x="171" y="47" on="1"/>
        <pt x="45" y="151" on="0"/>
      </contour>
      <contour>
        <pt x="159" y="342" on="1"/>
        <pt x="160" y="212" on="0"/>
        <pt x="218" y="120" on="1"/>
        <pt x="497" y="623" on="1"/>
        <pt x="446" y="674" on="0"/>
        <pt x="371" y="674" on="1"/>
        <pt x="299" y="674" on="0"/>
        <pt x="203" y="580" on="0"/>
        <pt x="159" y="432" on="0"/>
      </contour>
      <contour>
        <pt x="594" y="358" on="1"/>
        <pt x="592" y="479" on="0"/>
        <pt x="536" y="577" on="1"/>
        <pt x="258" y="74" on="1"/>
        <pt x="312" y="26" on="0"/>
        <pt x="385" y="26" on="1"/>
        <pt x="485" y="27" on="0"/>
        <pt x="594" y="216" on="0"/>
      </contour>
    </TTGlyph>
    <TTGlyph name="Otilde" xMin="40" yMin="-20" xMax="705" yMax="897">
      <component glyphName="O" x="-4" y="0" flags="0x4"/>
      <component glyphName="tilde.case" x="209" y="-50" flags="0x4"/>
    </TTGlyph>
    <TTGlyph name="P" xMin="33" yMin="-5" xMax="568" yMax="709">
      <contour>
        <pt x="277" y="279" on="1"/>
        <pt x="258" y="279" on="0"/>
        <pt x="223" y="282" on="1"/>
        <pt x="223" y="50" on="1"/>
        <pt x="320" y="30" on="1"/>
        <pt x="323" y="11" on="0"/>
        <pt x="315" y="-5" on="1"/>
        <pt x="225" y="0" on="0"/>
        <pt x="173" y="0" on="1"/>
        <pt x="129" y="0" on="0"/>
        <pt x="36" y="-5" on="1"/>
        <pt x="33" y="14" on="0"/>
        <pt x="38" y="30" on="1"/>
        <pt x="93" y="37" on="0"/>
        <pt x="118" y="50" on="1"/>
        <pt x="118" y="650" on="1"/>
        <pt x="41" y="670" on="1"/>
        <pt x="38" y="689" on="0"/>
        <pt x="46" y="705" on="1"/>
        <pt x="136" y="700" on="0"/>
        <pt x="168" y="700" on="1"/>
        <pt x="201" y="700" on="0"/>
        <pt x="289" y="709" on="0"/>
        <pt x="303" y="709" on="1"/>
        <pt x="427" y="709" on="0"/>
        <pt x="568" y="599" on="0"/>
        <pt x="568" y="502" on="1"/>
        <pt x="568" y="443" on="0"/>
        <pt x="518" y="355" on="0"/>
        <pt x="433" y="303" on="0"/>
        <pt x="333" y="279" on="0"/>
      </contour>
      <contour>
        <pt x="296" y="664" on="1"/>
        <pt x="261" y="664" on="0"/>
        <pt x="223" y="655" on="1"/>
        <pt x="223" y="331" on="1"/>
        <pt x="255" y="325" on="0"/>
        <pt x="285" y="325" on="1"/>
        <pt x="366" y="325" on="0"/>
        <pt x="461" y="412" on="0"/>
        <pt x="461" y="496" on="1"/>
        <pt x="461" y="572" on="0"/>
        <pt x="367" y="664" on="0"/>
      </contour>
    </TTGlyph>
    <TTGlyph name="Q" xMin="44" yMin="-208" xMax="817" yMax="720">
      <contour>
        <pt x="44" y="351" on="1"/>
        <pt x="45" y="520" on="0"/>
        <pt x="230" y="720" on="0"/>
        <pt x="375" y="720" on="1"/>
        <pt x="524" y="720" on="0"/>
        <pt x="709" y="513" on="0"/>
        <pt x="709" y="351" on="1"/>
        <pt x="709" y="199" on="0"/>
        <pt x="555" y="1" on="0"/>
        <pt x="425" y="-16" on="1"/>
        <pt x="563" y="-128" on="0"/>
        <pt x="721" y="-128" on="1"/>
        <pt x="768" y="-128" on="0"/>
        <pt x="804" y="-111" on="1"/>
        <pt x="806" y="-112" on="0"/>
        <pt x="817" y="-129" on="0"/>
        <pt x="816" y="-133" on="1"/>
        <pt x="729" y="-208" on="0"/>
        <pt x="663" y="-208" on="1"/>
        <pt x="538" y="-208" on="0"/>
        <pt x="345" y="-19" on="1"/>
        <pt x="204" y="-7" on="0"/>
        <pt x="45" y="193" on="0"/>
      </contour>
      <contour>
        <pt x="594" y="358" on="1"/>
        <pt x="594" y="436" on="0"/>
        <pt x="543" y="583" on="0"/>
        <pt x="441" y="674" on="0"/>
        <pt x="372" y="674" on="1"/>
        <pt x="316" y="674" on="0"/>
        <pt x="232" y="618" on="0"/>
        <pt x="183" y="525" on="0"/>
        <pt x="159" y="409" on="0"/>
        <pt x="159" y="342" on="1"/>
        <pt x="159" y="207" on="0"/>
        <pt x="282" y="26" on="0"/>
        <pt x="386" y="26" on="1"/>
        <pt x="486" y="26" on="0"/>
        <pt x="594" y="211" on="0"/>
      </contour>
    </TTGlyph>
    <TTGlyph name="R" xMin="33" yMin="-15" xMax="650" yMax="713">
      <contour>
        <pt x="223" y="315" on="1"/>
        <pt x="223" y="50" on="1"/>
        <pt x="300" y="30" on="1"/>
        <pt x="303" y="11" on="0"/>
        <pt x="295" y="-5" on="1"/>
        <pt x="205" y="0" on="0"/>
        <pt x="173" y="0" on="1"/>
        <pt x="129" y="0" on="0"/>
        <pt x="36" y="-5" on="1"/>
        <pt x="33" y="14" on="0"/>
        <pt x="38" y="30" on="1"/>
        <pt x="82" y="35" on="0"/>
        <pt x="118" y="50" on="1"/>
        <pt x="118" y="650" on="1"/>
        <pt x="41" y="670" on="1"/>
        <pt x="38" y="689" on="0"/>
        <pt x="46" y="705" on="1"/>
        <pt x="130" y="699" on="0"/>
        <pt x="188" y="700" on="1"/>
        <pt x="282" y="706" on="1"/>
        <pt x="408" y="713" on="0"/>
        <pt x="562" y="610" on="0"/>
        <pt x="562" y="512" on="1"/>
        <pt x="562" y="382" on="0"/>
        <pt x="425" y="336" on="1"/>
        <pt x="425" y="332" on="1"/>
        <pt x="436" y="325" on="0"/>
        <pt x="447" y="300" on="1"/>
        <pt x="530" y="113" on="0"/>
        <pt x="547" y="86" on="1"/>
        <pt x="572" y="41" on="0"/>
        <pt x="602" y="34" on="1"/>
        <pt x="614" y="31" on="0"/>
        <pt x="630" y="31" on="1"/>
        <pt x="642" y="32" on="1"/>
        <pt x="650" y="20" on="0"/>
        <pt x="648" y="0" on="1"/>
        <pt x="636" y="-14" on="0"/>
        <pt x="582" y="-15" on="1"/>
        <pt x="516" y="-15" on="0"/>
        <pt x="473" y="37" on="1"/>
        <pt x="456" y="57" on="0"/>
        <pt x="424" y="126" on="0"/>
        <pt x="371" y="254" on="0"/>
        <pt x="340" y="316" on="1"/>
        <pt x="307" y="313" on="0"/>
        <pt x="273" y="313" on="1"/>
        <pt x="255" y="313" on="0"/>
      </contour>
      <contour>
        <pt x="464" y="506" on="1"/>
        <pt x="464" y="579" on="0"/>
        <pt x="369" y="660" on="0"/>
        <pt x="296" y="660" on="1"/>
        <pt x="264" y="660" on="0"/>
        <pt x="223" y="649" on="1"/>
        <pt x="223" y="361" on="1"/>
        <pt x="252" y="354" on="0"/>
        <pt x="283" y="354" on="1"/>
        <pt x="369" y="354" on="0"/>
        <pt x="464" y="435" on="0"/>
      </contour>
    </TTGlyph>
    <TTGlyph name="S" xMin="49" yMin="-19" xMax="512" yMax="716">
      <contour>
        <pt x="258" y="-19" on="1"/>
        <pt x="123" y="-19" on="0"/>
        <pt x="49" y="16" on="1"/>
        <pt x="49" y="105" on="0"/>
        <pt x="75" y="190" on="1"/>
        <pt x="77" y="190" on="0"/>
        <pt x="85" y="191" on="0"/>
        <pt x="88" y="191" on="1"/>
        <pt x="106" y="191" on="0"/>
        <pt x="119" y="185" on="1"/>
        <pt x="135" y="52" on="1"/>
        <pt x="198" y="37" on="0"/>
        <pt x="243" y="37" on="1"/>
        <pt x="278" y="37" on="0"/>
        <pt x="352" y="53" on="0"/>
        <pt x="407" y="103" on="0"/>
        <pt x="407" y="146" on="1"/>
        <pt x="407" y="185" on="0"/>
        <pt x="384" y="233" on="0"/>
        <pt x="301" y="290" on="0"/>
        <pt x="213" y="328" on="1"/>
        <pt x="123" y="368" on="0"/>
        <pt x="50" y="459" on="0"/>
        <pt x="52" y="536" on="1"/>
        <pt x="53" y="624" on="0"/>
        <pt x="199" y="716" on="0"/>
        <pt x="309" y="716" on="1"/>
        <pt x="402" y="716" on="0"/>
        <pt x="479" y="686" on="1"/>
        <pt x="482" y="610" on="0"/>
        <pt x="448" y="517" on="1"/>
        <pt x="444" y="516" on="0"/>
        <pt x="435" y="516" on="1"/>
        <pt x="418" y="516" on="0"/>
        <pt x="404" y="522" on="1"/>
        <pt x="393" y="655" on="1"/>
        <pt x="348" y="668" on="0"/>
        <pt x="303" y="668" on="1"/>
        <pt x="237" y="668" on="0"/>
        <pt x="148" y="611" on="0"/>
        <pt x="147" y="553" on="1"/>
        <pt x="146" y="507" on="0"/>
        <pt x="201" y="449" on="0"/>
        <pt x="290" y="409" on="1"/>
        <pt x="355" y="380" on="0"/>
        <pt x="427" y="341" on="0"/>
        <pt x="486" y="288" on="0"/>
        <pt x="512" y="220" on="0"/>
        <pt x="512" y="174" on="1"/>
        <pt x="510" y="81" on="0"/>
        <pt x="360" y="-19" on="0"/>
      </contour>
    </TTGlyph>
    <TTGlyph name="T" xMin="19" yMin="-5" xMax="610" yMax="700">
      <contour>
        <pt x="257" y="50" on="1"/>
        <pt x="257" y="655" on="1"/>
        <pt x="101" y="655" on="1"/>
        <pt x="72" y="512" on="1"/>
        <pt x="48" y="508" on="0"/>
        <pt x="32" y="515" on="1"/>
        <pt x="19" y="630" on="0"/>
        <pt x="22" y="700" on="1"/>
        <pt x="607" y="700" on="1"/>
        <pt x="610" y="620" on="0"/>
        <pt x="596" y="515" on="1"/>
        <pt x="580" y="508" on="0"/>
        <pt x="556" y="512" on="1"/>
        <pt x="527" y="655" on="1"/>
        <pt x="362" y="655" on="1"/>
        <pt x="362" y="50" on="1"/>
        <pt x="445" y="30" on="1"/>
        <pt x="448" y="11" on="0"/>
        <pt x="440" y="-5" on="1"/>
        <pt x="350" y="0" on="0"/>
        <pt x="312" y="0" on="1"/>
        <pt x="267" y="0" on="0"/>
        <pt x="175" y="-5" on="1"/>
        <pt x="172" y="15" on="0"/>
        <pt x="177" y="30" on="1"/>
        <pt x="216" y="35" on="0"/>
      </contour>
    </TTGlyph>
    <TTGlyph name="Thorn" xMin="33" yMin="-5" xMax="551" yMax="705">
      <contour>
        <pt x="224" y="650" on="1"/>
        <pt x="224" y="571" on="1"/>
        <pt x="275" y="574" on="1"/>
        <pt x="401" y="574" on="0"/>
        <pt x="551" y="466" on="0"/>
        <pt x="551" y="371" on="1"/>
        <pt x="551" y="312" on="0"/>
        <pt x="500" y="224" on="0"/>
        <pt x="416" y="173" on="0"/>
        <pt x="316" y="149" on="0"/>
        <pt x="260" y="149" on="1"/>
        <pt x="235" y="149" on="0"/>
        <pt x="224" y="150" on="1"/>
        <pt x="224" y="50" on="1"/>
        <pt x="311" y="30" on="1"/>
        <pt x="314" y="11" on="0"/>
        <pt x="306" y="-5" on="1"/>
        <pt x="206" y="0" on="0"/>
        <pt x="174" y="0" on="1"/>
        <pt x="130" y="0" on="0"/>
        <pt x="37" y="-5" on="1"/>
        <pt x="33" y="13" on="0"/>
        <pt x="39" y="30" on="1"/>
        <pt x="94" y="37" on="0"/>
        <pt x="119" y="50" on="1"/>
        <pt x="119" y="650" on="1"/>
        <pt x="42" y="670" on="1"/>
        <pt x="39" y="689" on="0"/>
        <pt x="47" y="705" on="1"/>
        <pt x="127" y="700" on="0"/>
        <pt x="169" y="700" on="1"/>
        <pt x="214" y="700" on="0"/>
        <pt x="306" y="705" on="1"/>
        <pt x="309" y="686" on="0"/>
        <pt x="304" y="670" on="1"/>
        <pt x="252" y="661" on="0"/>
      </contour>
      <contour>
        <pt x="279" y="533" on="1"/>
        <pt x="257" y="533" on="0"/>
        <pt x="224" y="526" on="1"/>
        <pt x="224" y="198" on="1"/>
        <pt x="244" y="194" on="0"/>
        <pt x="268" y="194" on="1"/>
        <pt x="342" y="194" on="0"/>
        <pt x="436" y="288" on="0"/>
        <pt x="436" y="365" on="1"/>
        <pt x="436" y="443" on="0"/>
        <pt x="349" y="533" on="0"/>
      </contour>
    </TTGlyph>
    <TTGlyph name="U" xMin="22" yMin="-20" xMax="727" yMax="705">
      <contour>
        <pt x="642" y="650" on="1"/>
        <pt x="642" y="275" on="1"/>
        <pt x="642" y="186" on="0"/>
        <pt x="611" y="76" on="0"/>
        <pt x="551" y="10" on="0"/>
        <pt x="455" y="-20" on="0"/>
        <pt x="383" y="-20" on="1"/>
        <pt x="311" y="-20" on="0"/>
        <pt x="209" y="5" on="0"/>
        <pt x="138" y="68" on="0"/>
        <pt x="102" y="179" on="0"/>
        <pt x="102" y="265" on="1"/>
        <pt x="102" y="650" on="1"/>
        <pt x="25" y="670" on="1"/>
        <pt x="22" y="689" on="0"/>
        <pt x="30" y="705" on="1"/>
        <pt x="120" y="700" on="0"/>
        <pt x="152" y="700" on="1"/>
        <pt x="197" y="700" on="0"/>
        <pt x="289" y="705" on="1"/>
        <pt x="292" y="686" on="0"/>
        <pt x="287" y="670" on="1"/>
        <pt x="235" y="663" on="0"/>
        <pt x="207" y="650" on="1"/>
        <pt x="207" y="235" on="1"/>
        <pt x="206" y="29" on="0"/>
        <pt x="408" y="30" on="1"/>
        <pt x="446" y="30" on="0"/>
        <pt x="503" y="48" on="0"/>
        <pt x="544" y="83" on="0"/>
        <pt x="565" y="123" on="0"/>
        <pt x="578" y="164" on="0"/>
        <pt x="586" y="229" on="0"/>
        <pt x="587" y="271" on="0"/>
        <pt x="587" y="305" on="1"/>
        <pt x="587" y="650" on="1"/>
        <pt x="510" y="670" on="1"/>
        <pt x="507" y="689" on="0"/>
        <pt x="515" y="705" on="1"/>
        <pt x="585" y="700" on="0"/>
        <pt x="617" y="700" on="1"/>
        <pt x="651" y="700" on="0"/>
        <pt x="724" y="705" on="1"/>
        <pt x="727" y="685" on="0"/>
        <pt x="722" y="670" on="1"/>
        <pt x="665" y="662" on="0"/>
      </contour>
    </TTGlyph>
    <TTGlyph name="Uacute" xMin="22" yMin="-20" xMax="727" yMax="918">
      <component glyphName="U" x="0" y="0" flags="0x204"/>
      <component glyphName="acute.case" x="323" y="-51" flags="0x4"/>
    </TTGlyph>
    <TTGlyph name="Ucircumflex" xMin="22" yMin="-20" xMax="727" yMax="919">
      <component glyphName="U" x="0" y="0" flags="0x204"/>
      <component glyphName="circumflex.case" x="225" y="-51" flags="0x4"/>
    </TTGlyph>
    <TTGlyph name="Udieresis" xMin="22" yMin="-20" xMax="727" yMax="897">
      <component glyphName="U" x="0" y="0" flags="0x204"/>
      <component glyphName="dieresis.case" x="218" y="-51" flags="0x4"/>
    </TTGlyph>
    <TTGlyph name="Ugrave" xMin="22" yMin="-20" xMax="727" yMax="918">
      <component glyphName="U" x="0" y="0" flags="0x204"/>
      <component glyphName="grave.case" x="216" y="-51" flags="0x4"/>
    </TTGlyph>
    <TTGlyph name="V" xMin="-17" yMin="-30" xMax="693" yMax="705">
      <contour>
        <pt x="606" y="650" on="1"/>
        <pt x="366" y="-20" on="1"/>
        <pt x="349" y="-30" on="0"/>
        <pt x="330" y="-30" on="1"/>
        <pt x="63" y="650" on="1"/>
        <pt x="-14" y="670" on="1"/>
        <pt x="-17" y="689" on="0"/>
        <pt x="-9" y="705" on="1"/>
        <pt x="81" y="700" on="0"/>
        <pt x="128" y="700" on="1"/>
        <pt x="173" y="700" on="0"/>
        <pt x="265" y="705" on="1"/>
        <pt x="268" y="686" on="0"/>
        <pt x="263" y="670" on="1"/>
        <pt x="218" y="664" on="0"/>
        <pt x="183" y="650" on="1"/>
        <pt x="328" y="262" on="1"/>
        <pt x="360" y="175" on="0"/>
        <pt x="370" y="117" on="1"/>
        <pt x="372" y="117" on="1"/>
        <pt x="393" y="188" on="0"/>
        <pt x="418" y="267" on="1"/>
        <pt x="551" y="650" on="1"/>
        <pt x="474" y="670" on="1"/>
        <pt x="471" y="689" on="0"/>
        <pt x="479" y="705" on="1"/>
        <pt x="549" y="700" on="0"/>
        <pt x="582" y="700" on="1"/>
        <pt x="617" y="700" on="0"/>
        <pt x="690" y="705" on="1"/>
        <pt x="693" y="686" on="0"/>
        <pt x="688" y="670" on="1"/>
        <pt x="631" y="662" on="0"/>
      </contour>
    </TTGlyph>
    <TTGlyph name="W" xMin="-22" yMin="-30" xMax="998" yMax="705">
      <contour>
        <pt x="364" y="254" on="1"/>
        <pt x="461" y="564" on="1"/>
        <pt x="430" y="650" on="1"/>
        <pt x="353" y="670" on="1"/>
        <pt x="350" y="689" on="0"/>
        <pt x="358" y="705" on="1"/>
        <pt x="448" y="700" on="0"/>
        <pt x="495" y="700" on="1"/>
        <pt x="539" y="700" on="0"/>
        <pt x="632" y="705" on="1"/>
        <pt x="635" y="686" on="0"/>
        <pt x="630" y="670" on="1"/>
        <pt x="624" y="669" on="0"/>
        <pt x="597" y="665" on="0"/>
        <pt x="581" y="662" on="0"/>
        <pt x="558" y="655" on="0"/>
        <pt x="549" y="650" on="1"/>
        <pt x="673" y="262" on="1"/>
        <pt x="708" y="153" on="0"/>
        <pt x="716" y="106" on="1"/>
        <pt x="718" y="106" on="1"/>
        <pt x="729" y="168" on="0"/>
        <pt x="755" y="262" on="1"/>
        <pt x="857" y="650" on="1"/>
        <pt x="770" y="670" on="1"/>
        <pt x="767" y="689" on="0"/>
        <pt x="775" y="705" on="1"/>
        <pt x="855" y="700" on="0"/>
        <pt x="888" y="700" on="1"/>
        <pt x="923" y="700" on="0"/>
        <pt x="995" y="705" on="1"/>
        <pt x="998" y="686" on="0"/>
        <pt x="993" y="670" on="1"/>
        <pt x="937" y="660" on="0"/>
        <pt x="911" y="650" on="1"/>
        <pt x="726" y="-20" on="1"/>
        <pt x="709" y="-28" on="0"/>
        <pt x="675" y="-30" on="1"/>
        <pt x="489" y="487" on="1"/>
        <pt x="326" y="-20" on="1"/>
        <pt x="311" y="-28" on="0"/>
        <pt x="279" y="-30" on="1"/>
        <pt x="58" y="650" on="1"/>
        <pt x="-19" y="670" on="1"/>
        <pt x="-22" y="689" on="0"/>
        <pt x="-14" y="705" on="1"/>
        <pt x="76" y="700" on="0"/>
        <pt x="123" y="700" on="1"/>
        <pt x="167" y="700" on="0"/>
        <pt x="260" y="705" on="1"/>
        <pt x="263" y="685" on="0"/>
        <pt x="258" y="670" on="1"/>
        <pt x="211" y="665" on="0"/>
        <pt x="174" y="650" on="1"/>
        <pt x="279" y="257" on="1"/>
        <pt x="313" y="134" on="0"/>
        <pt x="319" y="95" on="1"/>
        <pt x="321" y="95" on="1"/>
        <pt x="331" y="159" on="0"/>
      </contour>
    </TTGlyph>
    <TTGlyph name="X" xMin="-8" yMin="-5" xMax="680" yMax="705">
      <contour>
        <pt x="576" y="650" on="1"/>
        <pt x="383" y="381" on="1"/>
        <pt x="586" y="58" on="1"/>
        <pt x="608" y="38" on="0"/>
        <pt x="679" y="30" on="1"/>
        <pt x="679" y="28" on="0"/>
        <pt x="680" y="22" on="0"/>
        <pt x="680" y="20" on="1"/>
        <pt x="680" y="7" on="0"/>
        <pt x="674" y="-5" on="1"/>
        <pt x="629" y="-3" on="0"/>
        <pt x="563" y="0" on="0"/>
        <pt x="541" y="0" on="1"/>
        <pt x="511" y="0" on="0"/>
        <pt x="435" y="-3" on="0"/>
        <pt x="389" y="-5" on="1"/>
        <pt x="388" y="-2" on="0"/>
        <pt x="388" y="5" on="0"/>
        <pt x="388" y="8" on="1"/>
        <pt x="388" y="19" on="0"/>
        <pt x="391" y="30" on="1"/>
        <pt x="418" y="35" on="0"/>
        <pt x="458" y="45" on="0"/>
        <pt x="472" y="50" on="1"/>
        <pt x="313" y="299" on="1"/>
        <pt x="138" y="50" on="1"/>
        <pt x="215" y="30" on="1"/>
        <pt x="215" y="28" on="0"/>
        <pt x="216" y="22" on="0"/>
        <pt x="216" y="20" on="1"/>
        <pt x="216" y="7" on="0"/>
        <pt x="210" y="-5" on="1"/>
        <pt x="170" y="-3" on="0"/>
        <pt x="112" y="0" on="0"/>
        <pt x="95" y="0" on="1"/>
        <pt x="75" y="0" on="0"/>
        <pt x="24" y="-3" on="0"/>
        <pt x="-7" y="-5" on="1"/>
        <pt x="-8" y="-2" on="0"/>
        <pt x="-8" y="5" on="0"/>
        <pt x="-8" y="8" on="1"/>
        <pt x="-8" y="19" on="0"/>
        <pt x="-5" y="30" on="1"/>
        <pt x="23" y="34" on="0"/>
        <pt x="62" y="43" on="0"/>
        <pt x="75" y="50" on="1"/>
        <pt x="286" y="343" on="1"/>
        <pt x="91" y="650" on="1"/>
        <pt x="14" y="670" on="1"/>
        <pt x="13" y="673" on="0"/>
        <pt x="13" y="680" on="1"/>
        <pt x="13" y="693" on="0"/>
        <pt x="19" y="705" on="1"/>
        <pt x="64" y="703" on="0"/>
        <pt x="133" y="700" on="0"/>
        <pt x="156" y="700" on="1"/>
        <pt x="179" y="700" on="0"/>
        <pt x="249" y="703" on="0"/>
        <pt x="296" y="705" on="1"/>
        <pt x="297" y="700" on="0"/>
        <pt x="297" y="692" on="1"/>
        <pt x="297" y="680" on="0"/>
        <pt x="294" y="670" on="1"/>
        <pt x="264" y="665" on="0"/>
        <pt x="224" y="655" on="0"/>
        <pt x="213" y="650" on="1"/>
        <pt x="355" y="422" on="1"/>
        <pt x="519" y="650" on="1"/>
        <pt x="442" y="670" on="1"/>
        <pt x="441" y="673" on="0"/>
        <pt x="441" y="680" on="1"/>
        <pt x="441" y="693" on="0"/>
        <pt x="447" y="705" on="1"/>
        <pt x="482" y="703" on="0"/>
        <pt x="535" y="700" on="0"/>
        <pt x="553" y="700" on="1"/>
        <pt x="570" y="700" on="0"/>
        <pt x="623" y="703" on="0"/>
        <pt x="660" y="705" on="1"/>
        <pt x="661" y="700" on="0"/>
        <pt x="661" y="692" on="1"/>
        <pt x="661" y="680" on="0"/>
        <pt x="658" y="670" on="1"/>
        <pt x="636" y="668" on="0"/>
        <pt x="595" y="658" on="0"/>
      </contour>
    </TTGlyph>
    <TTGlyph name="Y" xMin="-15" yMin="-5" xMax="667" yMax="705">
      <contour>
        <pt x="385" y="321" on="1"/>
        <pt x="385" y="50" on="1"/>
        <pt x="472" y="30" on="1"/>
        <pt x="475" y="11" on="0"/>
        <pt x="467" y="-5" on="1"/>
        <pt x="377" y="0" on="0"/>
        <pt x="335" y="0" on="1"/>
        <pt x="291" y="0" on="0"/>
        <pt x="198" y="-5" on="1"/>
        <pt x="194" y="14" on="0"/>
        <pt x="200" y="30" on="1"/>
        <pt x="256" y="37" on="0"/>
        <pt x="280" y="50" on="1"/>
        <pt x="280" y="301" on="1"/>
        <pt x="65" y="650" on="1"/>
        <pt x="-12" y="670" on="1"/>
        <pt x="-15" y="689" on="0"/>
        <pt x="-7" y="705" on="1"/>
        <pt x="83" y="700" on="0"/>
        <pt x="124" y="700" on="1"/>
        <pt x="171" y="700" on="0"/>
        <pt x="264" y="705" on="1"/>
        <pt x="267" y="686" on="0"/>
        <pt x="262" y="670" on="1"/>
        <pt x="205" y="663" on="0"/>
        <pt x="181" y="650" on="1"/>
        <pt x="346" y="366" on="1"/>
        <pt x="350" y="366" on="1"/>
        <pt x="516" y="650" on="1"/>
        <pt x="439" y="670" on="1"/>
        <pt x="436" y="689" on="0"/>
        <pt x="444" y="705" on="1"/>
        <pt x="514" y="700" on="0"/>
        <pt x="557" y="700" on="1"/>
        <pt x="591" y="700" on="0"/>
        <pt x="664" y="705" on="1"/>
        <pt x="667" y="686" on="0"/>
        <pt x="662" y="670" on="1"/>
        <pt x="600" y="662" on="0"/>
        <pt x="577" y="650" on="1"/>
      </contour>
    </TTGlyph>
    <TTGlyph name="Yacute" xMin="-15" yMin="-5" xMax="667" yMax="919">
      <component glyphName="Y" x="0" y="0" flags="0x204"/>
      <component glyphName="acute.case" x="290" y="-50" flags="0x4"/>
    </TTGlyph>
    <TTGlyph name="Z" xMin="31" yMin="0" xMax="553" yMax="700">
      <contour>
        <pt x="553" y="0" on="1"/>
        <pt x="35" y="0" on="1"/>
        <pt x="31" y="27" on="0"/>
        <pt x="35" y="45" on="1"/>
        <pt x="432" y="655" on="1"/>
        <pt x="131" y="655" on="1"/>
        <pt x="102" y="512" on="1"/>
        <pt x="78" y="508" on="0"/>
        <pt x="62" y="515" on="1"/>
        <pt x="52" y="639" on="0"/>
        <pt x="52" y="700" on="1"/>
        <pt x="548" y="700" on="1"/>
        <pt x="552" y="678" on="0"/>
        <pt x="548" y="660" on="1"/>
        <pt x="155" y="45" on="1"/>
        <pt x="474" y="45" on="1"/>
        <pt x="503" y="188" on="1"/>
        <pt x="527" y="192" on="0"/>
        <pt x="543" y="185" on="1"/>
        <pt x="553" y="133" on="0"/>
        <pt x="553" y="29" on="1"/>
      </contour>
    </TTGlyph>
    <TTGlyph name="a" xMin="30" yMin="-17" xMax="488" yMax="521">
      <contour>
        <pt x="130" y="120" on="1"/>
        <pt x="130" y="80" on="0"/>
        <pt x="173" y="38" on="0"/>
        <pt x="210" y="38" on="1"/>
        <pt x="238" y="38" on="0"/>
        <pt x="301" y="72" on="0"/>
        <pt x="317" y="95" on="1"/>
        <pt x="317" y="230" on="1"/>
        <pt x="214" y="230" on="0"/>
        <pt x="130" y="181" on="0"/>
      </contour>
      <contour>
        <pt x="415" y="317" on="1"/>
        <pt x="415" y="49" on="1"/>
        <pt x="430" y="41" on="0"/>
        <pt x="485" y="29" on="1"/>
        <pt x="488" y="10" on="0"/>
        <pt x="480" y="-6" on="1"/>
        <pt x="443" y="-13" on="0"/>
        <pt x="396" y="-13" on="1"/>
        <pt x="363" y="-13" on="0"/>
        <pt x="339" y="-7" on="1"/>
        <pt x="325" y="45" on="1"/>
        <pt x="321" y="45" on="1"/>
        <pt x="261" y="-17" on="0"/>
        <pt x="172" y="-17" on="1"/>
        <pt x="108" y="-17" on="0"/>
        <pt x="30" y="50" on="0"/>
        <pt x="30" y="110" on="1"/>
        <pt x="31" y="275" on="0"/>
        <pt x="317" y="270" on="1"/>
        <pt x="318" y="358" on="1"/>
        <pt x="319" y="474" on="0"/>
        <pt x="230" y="475" on="1"/>
        <pt x="177" y="475" on="0"/>
        <pt x="136" y="460" on="1"/>
        <pt x="123" y="354" on="1"/>
        <pt x="103" y="347" on="0"/>
        <pt x="79" y="350" on="1"/>
        <pt x="58" y="426" on="0"/>
        <pt x="59" y="480" on="1"/>
        <pt x="142" y="520" on="0"/>
        <pt x="257" y="520" on="1"/>
        <pt x="343" y="521" on="0"/>
        <pt x="415" y="431" on="0"/>
      </contour>
    </TTGlyph>
    <TTGlyph name="aacute" xMin="30" yMin="-17" xMax="488" yMax="757">
      <component glyphName="a" x="0" y="0" flags="0x204"/>
      <component glyphName="acute" x="193" y="0" flags="0x4"/>
    </TTGlyph>
    <TTGlyph name="acircumflex" xMin="30" yMin="-17" xMax="488" yMax="756">
      <component glyphName="a" x="0" y="0" flags="0x204"/>
      <component glyphName="circumflex" x="113" y="0" flags="0x4"/>
    </TTGlyph>
    <TTGlyph name="acute" xMin="4" yMin="566" xMax="164" yMax="757">
      <contour>
        <pt x="4" y="583" on="1"/>
        <pt x="84" y="757" on="1"/>
        <pt x="137" y="748" on="0"/>
        <pt x="164" y="717" on="1"/>
        <pt x="86" y="609" on="0"/>
        <pt x="40" y="566" on="1"/>
        <pt x="17" y="570" on="0"/>
      </contour>
    </TTGlyph>
    <TTGlyph name="acute.case" xMin="29" yMin="796" xMax="221" yMax="969">
      <contour>
        <pt x="221" y="893" on="1"/>
        <pt x="52" y="796" on="1"/>
        <pt x="38" y="809" on="0"/>
        <pt x="29" y="825" on="1"/>
        <pt x="167" y="969" on="1"/>
        <pt x="207" y="942" on="0"/>
      </contour>
    </TTGlyph>
    <TTGlyph name="adieresis" xMin="30" yMin="-17" xMax="488" yMax="708">
      <component glyphName="a" x="0" y="0" flags="0x204"/>
      <component glyphName="dieresis" x="84" y="0" flags="0x4"/>
    </TTGlyph>
    <TTGlyph name="ae" xMin="30" yMin="-21" xMax="752" yMax="521">
      <contour>
        <pt x="425" y="270" on="1"/>
        <pt x="425" y="250" on="1"/>
        <pt x="425" y="149" on="0"/>
        <pt x="505" y="37" on="0"/>
        <pt x="575" y="37" on="1"/>
        <pt x="623" y="37" on="0"/>
        <pt x="677" y="54" on="0"/>
        <pt x="716" y="81" on="1"/>
        <pt x="732" y="74" on="0"/>
        <pt x="734" y="57" on="1"/>
        <pt x="670" y="-19" on="0"/>
        <pt x="572" y="-20" on="1"/>
        <pt x="433" y="-19" on="0"/>
        <pt x="363" y="81" on="1"/>
        <pt x="303" y="-21" on="0"/>
        <pt x="177" y="-21" on="1"/>
        <pt x="115" y="-21" on="0"/>
        <pt x="31" y="50" on="0"/>
        <pt x="30" y="108" on="1"/>
        <pt x="30" y="156" on="0"/>
        <pt x="79" y="223" on="0"/>
        <pt x="166" y="259" on="0"/>
        <pt x="260" y="271" on="0"/>
        <pt x="317" y="270" on="1"/>
        <pt x="318" y="356" on="1"/>
        <pt x="320" y="474" on="0"/>
        <pt x="230" y="475" on="1"/>
        <pt x="177" y="475" on="0"/>
        <pt x="136" y="460" on="1"/>
        <pt x="123" y="354" on="1"/>
        <pt x="103" y="347" on="0"/>
        <pt x="79" y="350" on="1"/>
        <pt x="59" y="418" on="0"/>
        <pt x="59" y="480" on="1"/>
        <pt x="146" y="521" on="0"/>
        <pt x="257" y="520" on="1"/>
        <pt x="363" y="521" on="0"/>
        <pt x="390" y="427" on="1"/>
        <pt x="444" y="519" on="0"/>
        <pt x="567" y="520" on="1"/>
        <pt x="656" y="520" on="0"/>
        <pt x="752" y="403" on="0"/>
        <pt x="752" y="304" on="1"/>
        <pt x="752" y="296" on="0"/>
        <pt x="750" y="278" on="1"/>
        <pt x="736" y="267" on="1"/>
      </contour>
      <contour>
        <pt x="130" y="118" on="1"/>
        <pt x="130" y="78" on="0"/>
        <pt x="173" y="38" on="0"/>
        <pt x="210" y="38" on="1"/>
        <pt x="267" y="38" on="0"/>
        <pt x="319" y="129" on="0"/>
        <pt x="317" y="230" on="1"/>
        <pt x="215" y="230" on="0"/>
        <pt x="130" y="179" on="0"/>
      </contour>
      <contour>
        <pt x="560" y="473" on="1"/>
        <pt x="446" y="473" on="0"/>
        <pt x="430" y="311" on="1"/>
        <pt x="657" y="323" on="1"/>
        <pt x="657" y="401" on="0"/>
        <pt x="611" y="473" on="0"/>
      </contour>
    </TTGlyph>
    <TTGlyph name="agrave" xMin="30" yMin="-17" xMax="488" yMax="757">
      <component glyphName="a" x="0" y="0" flags="0x204"/>
      <component glyphName="grave" x="122" y="0" flags="0x4"/>
    </TTGlyph>
    <TTGlyph name="ampersand" xMin="50" yMin="-16" xMax="728" yMax="700">
      <contour>
        <pt x="558" y="0" on="1"/>
        <pt x="485" y="78" on="1"/>
        <pt x="392" y="-16" on="0"/>
        <pt x="267" y="-15" on="1"/>
        <pt x="161" y="-12" on="0"/>
        <pt x="50" y="98" on="0"/>
        <pt x="50" y="179" on="1"/>
        <pt x="50" y="242" on="0"/>
        <pt x="151" y="361" on="0"/>
        <pt x="223" y="380" on="1"/>
        <pt x="148" y="477" on="0"/>
        <pt x="149" y="554" on="1"/>
        <pt x="149" y="614" on="0"/>
        <pt x="236" y="699" on="0"/>
        <pt x="314" y="700" on="1"/>
        <pt x="383" y="700" on="0"/>
        <pt x="468" y="623" on="0"/>
        <pt x="468" y="568" on="1"/>
        <pt x="468" y="506" on="0"/>
        <pt x="390" y="398" on="0"/>
        <pt x="337" y="376" on="1"/>
        <pt x="386" y="317" on="0"/>
        <pt x="505" y="186" on="1"/>
        <pt x="557" y="287" on="0"/>
        <pt x="571" y="347" on="1"/>
        <pt x="494" y="367" on="1"/>
        <pt x="491" y="386" on="0"/>
        <pt x="499" y="402" on="1"/>
        <pt x="569" y="397" on="0"/>
        <pt x="602" y="397" on="1"/>
        <pt x="638" y="397" on="0"/>
        <pt x="708" y="402" on="1"/>
        <pt x="710" y="384" on="0"/>
        <pt x="703" y="367" on="1"/>
        <pt x="641" y="356" on="0"/>
        <pt x="626" y="347" on="1"/>
        <pt x="606" y="270" on="0"/>
        <pt x="539" y="149" on="1"/>
        <pt x="616" y="67" on="1"/>
        <pt x="647" y="35" on="0"/>
        <pt x="725" y="30" on="1"/>
        <pt x="728" y="11" on="0"/>
        <pt x="720" y="-5" on="1"/>
        <pt x="630" y="-1" on="0"/>
      </contour>
      <contour>
        <pt x="450" y="115" on="1"/>
        <pt x="314" y="264" on="0"/>
        <pt x="247" y="349" on="1"/>
        <pt x="196" y="330" on="0"/>
        <pt x="144" y="247" on="0"/>
        <pt x="144" y="194" on="1"/>
        <pt x="145" y="128" on="0"/>
        <pt x="241" y="51" on="0"/>
        <pt x="309" y="51" on="1"/>
        <pt x="395" y="52" on="0"/>
      </contour>
      <contour>
        <pt x="228" y="575" on="1"/>
        <pt x="227" y="537" on="0"/>
        <pt x="257" y="474" on="0"/>
        <pt x="311" y="408" on="1"/>
        <pt x="354" y="431" on="0"/>
        <pt x="392" y="515" on="0"/>
        <pt x="392" y="558" on="1"/>
        <pt x="392" y="654" on="0"/>
        <pt x="307" y="654" on="1"/>
        <pt x="274" y="654" on="0"/>
        <pt x="228" y="612" on="0"/>
      </contour>
    </TTGlyph>
    <TTGlyph name="aring" xMin="30" yMin="-17" xMax="488" yMax="758">
      <component glyphName="a" x="0" y="0" flags="0x204"/>
      <component glyphName="ring" x="111" y="0" flags="0x4"/>
    </TTGlyph>
    <TTGlyph name="asciicircum" xMin="11" yMin="482" xMax="475" yMax="748">
      <contour>
        <pt x="11" y="520" on="1"/>
        <pt x="240" y="748" on="1"/>
        <pt x="246" y="748" on="1"/>
        <pt x="475" y="520" on="1"/>
        <pt x="467" y="510" on="0"/>
        <pt x="428" y="482" on="0"/>
        <pt x="420" y="482" on="1"/>
        <pt x="244" y="656" on="1"/>
        <pt x="242" y="656" on="1"/>
        <pt x="66" y="482" on="1"/>
        <pt x="58" y="482" on="0"/>
        <pt x="18" y="510" on="0"/>
      </contour>
    </TTGlyph>
    <TTGlyph name="asciitilde" xMin="35" yMin="542" xMax="462" yMax="710">
      <contour>
        <pt x="349" y="542" on="1"/>
        <pt x="314" y="542" on="0"/>
        <pt x="250" y="577" on="0"/>
        <pt x="210" y="618" on="0"/>
        <pt x="164" y="653" on="0"/>
        <pt x="144" y="653" on="1"/>
        <pt x="101" y="653" on="0"/>
        <pt x="84" y="587" on="1"/>
        <pt x="60" y="583" on="0"/>
        <pt x="35" y="591" on="1"/>
        <pt x="41" y="645" on="0"/>
        <pt x="97" y="710" on="0"/>
        <pt x="145" y="710" on="1"/>
        <pt x="181" y="710" on="0"/>
        <pt x="242" y="677" on="0"/>
        <pt x="282" y="636" on="0"/>
        <pt x="328" y="603" on="0"/>
        <pt x="352" y="603" on="1"/>
        <pt x="377" y="603" on="0"/>
        <pt x="403" y="639" on="0"/>
        <pt x="413" y="684" on="1"/>
        <pt x="444" y="684" on="0"/>
        <pt x="462" y="674" on="1"/>
        <pt x="443" y="542" on="0"/>
      </contour>
    </TTGlyph>
    <TTGlyph name="asterisk" xMin="52" yMin="347" xMax="385" yMax="706">
      <contour>
        <pt x="201" y="499" on="1"/>
        <pt x="87" y="417" on="1"/>
        <pt x="75" y="416" on="0"/>
        <pt x="62" y="438" on="1"/>
        <pt x="52" y="461" on="0"/>
        <pt x="55" y="471" on="1"/>
        <pt x="185" y="527" on="1"/>
        <pt x="56" y="585" on="1"/>
        <pt x="54" y="600" on="0"/>
        <pt x="62" y="618" on="1"/>
        <pt x="77" y="638" on="0"/>
        <pt x="87" y="639" on="1"/>
        <pt x="202" y="554" on="1"/>
        <pt x="187" y="695" on="1"/>
        <pt x="197" y="705" on="0"/>
        <pt x="219" y="706" on="1"/>
        <pt x="243" y="705" on="0"/>
        <pt x="250" y="695" on="1"/>
        <pt x="233" y="553" on="1"/>
        <pt x="348" y="637" on="1"/>
        <pt x="358" y="635" on="0"/>
        <pt x="374" y="615" on="1"/>
        <pt x="385" y="593" on="0"/>
        <pt x="380" y="582" on="1"/>
        <pt x="249" y="526" on="1"/>
        <pt x="379" y="468" on="1"/>
        <pt x="382" y="458" on="0"/>
        <pt x="372" y="435" on="1"/>
        <pt x="359" y="415" on="0"/>
        <pt x="347" y="414" on="1"/>
        <pt x="232" y="498" on="1"/>
        <pt x="247" y="358" on="1"/>
        <pt x="240" y="349" on="0"/>
        <pt x="216" y="347" on="1"/>
        <pt x="192" y="348" on="0"/>
        <pt x="185" y="358" on="1"/>
        <pt x="201" y="499" on="1"/>
      </contour>
    </TTGlyph>
    <TTGlyph name="at" xMin="51" yMin="-187" xMax="781" yMax="589">
      <contour>
        <pt x="613" y="-91" on="1"/>
        <pt x="631" y="-128" on="1"/>
        <pt x="541" y="-187" on="0"/>
        <pt x="417" y="-187" on="1"/>
        <pt x="256" y="-186" on="0"/>
        <pt x="52" y="15" on="0"/>
        <pt x="51" y="174" on="1"/>
        <pt x="53" y="347" on="0"/>
        <pt x="283" y="587" on="0"/>
        <pt x="447" y="589" on="1"/>
        <pt x="598" y="588" on="0"/>
        <pt x="781" y="401" on="0"/>
        <pt x="781" y="255" on="1"/>
        <pt x="780" y="124" on="0"/>
        <pt x="658" y="-40" on="0"/>
        <pt x="585" y="-40" on="1"/>
        <pt x="546" y="-40" on="0"/>
        <pt x="488" y="17" on="0"/>
        <pt x="479" y="72" on="1"/>
        <pt x="475" y="72" on="1"/>
        <pt x="412" y="-18" on="0"/>
        <pt x="341" y="-18" on="1"/>
        <pt x="292" y="-18" on="0"/>
        <pt x="227" y="66" on="0"/>
        <pt x="227" y="131" on="1"/>
        <pt x="227" y="180" on="0"/>
        <pt x="253" y="281" on="0"/>
        <pt x="304" y="370" on="0"/>
        <pt x="388" y="426" on="0"/>
        <pt x="440" y="426" on="1"/>
        <pt x="494" y="426" on="0"/>
        <pt x="526" y="380" on="1"/>
        <pt x="529" y="380" on="1"/>
        <pt x="542" y="421" on="1"/>
        <pt x="580" y="421" on="1"/>
        <pt x="580" y="393" on="1"/>
        <pt x="543" y="165" on="1"/>
        <pt x="538" y="138" on="0"/>
        <pt x="538" y="107" on="1"/>
        <pt x="538" y="63" on="0"/>
        <pt x="567" y="19" on="0"/>
        <pt x="590" y="19" on="1"/>
        <pt x="632" y="19" on="0"/>
        <pt x="710" y="149" on="0"/>
        <pt x="711" y="263" on="1"/>
        <pt x="711" y="392" on="0"/>
        <pt x="570" y="537" on="0"/>
        <pt x="442" y="538" on="1"/>
        <pt x="308" y="537" on="0"/>
        <pt x="137" y="336" on="0"/>
        <pt x="135" y="186" on="1"/>
        <pt x="135" y="40" on="0"/>
        <pt x="292" y="-132" on="0"/>
        <pt x="435" y="-132" on="1"/>
        <pt x="541" y="-132" on="0"/>
      </contour>
      <contour>
        <pt x="449" y="378" on="1"/>
        <pt x="414" y="378" on="0"/>
        <pt x="350" y="296" on="0"/>
        <pt x="313" y="183" on="0"/>
        <pt x="313" y="134" on="1"/>
        <pt x="315" y="52" on="0"/>
        <pt x="366" y="52" on="1"/>
        <pt x="383" y="52" on="0"/>
        <pt x="419" y="74" on="0"/>
        <pt x="456" y="128" on="0"/>
        <pt x="486" y="233" on="0"/>
        <pt x="493" y="306" on="1"/>
        <pt x="500" y="378" on="0"/>
      </contour>
    </TTGlyph>
    <TTGlyph name="atilde" xMin="30" yMin="-17" xMax="488" yMax="698">
      <component glyphName="a" x="0" y="0" flags="0x204"/>
      <component glyphName="tilde" x="59" y="0" flags="0x4"/>
    </TTGlyph>
    <TTGlyph name="b" xMin="-13" yMin="-20" xMax="533" yMax="756">
      <contour>
        <pt x="168" y="745" on="1"/>
        <pt x="168" y="455" on="1"/>
        <pt x="173" y="450" on="1"/>
        <pt x="241" y="510" on="0"/>
        <pt x="323" y="510" on="1"/>
        <pt x="421" y="509" on="0"/>
        <pt x="533" y="368" on="0"/>
        <pt x="533" y="249" on="1"/>
        <pt x="533" y="121" on="0"/>
        <pt x="385" y="-20" on="0"/>
        <pt x="263" y="-20" on="1"/>
        <pt x="162" y="-18" on="0"/>
        <pt x="73" y="18" on="1"/>
        <pt x="73" y="686" on="1"/>
        <pt x="-10" y="694" on="1"/>
        <pt x="-13" y="714" on="0"/>
        <pt x="-5" y="729" on="1"/>
        <pt x="62" y="739" on="0"/>
        <pt x="128" y="756" on="1"/>
        <pt x="147" y="755" on="0"/>
      </contour>
      <contour>
        <pt x="173" y="392" on="1"/>
        <pt x="173" y="43" on="1"/>
        <pt x="217" y="20" on="0"/>
        <pt x="273" y="20" on="1"/>
        <pt x="344" y="20" on="0"/>
        <pt x="426" y="141" on="0"/>
        <pt x="426" y="249" on="1"/>
        <pt x="426" y="347" on="0"/>
        <pt x="352" y="451" on="0"/>
        <pt x="293" y="451" on="1"/>
        <pt x="259" y="451" on="0"/>
        <pt x="188" y="413" on="0"/>
      </contour>
    </TTGlyph>
    <TTGlyph name="backslash" xMin="30" yMin="-104" xMax="436" yMax="710">
      <contour>
        <pt x="436" y="-100" on="1"/>
        <pt x="402" y="-104" on="0"/>
        <pt x="368" y="-92" on="1"/>
        <pt x="30" y="707" on="1"/>
        <pt x="53" y="710" on="0"/>
        <pt x="97" y="700" on="1"/>
        <pt x="436" y="-100" on="1"/>
      </contour>
    </TTGlyph>
    <TTGlyph name="bar" xMin="80" yMin="-242" xMax="144" yMax="770">
      <contour>
        <pt x="80" y="-230" on="1"/>
        <pt x="80" y="770" on="1"/>
        <pt x="127" y="768" on="0"/>
        <pt x="144" y="759" on="1"/>
        <pt x="144" y="-241" on="1"/>
        <pt x="129" y="-242" on="0"/>
        <pt x="86" y="-235" on="0"/>
      </contour>
    </TTGlyph>
    <TTGlyph name="braceleft" xMin="-4" yMin="-136" xMax="291" yMax="751">
      <contour>
        <pt x="105" y="305" on="1"/>
        <pt x="169" y="292" on="0"/>
        <pt x="212" y="216" on="0"/>
        <pt x="210" y="130" on="1"/>
        <pt x="210" y="43" on="1"/>
        <pt x="209" y="-38" on="0"/>
        <pt x="236" y="-94" on="0"/>
        <pt x="281" y="-94" on="1"/>
        <pt x="291" y="-116" on="0"/>
        <pt x="281" y="-134" on="1"/>
        <pt x="187" y="-136" on="0"/>
        <pt x="125" y="-59" on="0"/>
        <pt x="127" y="56" on="1"/>
        <pt x="127" y="143" on="1"/>
        <pt x="128" y="221" on="0"/>
        <pt x="77" y="282" on="0"/>
        <pt x="6" y="281" on="1"/>
        <pt x="-4" y="309" on="0"/>
        <pt x="6" y="334" on="1"/>
        <pt x="75" y="333" on="0"/>
        <pt x="128" y="392" on="0"/>
        <pt x="127" y="472" on="1"/>
        <pt x="127" y="561" on="1"/>
        <pt x="125" y="673" on="0"/>
        <pt x="186" y="751" on="0"/>
        <pt x="281" y="750" on="1"/>
        <pt x="291" y="730" on="0"/>
        <pt x="281" y="709" on="1"/>
        <pt x="237" y="709" on="0"/>
        <pt x="209" y="657" on="0"/>
        <pt x="210" y="572" on="1"/>
        <pt x="210" y="486" on="1"/>
        <pt x="212" y="403" on="0"/>
        <pt x="170" y="324" on="0"/>
        <pt x="105" y="311" on="1"/>
      </contour>
    </TTGlyph>
    <TTGlyph name="braceright" xMin="24" yMin="-136" xMax="319" yMax="751">
      <contour>
        <pt x="210" y="311" on="1"/>
        <pt x="145" y="324" on="0"/>
        <pt x="103" y="403" on="0"/>
        <pt x="105" y="486" on="1"/>
        <pt x="105" y="572" on="1"/>
        <pt x="106" y="657" on="0"/>
        <pt x="78" y="709" on="0"/>
        <pt x="34" y="709" on="1"/>
        <pt x="24" y="730" on="0"/>
        <pt x="34" y="750" on="1"/>
        <pt x="129" y="751" on="0"/>
        <pt x="190" y="673" on="0"/>
        <pt x="188" y="561" on="1"/>
        <pt x="188" y="472" on="1"/>
        <pt x="187" y="392" on="0"/>
        <pt x="240" y="333" on="0"/>
        <pt x="309" y="334" on="1"/>
        <pt x="319" y="309" on="0"/>
        <pt x="309" y="281" on="1"/>
        <pt x="238" y="282" on="0"/>
        <pt x="187" y="221" on="0"/>
        <pt x="188" y="143" on="1"/>
        <pt x="188" y="56" on="1"/>
        <pt x="190" y="-59" on="0"/>
        <pt x="128" y="-136" on="0"/>
        <pt x="34" y="-134" on="1"/>
        <pt x="24" y="-116" on="0"/>
        <pt x="34" y="-94" on="1"/>
        <pt x="79" y="-94" on="0"/>
        <pt x="106" y="-38" on="0"/>
        <pt x="105" y="43" on="1"/>
        <pt x="105" y="130" on="1"/>
        <pt x="103" y="216" on="0"/>
        <pt x="146" y="292" on="0"/>
        <pt x="210" y="305" on="1"/>
      </contour>
    </TTGlyph>
    <TTGlyph name="bracketleft" xMin="83" yMin="-136" xMax="279" yMax="739">
      <contour>
        <pt x="83" y="739" on="1"/>
        <pt x="270" y="739" on="1"/>
        <pt x="279" y="719" on="0"/>
        <pt x="270" y="695" on="1"/>
        <pt x="166" y="695" on="1"/>
        <pt x="166" y="-93" on="1"/>
        <pt x="270" y="-93" on="1"/>
        <pt x="277" y="-117" on="0"/>
        <pt x="270" y="-136" on="1"/>
        <pt x="83" y="-136" on="1"/>
      </contour>
    </TTGlyph>
    <TTGlyph name="bracketright" xMin="17" yMin="-136" xMax="213" yMax="739">
      <contour>
        <pt x="213" y="-136" on="1"/>
        <pt x="26" y="-136" on="1"/>
        <pt x="19" y="-117" on="0"/>
        <pt x="26" y="-93" on="1"/>
        <pt x="130" y="-93" on="1"/>
        <pt x="130" y="695" on="1"/>
        <pt x="26" y="695" on="1"/>
        <pt x="17" y="719" on="0"/>
        <pt x="26" y="739" on="1"/>
        <pt x="213" y="739" on="1"/>
      </contour>
    </TTGlyph>
    <TTGlyph name="brokenbar" xMin="83" yMin="-242" xMax="147" yMax="770">
      <contour>
        <pt x="83" y="-230" on="1"/>
        <pt x="83" y="197" on="1"/>
        <pt x="130" y="195" on="0"/>
        <pt x="147" y="186" on="1"/>
        <pt x="147" y="-241" on="1"/>
        <pt x="132" y="-242" on="0"/>
        <pt x="89" y="-235" on="0"/>
      </contour>
      <contour>
        <pt x="83" y="370" on="1"/>
        <pt x="83" y="770" on="1"/>
        <pt x="130" y="770" on="0"/>
        <pt x="147" y="759" on="1"/>
        <pt x="147" y="359" on="1"/>
        <pt x="100" y="361" on="0"/>
      </contour>
    </TTGlyph>
    <TTGlyph name="bullet" xMin="49" yMin="228" xMax="355" yMax="519">
      <contour>
        <pt x="49" y="382" on="1"/>
        <pt x="49" y="429" on="0"/>
        <pt x="157" y="519" on="0"/>
        <pt x="213" y="519" on="1"/>
        <pt x="272" y="519" on="0"/>
        <pt x="355" y="416" on="0"/>
        <pt x="355" y="364" on="1"/>
        <pt x="355" y="317" on="0"/>
        <pt x="249" y="228" on="0"/>
        <pt x="191" y="228" on="1"/>
        <pt x="135" y="228" on="0"/>
        <pt x="49" y="331" on="0"/>
      </contour>
    </TTGlyph>
    <TTGlyph name="c" xMin="37" yMin="-17" xMax="454" yMax="518">
      <contour>
        <pt x="390" y="354" on="1"/>
        <pt x="377" y="460" on="1"/>
        <pt x="346" y="474" on="0"/>
        <pt x="302" y="474" on="1"/>
        <pt x="263" y="474" on="0"/>
        <pt x="204" y="442" on="0"/>
        <pt x="164" y="383" on="0"/>
        <pt x="144" y="301" on="0"/>
        <pt x="144" y="250" on="1"/>
        <pt x="144" y="145" on="0"/>
        <pt x="227" y="37" on="0"/>
        <pt x="296" y="37" on="1"/>
        <pt x="361" y="37" on="0"/>
        <pt x="434" y="84" on="1"/>
        <pt x="447" y="77" on="0"/>
        <pt x="452" y="58" on="1"/>
        <pt x="378" y="-17" on="0"/>
        <pt x="279" y="-17" on="1"/>
        <pt x="231" y="-17" on="0"/>
        <pt x="143" y="20" on="0"/>
        <pt x="77" y="90" on="0"/>
        <pt x="38" y="188" on="0"/>
        <pt x="37" y="250" on="1"/>
        <pt x="37" y="313" on="0"/>
        <pt x="78" y="413" on="0"/>
        <pt x="148" y="482" on="0"/>
        <pt x="244" y="518" on="0"/>
        <pt x="299" y="518" on="1"/>
        <pt x="381" y="518" on="0"/>
        <pt x="454" y="486" on="1"/>
        <pt x="454" y="413" on="0"/>
        <pt x="434" y="350" on="1"/>
        <pt x="430" y="349" on="0"/>
        <pt x="418" y="349" on="1"/>
        <pt x="402" y="349" on="0"/>
      </contour>
    </TTGlyph>
    <TTGlyph name="caron" xMin="-2" yMin="552" xMax="248" yMax="757">
      <contour>
        <pt x="-2" y="728" on="1"/>
        <pt x="22" y="751" on="0"/>
        <pt x="61" y="757" on="1"/>
        <pt x="89" y="713" on="0"/>
        <pt x="129" y="626" on="1"/>
        <pt x="138" y="643" on="0"/>
        <pt x="164" y="697" on="0"/>
        <pt x="187" y="740" on="0"/>
        <pt x="200" y="756" on="1"/>
        <pt x="226" y="754" on="0"/>
        <pt x="248" y="732" on="1"/>
        <pt x="203" y="659" on="0"/>
        <pt x="162" y="559" on="1"/>
        <pt x="120" y="552" on="0"/>
        <pt x="101" y="558" on="1"/>
        <pt x="88" y="584" on="0"/>
        <pt x="53" y="641" on="0"/>
        <pt x="7" y="713" on="0"/>
      </contour>
    </TTGlyph>
    <TTGlyph name="caron.case" xMin="9" yMin="806" xMax="319" yMax="971">
      <contour>
        <pt x="47" y="971" on="1"/>
        <pt x="86" y="947" on="0"/>
        <pt x="167" y="873" on="1"/>
        <pt x="218" y="922" on="0"/>
        <pt x="287" y="971" on="1"/>
        <pt x="307" y="963" on="0"/>
        <pt x="319" y="947" on="1"/>
        <pt x="194" y="809" on="1"/>
        <pt x="178" y="806" on="0"/>
        <pt x="163" y="806" on="1"/>
        <pt x="150" y="806" on="0"/>
        <pt x="131" y="809" on="1"/>
        <pt x="9" y="947" on="1"/>
        <pt x="21" y="963" on="0"/>
      </contour>
    </TTGlyph>
    <TTGlyph name="ccedilla" xMin="37" yMin="-243" xMax="454" yMax="518">
      <contour>
        <pt x="293" y="-56" on="1"/>
        <pt x="410" y="-56" on="0"/>
        <pt x="410" y="-141" on="1"/>
        <pt x="410" y="-185" on="0"/>
        <pt x="337" y="-243" on="0"/>
        <pt x="274" y="-243" on="1"/>
        <pt x="229" y="-242" on="0"/>
        <pt x="193" y="-230" on="1"/>
        <pt x="194" y="-212" on="0"/>
        <pt x="208" y="-201" on="1"/>
        <pt x="239" y="-213" on="0"/>
        <pt x="268" y="-213" on="1"/>
        <pt x="300" y="-213" on="0"/>
        <pt x="342" y="-182" on="0"/>
        <pt x="342" y="-163" on="1"/>
        <pt x="342" y="-135" on="0"/>
        <pt x="294" y="-105" on="0"/>
        <pt x="252" y="-105" on="1"/>
        <pt x="250" y="-15" on="1"/>
        <pt x="169" y="-4" on="0"/>
        <pt x="110" y="55" on="1"/>
        <pt x="39" y="127" on="0"/>
        <pt x="37" y="250" on="1"/>
        <pt x="37" y="375" on="0"/>
        <pt x="185" y="518" on="0"/>
        <pt x="299" y="518" on="1"/>
        <pt x="382" y="518" on="0"/>
        <pt x="454" y="486" on="1"/>
        <pt x="454" y="412" on="0"/>
        <pt x="434" y="350" on="1"/>
        <pt x="428" y="349" on="0"/>
        <pt x="418" y="349" on="1"/>
        <pt x="401" y="349" on="0"/>
        <pt x="390" y="354" on="1"/>
        <pt x="377" y="460" on="1"/>
        <pt x="346" y="473" on="0"/>
        <pt x="302" y="474" on="1"/>
        <pt x="225" y="473" on="0"/>
        <pt x="144" y="352" on="0"/>
        <pt x="144" y="250" on="1"/>
        <pt x="144" y="146" on="0"/>
        <pt x="227" y="37" on="0"/>
        <pt x="296" y="37" on="1"/>
        <pt x="362" y="37" on="0"/>
        <pt x="434" y="84" on="1"/>
        <pt x="447" y="76" on="0"/>
        <pt x="452" y="58" on="1"/>
        <pt x="381" y="-14" on="0"/>
        <pt x="287" y="-17" on="1"/>
      </contour>
    </TTGlyph>
    <TTGlyph name="cedilla" xMin="23" yMin="-234" xMax="240" yMax="7">
      <contour>
        <pt x="123" y="-47" on="1"/>
        <pt x="240" y="-47" on="0"/>
        <pt x="240" y="-132" on="1"/>
        <pt x="240" y="-176" on="0"/>
        <pt x="167" y="-234" on="0"/>
        <pt x="104" y="-234" on="1"/>
        <pt x="59" y="-233" on="0"/>
        <pt x="23" y="-221" on="1"/>
        <pt x="24" y="-203" on="0"/>
        <pt x="38" y="-192" on="1"/>
        <pt x="69" y="-204" on="0"/>
        <pt x="98" y="-204" on="1"/>
        <pt x="130" y="-204" on="0"/>
        <pt x="172" y="-173" on="0"/>
        <pt x="172" y="-154" on="1"/>
        <pt x="172" y="-126" on="0"/>
        <pt x="124" y="-96" on="0"/>
        <pt x="82" y="-96" on="1"/>
        <pt x="80" y="7" on="1"/>
        <pt x="116" y="2" on="1"/>
      </contour>
    </TTGlyph>
    <TTGlyph name="cent" xMin="48" yMin="-43" xMax="465" yMax="716">
      <contour>
        <pt x="260" y="-38" on="1"/>
        <pt x="266" y="72" on="1"/>
        <pt x="174" y="82" on="0"/>
        <pt x="48" y="226" on="0"/>
        <pt x="48" y="338" on="1"/>
        <pt x="48" y="451" on="0"/>
        <pt x="170" y="590" on="0"/>
        <pt x="268" y="603" on="1"/>
        <pt x="260" y="710" on="1"/>
        <pt x="280" y="716" on="0"/>
        <pt x="299" y="716" on="1"/>
        <pt x="317" y="716" on="0"/>
        <pt x="335" y="710" on="1"/>
        <pt x="321" y="606" on="1"/>
        <pt x="394" y="604" on="0"/>
        <pt x="465" y="574" on="1"/>
        <pt x="465" y="500" on="0"/>
        <pt x="445" y="438" on="1"/>
        <pt x="439" y="437" on="0"/>
        <pt x="429" y="437" on="1"/>
        <pt x="412" y="437" on="0"/>
        <pt x="401" y="442" on="1"/>
        <pt x="388" y="548" on="1"/>
        <pt x="357" y="561" on="0"/>
        <pt x="313" y="562" on="1"/>
        <pt x="236" y="562" on="0"/>
        <pt x="155" y="440" on="0"/>
        <pt x="155" y="338" on="1"/>
        <pt x="155" y="231" on="0"/>
        <pt x="240" y="125" on="0"/>
        <pt x="307" y="125" on="1"/>
        <pt x="373" y="125" on="0"/>
        <pt x="445" y="172" on="1"/>
        <pt x="458" y="164" on="0"/>
        <pt x="463" y="146" on="1"/>
        <pt x="403" y="84" on="0"/>
        <pt x="321" y="72" on="1"/>
        <pt x="334" y="-36" on="1"/>
        <pt x="310" y="-43" on="0"/>
        <pt x="294" y="-43" on="1"/>
        <pt x="280" y="-43" on="0"/>
      </contour>
    </TTGlyph>
    <TTGlyph name="circumflex" xMin="-2" yMin="556" xMax="255" yMax="756">
      <contour>
        <pt x="255" y="588" on="1"/>
        <pt x="231" y="564" on="0"/>
        <pt x="192" y="559" on="1"/>
        <pt x="161" y="608" on="0"/>
        <pt x="126" y="684" on="1"/>
        <pt x="79" y="596" on="0"/>
        <pt x="47" y="556" on="1"/>
        <pt x="15" y="562" on="0"/>
        <pt x="-2" y="579" on="1"/>
        <pt x="4" y="588" on="0"/>
        <pt x="41" y="646" on="0"/>
        <pt x="61" y="678" on="0"/>
        <pt x="90" y="730" on="0"/>
        <pt x="101" y="753" on="1"/>
        <pt x="135" y="756" on="0"/>
        <pt x="162" y="751" on="1"/>
        <pt x="193" y="688" on="0"/>
      </contour>
    </TTGlyph>
    <TTGlyph name="circumflex.case" xMin="18" yMin="805" xMax="328" yMax="970">
      <contour>
        <pt x="290" y="805" on="1"/>
        <pt x="250" y="830" on="0"/>
        <pt x="170" y="903" on="1"/>
        <pt x="119" y="853" on="0"/>
        <pt x="50" y="805" on="1"/>
        <pt x="30" y="813" on="0"/>
        <pt x="18" y="829" on="1"/>
        <pt x="143" y="967" on="1"/>
        <pt x="160" y="970" on="0"/>
        <pt x="174" y="970" on="1"/>
        <pt x="186" y="970" on="0"/>
        <pt x="206" y="967" on="1"/>
        <pt x="328" y="829" on="1"/>
        <pt x="316" y="813" on="0"/>
      </contour>
    </TTGlyph>
    <TTGlyph name="colon" xMin="63" yMin="-15" xMax="189" yMax="438">
      <contour>
        <pt x="63" y="382" on="1"/>
        <pt x="63" y="401" on="0"/>
        <pt x="107" y="438" on="0"/>
        <pt x="130" y="438" on="1"/>
        <pt x="155" y="438" on="0"/>
        <pt x="189" y="395" on="0"/>
        <pt x="189" y="373" on="1"/>
        <pt x="189" y="353" on="0"/>
        <pt x="146" y="317" on="0"/>
        <pt x="121" y="317" on="1"/>
        <pt x="98" y="317" on="0"/>
        <pt x="63" y="360" on="0"/>
      </contour>
      <contour>
        <pt x="63" y="50" on="1"/>
        <pt x="63" y="69" on="0"/>
        <pt x="107" y="106" on="0"/>
        <pt x="130" y="106" on="1"/>
        <pt x="155" y="106" on="0"/>
        <pt x="189" y="63" on="0"/>
        <pt x="189" y="41" on="1"/>
        <pt x="189" y="21" on="0"/>
        <pt x="146" y="-15" on="0"/>
        <pt x="121" y="-15" on="1"/>
        <pt x="98" y="-15" on="0"/>
        <pt x="63" y="28" on="0"/>
      </contour>
    </TTGlyph>
    <TTGlyph name="comma" xMin="47" yMin="-165" xMax="193" yMax="106">
      <contour>
        <pt x="47" y="50" on="1"/>
        <pt x="47" y="75" on="0"/>
        <pt x="85" y="106" on="0"/>
        <pt x="114" y="106" on="1"/>
        <pt x="151" y="106" on="0"/>
        <pt x="193" y="40" on="0"/>
        <pt x="193" y="-1" on="1"/>
        <pt x="193" y="-54" on="0"/>
        <pt x="145" y="-143" on="0"/>
        <pt x="106" y="-165" on="1"/>
        <pt x="89" y="-159" on="0"/>
        <pt x="80" y="-137" on="1"/>
        <pt x="105" y="-121" on="0"/>
        <pt x="140" y="-61" on="0"/>
        <pt x="140" y="-33" on="1"/>
        <pt x="140" y="-15" on="0"/>
        <pt x="105" y="-15" on="1"/>
        <pt x="81" y="-15" on="0"/>
        <pt x="47" y="22" on="0"/>
      </contour>
    </TTGlyph>
    <TTGlyph name="copyright" xMin="53" yMin="0" xMax="652" yMax="615">
      <contour>
        <pt x="353" y="615" on="1"/>
        <pt x="484" y="615" on="0"/>
        <pt x="652" y="438" on="0"/>
        <pt x="652" y="306" on="1"/>
        <pt x="651" y="176" on="0"/>
        <pt x="485" y="1" on="0"/>
        <pt x="353" y="0" on="1"/>
        <pt x="220" y="2" on="0"/>
        <pt x="54" y="176" on="0"/>
        <pt x="53" y="306" on="1"/>
        <pt x="53" y="438" on="0"/>
        <pt x="222" y="614" on="0"/>
      </contour>
      <contour>
        <pt x="354" y="577" on="1"/>
        <pt x="244" y="576" on="0"/>
        <pt x="98" y="423" on="0"/>
        <pt x="98" y="307" on="1"/>
        <pt x="99" y="193" on="0"/>
        <pt x="243" y="39" on="0"/>
        <pt x="354" y="38" on="1"/>
        <pt x="464" y="39" on="0"/>
        <pt x="606" y="192" on="0"/>
        <pt x="607" y="307" on="1"/>
        <pt x="607" y="423" on="0"/>
        <pt x="463" y="577" on="0"/>
      </contour>
      <contour>
        <pt x="436" y="373" on="1"/>
        <pt x="422" y="458" on="1"/>
        <pt x="394" y="470" on="0"/>
        <pt x="365" y="468" on="1"/>
        <pt x="311" y="467" on="0"/>
        <pt x="258" y="375" on="0"/>
        <pt x="258" y="301" on="1"/>
        <pt x="258" y="223" on="0"/>
        <pt x="320" y="142" on="0"/>
        <pt x="365" y="142" on="1"/>
        <pt x="428" y="140" on="0"/>
        <pt x="472" y="176" on="1"/>
        <pt x="483" y="169" on="0"/>
        <pt x="486" y="156" on="1"/>
        <pt x="433" y="100" on="0"/>
        <pt x="358" y="101" on="1"/>
        <pt x="278" y="101" on="0"/>
        <pt x="179" y="208" on="0"/>
        <pt x="179" y="301" on="1"/>
        <pt x="179" y="399" on="0"/>
        <pt x="280" y="500" on="0"/>
        <pt x="361" y="500" on="1"/>
        <pt x="427" y="500" on="0"/>
        <pt x="482" y="474" on="1"/>
        <pt x="485" y="419" on="0"/>
        <pt x="467" y="369" on="1"/>
        <pt x="449" y="367" on="0"/>
      </contour>
    </TTGlyph>
    <TTGlyph name="currency" xMin="67" yMin="137" xMax="503" yMax="573">
      <contour>
        <pt x="284" y="542" on="1"/>
        <pt x="346" y="542" on="0"/>
        <pt x="396" y="505" on="1"/>
        <pt x="450" y="572" on="1"/>
        <pt x="485" y="554" on="0"/>
        <pt x="503" y="521" on="1"/>
        <pt x="436" y="463" on="1"/>
        <pt x="468" y="415" on="0"/>
        <pt x="468" y="358" on="1"/>
        <pt x="468" y="297" on="0"/>
        <pt x="431" y="247" on="1"/>
        <pt x="502" y="190" on="1"/>
        <pt x="484" y="155" on="0"/>
        <pt x="451" y="137" on="1"/>
        <pt x="389" y="207" on="1"/>
        <pt x="343" y="175" on="0"/>
        <pt x="285" y="175" on="1"/>
        <pt x="226" y="175" on="0"/>
        <pt x="178" y="210" on="1"/>
        <pt x="120" y="138" on="1"/>
        <pt x="85" y="156" on="0"/>
        <pt x="67" y="189" on="1"/>
        <pt x="138" y="251" on="1"/>
        <pt x="104" y="300" on="0"/>
        <pt x="104" y="358" on="1"/>
        <pt x="104" y="417" on="0"/>
        <pt x="137" y="464" on="1"/>
        <pt x="68" y="520" on="1"/>
        <pt x="86" y="555" on="0"/>
        <pt x="119" y="573" on="1"/>
        <pt x="177" y="506" on="1"/>
        <pt x="224" y="542" on="0"/>
      </contour>
      <contour>
        <pt x="158" y="358" on="1"/>
        <pt x="158" y="305" on="0"/>
        <pt x="233" y="230" on="0"/>
        <pt x="285" y="230" on="1"/>
        <pt x="339" y="230" on="0"/>
        <pt x="413" y="305" on="0"/>
        <pt x="413" y="358" on="1"/>
        <pt x="413" y="412" on="0"/>
        <pt x="339" y="487" on="0"/>
        <pt x="285" y="487" on="1"/>
        <pt x="232" y="487" on="0"/>
        <pt x="158" y="412" on="0"/>
      </contour>
    </TTGlyph>
    <TTGlyph name="d" xMin="40" yMin="-20" xMax="570" yMax="756">
      <contour>
        <pt x="285" y="38" on="1"/>
        <pt x="349" y="38" on="0"/>
        <pt x="399" y="91" on="1"/>
        <pt x="399" y="439" on="1"/>
        <pt x="361" y="471" on="0"/>
        <pt x="300" y="471" on="1"/>
        <pt x="224" y="471" on="0"/>
        <pt x="146" y="355" on="0"/>
        <pt x="146" y="250" on="1"/>
        <pt x="146" y="145" on="0"/>
        <pt x="216" y="38" on="0"/>
      </contour>
      <contour>
        <pt x="499" y="745" on="1"/>
        <pt x="499" y="48" on="1"/>
        <pt x="516" y="33" on="0"/>
        <pt x="569" y="28" on="1"/>
        <pt x="569" y="26" on="0"/>
        <pt x="570" y="20" on="0"/>
        <pt x="570" y="18" on="1"/>
        <pt x="570" y="5" on="0"/>
        <pt x="564" y="-7" on="1"/>
        <pt x="529" y="-14" on="0"/>
        <pt x="480" y="-14" on="1"/>
        <pt x="447" y="-14" on="0"/>
        <pt x="423" y="-8" on="1"/>
        <pt x="416" y="3" on="0"/>
        <pt x="406" y="29" on="0"/>
        <pt x="404" y="45" on="1"/>
        <pt x="399" y="45" on="1"/>
        <pt x="361" y="10" on="0"/>
        <pt x="284" y="-20" on="0"/>
        <pt x="244" y="-20" on="1"/>
        <pt x="201" y="-20" on="0"/>
        <pt x="126" y="20" on="0"/>
        <pt x="71" y="91" on="0"/>
        <pt x="40" y="186" on="0"/>
        <pt x="40" y="241" on="1"/>
        <pt x="40" y="306" on="0"/>
        <pt x="75" y="409" on="0"/>
        <pt x="141" y="481" on="0"/>
        <pt x="234" y="519" on="0"/>
        <pt x="292" y="519" on="1"/>
        <pt x="349" y="519" on="0"/>
        <pt x="399" y="494" on="1"/>
        <pt x="402" y="494" on="1"/>
        <pt x="402" y="686" on="1"/>
        <pt x="319" y="694" on="1"/>
        <pt x="318" y="697" on="0"/>
        <pt x="318" y="704" on="1"/>
        <pt x="318" y="717" on="0"/>
        <pt x="324" y="729" on="1"/>
        <pt x="396" y="739" on="0"/>
        <pt x="459" y="756" on="1"/>
        <pt x="480" y="754" on="0"/>
      </contour>
    </TTGlyph>
    <TTGlyph name="degree" xMin="39" yMin="423" xMax="315" yMax="700">
      <contour>
        <pt x="179" y="700" on="1"/>
        <pt x="235" y="700" on="0"/>
        <pt x="315" y="618" on="0"/>
        <pt x="315" y="562" on="1"/>
        <pt x="315" y="504" on="0"/>
        <pt x="234" y="423" on="0"/>
        <pt x="176" y="423" on="1"/>
        <pt x="118" y="423" on="0"/>
        <pt x="39" y="503" on="0"/>
        <pt x="39" y="561" on="1"/>
        <pt x="39" y="620" on="0"/>
        <pt x="120" y="700" on="0"/>
      </contour>
      <contour>
        <pt x="89" y="563" on="1"/>
        <pt x="89" y="520" on="0"/>
        <pt x="137" y="463" on="0"/>
        <pt x="176" y="463" on="1"/>
        <pt x="217" y="463" on="0"/>
        <pt x="265" y="520" on="0"/>
        <pt x="265" y="561" on="1"/>
        <pt x="265" y="604" on="0"/>
        <pt x="217" y="660" on="0"/>
        <pt x="176" y="660" on="1"/>
        <pt x="137" y="660" on="0"/>
        <pt x="89" y="604" on="0"/>
      </contour>
    </TTGlyph>
    <TTGlyph name="dieresis" xMin="11" yMin="588" xMax="303" yMax="708">
      <contour>
        <pt x="11" y="652" on="1"/>
        <pt x="11" y="670" on="0"/>
        <pt x="54" y="708" on="0"/>
        <pt x="76" y="708" on="1"/>
        <pt x="100" y="708" on="0"/>
        <pt x="134" y="666" on="0"/>
        <pt x="134" y="645" on="1"/>
        <pt x="134" y="626" on="0"/>
        <pt x="91" y="588" on="0"/>
        <pt x="69" y="588" on="1"/>
        <pt x="45" y="588" on="0"/>
        <pt x="11" y="631" on="0"/>
      </contour>
      <contour>
        <pt x="180" y="652" on="1"/>
        <pt x="180" y="670" on="0"/>
        <pt x="223" y="708" on="0"/>
        <pt x="245" y="708" on="1"/>
        <pt x="269" y="708" on="0"/>
        <pt x="303" y="666" on="0"/>
        <pt x="303" y="645" on="1"/>
        <pt x="303" y="626" on="0"/>
        <pt x="260" y="588" on="0"/>
        <pt x="238" y="588" on="1"/>
        <pt x="214" y="588" on="0"/>
        <pt x="180" y="631" on="0"/>
      </contour>
    </TTGlyph>
    <TTGlyph name="dieresis.case" xMin="25" yMin="828" xMax="337" yMax="948">
      <contour>
        <pt x="25" y="892" on="1"/>
        <pt x="25" y="910" on="0"/>
        <pt x="68" y="948" on="0"/>
        <pt x="90" y="948" on="1"/>
        <pt x="114" y="948" on="0"/>
        <pt x="148" y="906" on="0"/>
        <pt x="148" y="885" on="1"/>
        <pt x="148" y="866" on="0"/>
        <pt x="105" y="828" on="0"/>
        <pt x="83" y="828" on="1"/>
        <pt x="59" y="828" on="0"/>
        <pt x="25" y="871" on="0"/>
      </contour>
      <contour>
        <pt x="214" y="892" on="1"/>
        <pt x="214" y="910" on="0"/>
        <pt x="257" y="948" on="0"/>
        <pt x="279" y="948" on="1"/>
        <pt x="303" y="948" on="0"/>
        <pt x="337" y="906" on="0"/>
        <pt x="337" y="885" on="1"/>
        <pt x="337" y="866" on="0"/>
        <pt x="294" y="828" on="0"/>
        <pt x="272" y="828" on="1"/>
        <pt x="248" y="828" on="0"/>
        <pt x="214" y="871" on="0"/>
      </contour>
    </TTGlyph>
    <TTGlyph name="divide" xMin="50" yMin="93" xMax="452" yMax="530">
      <contour>
        <pt x="441" y="286" on="1"/>
        <pt x="51" y="286" on="1"/>
        <pt x="50" y="299" on="0"/>
        <pt x="57" y="344" on="0"/>
        <pt x="62" y="349" on="1"/>
        <pt x="452" y="349" on="1"/>
        <pt x="450" y="303" on="0"/>
      </contour>
      <contour>
        <pt x="191" y="156" on="1"/>
        <pt x="191" y="174" on="0"/>
        <pt x="234" y="211" on="0"/>
        <pt x="256" y="211" on="1"/>
        <pt x="281" y="210" on="0"/>
        <pt x="313" y="170" on="0"/>
        <pt x="313" y="147" on="1"/>
        <pt x="312" y="128" on="0"/>
        <pt x="271" y="93" on="0"/>
        <pt x="247" y="93" on="1"/>
        <pt x="223" y="94" on="0"/>
        <pt x="191" y="135" on="0"/>
      </contour>
      <contour>
        <pt x="191" y="475" on="1"/>
        <pt x="191" y="493" on="0"/>
        <pt x="234" y="530" on="0"/>
        <pt x="256" y="530" on="1"/>
        <pt x="281" y="529" on="0"/>
        <pt x="313" y="489" on="0"/>
        <pt x="313" y="466" on="1"/>
        <pt x="312" y="447" on="0"/>
        <pt x="271" y="412" on="0"/>
        <pt x="247" y="412" on="1"/>
        <pt x="223" y="413" on="0"/>
        <pt x="191" y="454" on="0"/>
      </contour>
    </TTGlyph>
    <TTGlyph name="dollar" xMin="55" yMin="-90" xMax="499" yMax="795">
      <contour>
        <pt x="238" y="-84" on="1"/>
        <pt x="243" y="-1" on="1"/>
        <pt x="120" y="1" on="0"/>
        <pt x="55" y="32" on="1"/>
        <pt x="55" y="117" on="0"/>
        <pt x="80" y="199" on="1"/>
        <pt x="82" y="199" on="0"/>
        <pt x="90" y="200" on="0"/>
        <pt x="92" y="200" on="1"/>
        <pt x="108" y="200" on="0"/>
        <pt x="122" y="194" on="1"/>
        <pt x="137" y="67" on="1"/>
        <pt x="197" y="52" on="0"/>
        <pt x="241" y="52" on="1"/>
        <pt x="280" y="52" on="0"/>
        <pt x="353" y="72" on="0"/>
        <pt x="398" y="119" on="0"/>
        <pt x="398" y="157" on="1"/>
        <pt x="399" y="185" on="0"/>
        <pt x="386" y="224" on="0"/>
        <pt x="350" y="261" on="0"/>
        <pt x="276" y="304" on="0"/>
        <pt x="212" y="332" on="1"/>
        <pt x="161" y="354" on="0"/>
        <pt x="98" y="400" on="0"/>
        <pt x="67" y="450" on="0"/>
        <pt x="58" y="501" on="0"/>
        <pt x="58" y="531" on="1"/>
        <pt x="58" y="603" on="0"/>
        <pt x="167" y="691" on="0"/>
        <pt x="255" y="701" on="1"/>
        <pt x="249" y="789" on="1"/>
        <pt x="268" y="795" on="0"/>
        <pt x="288" y="795" on="1"/>
        <pt x="306" y="795" on="0"/>
        <pt x="324" y="789" on="1"/>
        <pt x="315" y="704" on="1"/>
        <pt x="397" y="702" on="0"/>
        <pt x="467" y="675" on="1"/>
        <pt x="470" y="602" on="0"/>
        <pt x="438" y="513" on="1"/>
        <pt x="434" y="512" on="0"/>
        <pt x="425" y="512" on="1"/>
        <pt x="408" y="512" on="0"/>
        <pt x="395" y="518" on="1"/>
        <pt x="385" y="645" on="1"/>
        <pt x="341" y="658" on="0"/>
        <pt x="299" y="658" on="1"/>
        <pt x="233" y="658" on="0"/>
        <pt x="149" y="600" on="0"/>
        <pt x="149" y="547" on="1"/>
        <pt x="148" y="501" on="0"/>
        <pt x="206" y="445" on="0"/>
        <pt x="286" y="409" on="1"/>
        <pt x="411" y="356" on="0"/>
        <pt x="499" y="265" on="0"/>
        <pt x="499" y="184" on="1"/>
        <pt x="499" y="110" on="0"/>
        <pt x="390" y="14" on="0"/>
        <pt x="304" y="2" on="1"/>
        <pt x="312" y="-84" on="1"/>
        <pt x="294" y="-90" on="0"/>
        <pt x="277" y="-90" on="1"/>
        <pt x="258" y="-90" on="0"/>
      </contour>
    </TTGlyph>
    <TTGlyph name="dotlessi" xMin="19" yMin="-5" xMax="275" yMax="510">
      <contour>
        <pt x="205" y="499" on="1"/>
        <pt x="205" y="50" on="1"/>
        <pt x="272" y="30" on="1"/>
        <pt x="275" y="11" on="0"/>
        <pt x="267" y="-5" on="1"/>
        <pt x="197" y="0" on="0"/>
        <pt x="155" y="0" on="1"/>
        <pt x="115" y="0" on="0"/>
        <pt x="33" y="-5" on="1"/>
        <pt x="30" y="14" on="0"/>
        <pt x="35" y="30" on="1"/>
        <pt x="90" y="42" on="0"/>
        <pt x="105" y="50" on="1"/>
        <pt x="105" y="440" on="1"/>
        <pt x="22" y="448" on="1"/>
        <pt x="19" y="468" on="0"/>
        <pt x="27" y="483" on="1"/>
        <pt x="110" y="495" on="0"/>
        <pt x="167" y="510" on="1"/>
        <pt x="184" y="509" on="0"/>
      </contour>
    </TTGlyph>
    <TTGlyph name="e" xMin="37" yMin="-17" xMax="460" yMax="517">
      <contour>
        <pt x="143" y="270" on="1"/>
        <pt x="143" y="250" on="1"/>
        <pt x="143" y="150" on="0"/>
        <pt x="224" y="38" on="0"/>
        <pt x="294" y="38" on="1"/>
        <pt x="339" y="38" on="0"/>
        <pt x="393" y="55" on="0"/>
        <pt x="434" y="83" on="1"/>
        <pt x="450" y="76" on="0"/>
        <pt x="452" y="59" on="1"/>
        <pt x="383" y="-16" on="0"/>
        <pt x="291" y="-17" on="1"/>
        <pt x="176" y="-17" on="0"/>
        <pt x="38" y="127" on="0"/>
        <pt x="37" y="250" on="1"/>
        <pt x="38" y="376" on="0"/>
        <pt x="181" y="517" on="0"/>
        <pt x="286" y="517" on="1"/>
        <pt x="371" y="517" on="0"/>
        <pt x="460" y="402" on="0"/>
        <pt x="460" y="304" on="1"/>
        <pt x="460" y="287" on="0"/>
        <pt x="459" y="278" on="1"/>
        <pt x="445" y="267" on="1"/>
      </contour>
      <contour>
        <pt x="285" y="474" on="1"/>
        <pt x="238" y="474" on="0"/>
        <pt x="159" y="389" on="0"/>
        <pt x="147" y="311" on="1"/>
        <pt x="365" y="323" on="1"/>
        <pt x="365" y="403" on="0"/>
        <pt x="330" y="474" on="0"/>
      </contour>
    </TTGlyph>
    <TTGlyph name="eacute" xMin="37" yMin="-17" xMax="460" yMax="756">
      <component glyphName="e" x="0" y="0" flags="0x4"/>
      <component glyphName="acute" x="227" y="-1" flags="0x4"/>
    </TTGlyph>
    <TTGlyph name="ecircumflex" xMin="37" yMin="-17" xMax="460" yMax="755">
      <component glyphName="e" x="0" y="0" flags="0x4"/>
      <component glyphName="circumflex" x="152" y="-1" flags="0x4"/>
    </TTGlyph>
    <TTGlyph name="edieresis" xMin="37" yMin="-17" xMax="460" yMax="707">
      <component glyphName="e" x="0" y="0" flags="0x4"/>
      <component glyphName="dieresis" x="118" y="-1" flags="0x4"/>
    </TTGlyph>
    <TTGlyph name="egrave" xMin="37" yMin="-17" xMax="460" yMax="756">
      <component glyphName="e" x="0" y="0" flags="0x4"/>
      <component glyphName="grave" x="155" y="-1" flags="0x4"/>
    </TTGlyph>
    <TTGlyph name="eight" xMin="38" yMin="-15" xMax="508" yMax="712">
      <contour>
        <pt x="508" y="188" on="1"/>
        <pt x="508" y="98" on="0"/>
        <pt x="362" y="-15" on="0"/>
        <pt x="264" y="-15" on="1"/>
        <pt x="167" y="-15" on="0"/>
        <pt x="38" y="90" on="0"/>
        <pt x="38" y="178" on="1"/>
        <pt x="38" y="245" on="0"/>
        <pt x="111" y="330" on="0"/>
        <pt x="185" y="361" on="1"/>
        <pt x="72" y="431" on="0"/>
        <pt x="72" y="534" on="1"/>
        <pt x="72" y="608" on="0"/>
        <pt x="185" y="712" on="0"/>
        <pt x="278" y="712" on="1"/>
        <pt x="366" y="712" on="0"/>
        <pt x="470" y="618" on="0"/>
        <pt x="470" y="547" on="1"/>
        <pt x="471" y="450" on="0"/>
        <pt x="352" y="375" on="1"/>
        <pt x="425" y="337" on="0"/>
        <pt x="508" y="248" on="0"/>
      </contour>
      <contour>
        <pt x="130" y="183" on="1"/>
        <pt x="130" y="108" on="0"/>
        <pt x="214" y="26" on="0"/>
        <pt x="277" y="26" on="1"/>
        <pt x="339" y="26" on="0"/>
        <pt x="419" y="96" on="0"/>
        <pt x="419" y="159" on="1"/>
        <pt x="419" y="189" on="0"/>
        <pt x="386" y="242" on="0"/>
        <pt x="326" y="286" on="0"/>
        <pt x="272" y="315" on="0"/>
        <pt x="229" y="336" on="1"/>
        <pt x="132" y="275" on="0"/>
      </contour>
      <contour>
        <pt x="382" y="540" on="1"/>
        <pt x="382" y="606" on="0"/>
        <pt x="313" y="671" on="0"/>
        <pt x="265" y="671" on="1"/>
        <pt x="215" y="671" on="0"/>
        <pt x="157" y="612" on="0"/>
        <pt x="157" y="560" on="1"/>
        <pt x="158" y="501" on="0"/>
        <pt x="245" y="429" on="0"/>
        <pt x="308" y="401" on="1"/>
        <pt x="382" y="460" on="0"/>
      </contour>
    </TTGlyph>
    <TTGlyph name="emdash" xMin="61" yMin="285" xMax="835" yMax="349">
      <contour>
        <pt x="824" y="285" on="1"/>
        <pt x="62" y="285" on="1"/>
        <pt x="61" y="298" on="0"/>
        <pt x="68" y="343" on="0"/>
        <pt x="73" y="349" on="1"/>
        <pt x="835" y="349" on="1"/>
        <pt x="833" y="302" on="0"/>
      </contour>
    </TTGlyph>
    <TTGlyph name="endash" xMin="61" yMin="285" xMax="485" yMax="349">
      <contour>
        <pt x="474" y="285" on="1"/>
        <pt x="62" y="285" on="1"/>
        <pt x="61" y="297" on="0"/>
        <pt x="68" y="343" on="0"/>
        <pt x="73" y="349" on="1"/>
        <pt x="485" y="349" on="1"/>
        <pt x="483" y="302" on="0"/>
      </contour>
    </TTGlyph>
    <TTGlyph name="equal" xMin="69" yMin="197" xMax="471" yMax="415">
      <contour>
        <pt x="460" y="351" on="1"/>
        <pt x="70" y="351" on="1"/>
        <pt x="69" y="363" on="0"/>
        <pt x="76" y="409" on="0"/>
        <pt x="81" y="415" on="1"/>
        <pt x="471" y="415" on="1"/>
        <pt x="469" y="368" on="0"/>
      </contour>
      <contour>
        <pt x="460" y="197" on="1"/>
        <pt x="70" y="197" on="1"/>
        <pt x="69" y="209" on="0"/>
        <pt x="76" y="255" on="0"/>
        <pt x="81" y="261" on="1"/>
        <pt x="471" y="261" on="1"/>
        <pt x="469" y="214" on="0"/>
      </contour>
    </TTGlyph>
    <TTGlyph name="eth" xMin="37" yMin="-20" xMax="529" yMax="740">
      <contour>
        <pt x="458" y="691" on="1"/>
        <pt x="379" y="645" on="1"/>
        <pt x="460" y="570" on="0"/>
        <pt x="529" y="372" on="0"/>
        <pt x="529" y="240" on="1"/>
        <pt x="529" y="183" on="0"/>
        <pt x="492" y="88" on="0"/>
        <pt x="426" y="19" on="0"/>
        <pt x="336" y="-20" on="0"/>
        <pt x="283" y="-20" on="1"/>
        <pt x="230" y="-20" on="0"/>
        <pt x="140" y="19" on="0"/>
        <pt x="74" y="88" on="0"/>
        <pt x="37" y="183" on="0"/>
        <pt x="37" y="240" on="1"/>
        <pt x="37" y="296" on="0"/>
        <pt x="75" y="392" on="0"/>
        <pt x="141" y="462" on="0"/>
        <pt x="231" y="501" on="0"/>
        <pt x="283" y="501" on="1"/>
        <pt x="358" y="501" on="0"/>
        <pt x="420" y="459" on="1"/>
        <pt x="395" y="556" on="0"/>
        <pt x="325" y="615" on="1"/>
        <pt x="227" y="558" on="1"/>
        <pt x="225" y="561" on="0"/>
        <pt x="219" y="573" on="0"/>
        <pt x="213" y="587" on="0"/>
        <pt x="208" y="601" on="0"/>
        <pt x="208" y="604" on="1"/>
        <pt x="208" y="606" on="1"/>
        <pt x="279" y="647" on="1"/>
        <pt x="228" y="676" on="0"/>
        <pt x="172" y="694" on="1"/>
        <pt x="169" y="706" on="0"/>
        <pt x="169" y="716" on="1"/>
        <pt x="169" y="728" on="0"/>
        <pt x="174" y="740" on="1"/>
        <pt x="264" y="725" on="0"/>
        <pt x="335" y="679" on="1"/>
        <pt x="440" y="739" on="1"/>
        <pt x="458" y="707" on="0"/>
      </contour>
      <contour>
        <pt x="422" y="227" on="1"/>
        <pt x="422" y="278" on="0"/>
        <pt x="405" y="363" on="0"/>
        <pt x="370" y="423" on="0"/>
        <pt x="317" y="457" on="0"/>
        <pt x="281" y="457" on="1"/>
        <pt x="245" y="457" on="0"/>
        <pt x="193" y="425" on="0"/>
        <pt x="160" y="367" on="0"/>
        <pt x="144" y="285" on="0"/>
        <pt x="144" y="234" on="1"/>
        <pt x="144" y="189" on="0"/>
        <pt x="161" y="113" on="0"/>
        <pt x="196" y="56" on="0"/>
        <pt x="249" y="24" on="0"/>
        <pt x="285" y="24" on="1"/>
        <pt x="322" y="24" on="0"/>
        <pt x="374" y="55" on="0"/>
        <pt x="407" y="110" on="0"/>
        <pt x="422" y="184" on="0"/>
      </contour>
    </TTGlyph>
    <TTGlyph name="exclam" xMin="61" yMin="-15" xMax="187" yMax="717">
      <contour>
        <pt x="105" y="170" on="1"/>
        <pt x="74" y="700" on="1"/>
        <pt x="79" y="707" on="0"/>
        <pt x="113" y="717" on="0"/>
        <pt x="126" y="717" on="1"/>
        <pt x="141" y="717" on="0"/>
        <pt x="177" y="707" on="0"/>
        <pt x="181" y="700" on="1"/>
        <pt x="151" y="170" on="1"/>
        <pt x="126" y="163" on="0"/>
      </contour>
      <contour>
        <pt x="61" y="50" on="1"/>
        <pt x="61" y="69" on="0"/>
        <pt x="105" y="106" on="0"/>
        <pt x="128" y="106" on="1"/>
        <pt x="153" y="106" on="0"/>
        <pt x="187" y="63" on="0"/>
        <pt x="187" y="41" on="1"/>
        <pt x="187" y="21" on="0"/>
        <pt x="144" y="-15" on="0"/>
        <pt x="119" y="-15" on="1"/>
        <pt x="96" y="-15" on="0"/>
        <pt x="61" y="28" on="0"/>
      </contour>
    </TTGlyph>
    <TTGlyph name="exclamdown" xMin="51" yMin="-191" xMax="177" yMax="541">
      <contour>
        <pt x="64" y="-174" on="1"/>
        <pt x="95" y="356" on="1"/>
        <pt x="118" y="364" on="0"/>
        <pt x="141" y="356" on="1"/>
        <pt x="171" y="-174" on="1"/>
        <pt x="167" y="-181" on="0"/>
        <pt x="131" y="-191" on="0"/>
        <pt x="116" y="-191" on="1"/>
        <pt x="103" y="-191" on="0"/>
        <pt x="69" y="-181" on="0"/>
      </contour>
      <contour>
        <pt x="51" y="476" on="1"/>
        <pt x="51" y="498" on="0"/>
        <pt x="86" y="541" on="0"/>
        <pt x="109" y="541" on="1"/>
        <pt x="134" y="541" on="0"/>
        <pt x="177" y="505" on="0"/>
        <pt x="177" y="485" on="1"/>
        <pt x="177" y="463" on="0"/>
        <pt x="143" y="420" on="0"/>
        <pt x="118" y="420" on="1"/>
        <pt x="95" y="420" on="0"/>
        <pt x="51" y="457" on="0"/>
      </contour>
    </TTGlyph>
    <TTGlyph name="f" xMin="24" yMin="-5" xMax="387" yMax="757">
      <contour>
        <pt x="327" y="620" on="1"/>
        <pt x="316" y="708" on="1"/>
        <pt x="297" y="716" on="0"/>
        <pt x="277" y="716" on="1"/>
        <pt x="199" y="714" on="0"/>
        <pt x="199" y="560" on="1"/>
        <pt x="199" y="475" on="1"/>
        <pt x="339" y="475" on="1"/>
        <pt x="338" y="442" on="0"/>
        <pt x="329" y="425" on="1"/>
        <pt x="199" y="425" on="1"/>
        <pt x="199" y="50" on="1"/>
        <pt x="296" y="30" on="1"/>
        <pt x="299" y="11" on="0"/>
        <pt x="291" y="-5" on="1"/>
        <pt x="201" y="0" on="0"/>
        <pt x="149" y="0" on="1"/>
        <pt x="119" y="0" on="0"/>
        <pt x="27" y="-5" on="1"/>
        <pt x="24" y="14" on="0"/>
        <pt x="29" y="30" on="1"/>
        <pt x="77" y="40" on="0"/>
        <pt x="99" y="50" on="1"/>
        <pt x="99" y="425" on="1"/>
        <pt x="34" y="425" on="1"/>
        <pt x="33" y="435" on="0"/>
        <pt x="39" y="468" on="0"/>
        <pt x="44" y="475" on="1"/>
        <pt x="99" y="475" on="1"/>
        <pt x="99" y="535" on="1"/>
        <pt x="99" y="636" on="0"/>
        <pt x="192" y="755" on="0"/>
        <pt x="269" y="755" on="1"/>
        <pt x="339" y="757" on="0"/>
        <pt x="387" y="725" on="1"/>
        <pt x="380" y="664" on="0"/>
        <pt x="368" y="616" on="1"/>
        <pt x="346" y="613" on="0"/>
      </contour>
    </TTGlyph>
    <TTGlyph name="five" xMin="46" yMin="-18" xMax="467" yMax="700">
      <contour>
        <pt x="467" y="222" on="1"/>
        <pt x="466" y="120" on="0"/>
        <pt x="310" y="-18" on="0"/>
        <pt x="207" y="-18" on="1"/>
        <pt x="117" y="-18" on="0"/>
        <pt x="46" y="30" on="1"/>
        <pt x="50" y="112" on="0"/>
        <pt x="70" y="195" on="1"/>
        <pt x="92" y="194" on="0"/>
        <pt x="105" y="189" on="1"/>
        <pt x="124" y="58" on="1"/>
        <pt x="169" y="36" on="0"/>
        <pt x="215" y="36" on="1"/>
        <pt x="279" y="36" on="0"/>
        <pt x="364" y="124" on="0"/>
        <pt x="365" y="203" on="1"/>
        <pt x="365" y="365" on="0"/>
        <pt x="180" y="365" on="1"/>
        <pt x="139" y="365" on="0"/>
        <pt x="76" y="355" on="1"/>
        <pt x="76" y="700" on="1"/>
        <pt x="424" y="700" on="1"/>
        <pt x="426" y="688" on="0"/>
        <pt x="426" y="677" on="1"/>
        <pt x="426" y="639" on="0"/>
        <pt x="410" y="610" on="1"/>
        <pt x="137" y="610" on="1"/>
        <pt x="133" y="416" on="1"/>
        <pt x="188" y="429" on="0"/>
        <pt x="242" y="429" on="1"/>
        <pt x="342" y="429" on="0"/>
        <pt x="467" y="317" on="0"/>
      </contour>
    </TTGlyph>
    <TTGlyph name="foundryicon" xMin="51" yMin="138" xMax="1007" yMax="316">
      <contour>
        <pt x="1007" y="282" on="1"/>
        <pt x="1007" y="251" on="1"/>
        <pt x="991" y="251" on="1"/>
        <pt x="992" y="249" on="0"/>
        <pt x="992" y="246" on="1"/>
        <pt x="992" y="231" on="0"/>
        <pt x="969" y="211" on="0"/>
        <pt x="947" y="211" on="1"/>
        <pt x="938" y="211" on="0"/>
        <pt x="935" y="212" on="1"/>
        <pt x="935" y="197" on="1"/>
        <pt x="953" y="197" on="1"/>
        <pt x="992" y="197" on="0"/>
        <pt x="992" y="161" on="1"/>
        <pt x="992" y="153" on="0"/>
        <pt x="986" y="138" on="1"/>
        <pt x="959" y="138" on="1"/>
        <pt x="959" y="167" on="1"/>
        <pt x="913" y="167" on="1"/>
        <pt x="903" y="174" on="0"/>
        <pt x="903" y="189" on="1"/>
        <pt x="903" y="207" on="0"/>
        <pt x="917" y="219" on="1"/>
        <pt x="903" y="227" on="0"/>
        <pt x="903" y="247" on="1"/>
        <pt x="903" y="263" on="0"/>
        <pt x="926" y="284" on="0"/>
        <pt x="946" y="284" on="1"/>
        <pt x="964" y="284" on="0"/>
        <pt x="977" y="274" on="1"/>
        <pt x="985" y="284" on="0"/>
        <pt x="996" y="284" on="1"/>
        <pt x="999" y="284" on="0"/>
      </contour>
      <contour>
        <pt x="268" y="251" on="1"/>
        <pt x="245" y="175" on="1"/>
        <pt x="235" y="138" on="0"/>
        <pt x="202" y="138" on="1"/>
        <pt x="183" y="138" on="0"/>
        <pt x="176" y="145" on="1"/>
        <pt x="176" y="171" on="1"/>
        <pt x="193" y="171" on="1"/>
        <pt x="209" y="171" on="0"/>
        <pt x="214" y="182" on="1"/>
        <pt x="200" y="182" on="1"/>
        <pt x="176" y="251" on="1"/>
        <pt x="166" y="251" on="1"/>
        <pt x="166" y="282" on="1"/>
        <pt x="204" y="282" on="1"/>
        <pt x="218" y="233" on="1"/>
        <pt x="223" y="209" on="1"/>
        <pt x="234" y="251" on="1"/>
        <pt x="225" y="251" on="1"/>
        <pt x="225" y="282" on="1"/>
        <pt x="268" y="282" on="1"/>
      </contour>
      <contour>
        <pt x="158" y="212" on="1"/>
        <pt x="158" y="187" on="1"/>
        <pt x="140" y="179" on="0"/>
        <pt x="117" y="179" on="1"/>
        <pt x="86" y="179" on="0"/>
        <pt x="51" y="214" on="0"/>
        <pt x="51" y="245" on="1"/>
        <pt x="51" y="278" on="0"/>
        <pt x="86" y="316" on="0"/>
        <pt x="119" y="316" on="1"/>
        <pt x="135" y="316" on="0"/>
        <pt x="158" y="309" on="1"/>
        <pt x="158" y="269" on="1"/>
        <pt x="127" y="269" on="1"/>
        <pt x="127" y="284" on="1"/>
        <pt x="124" y="285" on="0"/>
        <pt x="118" y="285" on="1"/>
        <pt x="89" y="285" on="0"/>
        <pt x="89" y="249" on="1"/>
        <pt x="89" y="212" on="0"/>
        <pt x="126" y="212" on="1"/>
      </contour>
      <contour>
        <pt x="748" y="179" on="1"/>
        <pt x="699" y="179" on="0"/>
        <pt x="699" y="231" on="1"/>
        <pt x="699" y="256" on="0"/>
        <pt x="726" y="284" on="0"/>
        <pt x="772" y="284" on="0"/>
        <pt x="799" y="257" on="0"/>
        <pt x="799" y="207" on="0"/>
        <pt x="772" y="179" on="0"/>
      </contour>
      <contour>
        <pt x="484" y="277" on="1"/>
        <pt x="505" y="284" on="0"/>
        <pt x="520" y="284" on="1"/>
        <pt x="566" y="284" on="0"/>
        <pt x="566" y="246" on="1"/>
        <pt x="566" y="212" on="1"/>
        <pt x="577" y="212" on="1"/>
        <pt x="577" y="185" on="1"/>
        <pt x="570" y="180" on="0"/>
        <pt x="557" y="180" on="1"/>
        <pt x="541" y="180" on="0"/>
        <pt x="535" y="187" on="1"/>
        <pt x="526" y="179" on="0"/>
        <pt x="510" y="179" on="1"/>
        <pt x="495" y="179" on="0"/>
        <pt x="476" y="195" on="0"/>
        <pt x="476" y="210" on="1"/>
        <pt x="476" y="240" on="0"/>
        <pt x="515" y="240" on="1"/>
        <pt x="531" y="240" on="1"/>
        <pt x="531" y="241" on="1"/>
        <pt x="531" y="251" on="0"/>
        <pt x="509" y="251" on="1"/>
        <pt x="484" y="251" on="1"/>
      </contour>
      <contour>
        <pt x="432" y="212" on="1"/>
        <pt x="461" y="212" on="1"/>
        <pt x="461" y="186" on="1"/>
        <pt x="446" y="179" on="0"/>
        <pt x="424" y="179" on="1"/>
        <pt x="371" y="179" on="0"/>
        <pt x="371" y="230" on="1"/>
        <pt x="371" y="284" on="0"/>
        <pt x="420" y="284" on="1"/>
        <pt x="440" y="284" on="0"/>
        <pt x="464" y="260" on="0"/>
        <pt x="464" y="242" on="1"/>
        <pt x="464" y="238" on="0"/>
        <pt x="462" y="224" on="1"/>
        <pt x="407" y="224" on="1"/>
        <pt x="411" y="212" on="0"/>
      </contour>
      <contour>
        <pt x="822" y="251" on="1"/>
        <pt x="811" y="251" on="1"/>
        <pt x="811" y="282" on="1"/>
        <pt x="845" y="282" on="1"/>
        <pt x="855" y="266" on="1"/>
        <pt x="858" y="272" on="0"/>
        <pt x="865" y="279" on="1"/>
        <pt x="872" y="284" on="0"/>
        <pt x="880" y="284" on="1"/>
        <pt x="886" y="284" on="0"/>
        <pt x="892" y="282" on="1"/>
        <pt x="892" y="251" on="1"/>
        <pt x="858" y="251" on="1"/>
        <pt x="858" y="212" on="1"/>
        <pt x="875" y="212" on="1"/>
        <pt x="875" y="182" on="1"/>
        <pt x="813" y="182" on="1"/>
        <pt x="813" y="212" on="1"/>
        <pt x="822" y="212" on="1"/>
      </contour>
      <contour>
        <pt x="294" y="251" on="1"/>
        <pt x="282" y="251" on="1"/>
        <pt x="282" y="282" on="1"/>
        <pt x="316" y="282" on="1"/>
        <pt x="326" y="266" on="1"/>
        <pt x="329" y="272" on="0"/>
        <pt x="336" y="279" on="1"/>
        <pt x="343" y="284" on="0"/>
        <pt x="351" y="284" on="1"/>
        <pt x="357" y="284" on="0"/>
        <pt x="363" y="282" on="1"/>
        <pt x="363" y="251" on="1"/>
        <pt x="329" y="251" on="1"/>
        <pt x="329" y="212" on="1"/>
        <pt x="346" y="212" on="1"/>
        <pt x="346" y="182" on="1"/>
        <pt x="284" y="182" on="1"/>
        <pt x="284" y="212" on="1"/>
        <pt x="294" y="212" on="1"/>
      </contour>
      <contour>
        <pt x="589" y="208" on="1"/>
        <pt x="589" y="285" on="1"/>
        <pt x="577" y="285" on="1"/>
        <pt x="577" y="316" on="1"/>
        <pt x="624" y="316" on="1"/>
        <pt x="624" y="212" on="1"/>
        <pt x="638" y="212" on="1"/>
        <pt x="638" y="184" on="1"/>
        <pt x="629" y="180" on="0"/>
        <pt x="616" y="180" on="1"/>
        <pt x="589" y="180" on="0"/>
      </contour>
      <contour>
        <pt x="651" y="199" on="1"/>
        <pt x="651" y="219" on="0"/>
        <pt x="671" y="219" on="1"/>
        <pt x="693" y="219" on="0"/>
        <pt x="693" y="199" on="1"/>
        <pt x="693" y="180" on="0"/>
        <pt x="671" y="180" on="1"/>
        <pt x="651" y="180" on="0"/>
      </contour>
      <contour>
        <pt x="763" y="232" on="1"/>
        <pt x="763" y="256" on="0"/>
        <pt x="735" y="256" on="0"/>
        <pt x="735" y="232" on="1"/>
        <pt x="735" y="206" on="0"/>
        <pt x="763" y="206" on="0"/>
      </contour>
      <contour>
        <pt x="948" y="232" on="1"/>
        <pt x="958" y="232" on="0"/>
        <pt x="958" y="262" on="0"/>
        <pt x="948" y="262" on="1"/>
        <pt x="936" y="262" on="0"/>
        <pt x="936" y="232" on="0"/>
      </contour>
      <contour>
        <pt x="520" y="204" on="1"/>
        <pt x="527" y="204" on="0"/>
        <pt x="531" y="207" on="1"/>
        <pt x="531" y="222" on="1"/>
        <pt x="523" y="222" on="1"/>
        <pt x="510" y="222" on="0"/>
        <pt x="510" y="204" on="0"/>
      </contour>
      <contour>
        <pt x="419" y="258" on="1"/>
        <pt x="409" y="258" on="0"/>
        <pt x="406" y="242" on="1"/>
        <pt x="431" y="242" on="1"/>
        <pt x="431" y="258" on="0"/>
      </contour>
    </TTGlyph>
    <TTGlyph name="four" xMin="29" yMin="-5" xMax="545" yMax="738">
      <contour>
        <pt x="342" y="598" on="1"/>
        <pt x="282" y="506" on="1"/>
        <pt x="116" y="272" on="1"/>
        <pt x="339" y="272" on="1"/>
        <pt x="339" y="494" on="1"/>
        <pt x="344" y="598" on="1"/>
      </contour>
      <contour>
        <pt x="339" y="50" on="1"/>
        <pt x="339" y="204" on="1"/>
        <pt x="37" y="204" on="1"/>
        <pt x="29" y="226" on="0"/>
        <pt x="30" y="239" on="1"/>
        <pt x="364" y="720" on="1"/>
        <pt x="398" y="736" on="0"/>
        <pt x="434" y="738" on="1"/>
        <pt x="434" y="272" on="1"/>
        <pt x="539" y="272" on="1"/>
        <pt x="545" y="235" on="0"/>
        <pt x="529" y="204" on="1"/>
        <pt x="434" y="204" on="1"/>
        <pt x="434" y="50" on="1"/>
        <pt x="516" y="30" on="1"/>
        <pt x="519" y="11" on="0"/>
        <pt x="511" y="-5" on="1"/>
        <pt x="421" y="0" on="0"/>
        <pt x="389" y="0" on="1"/>
        <pt x="350" y="0" on="0"/>
        <pt x="257" y="-5" on="1"/>
        <pt x="254" y="14" on="0"/>
        <pt x="259" y="30" on="1"/>
        <pt x="304" y="36" on="0"/>
      </contour>
    </TTGlyph>
    <TTGlyph name="foursuperior" xMin="19" yMin="309" xMax="347" yMax="729">
      <contour>
        <pt x="271" y="364" on="1"/>
        <pt x="344" y="344" on="1"/>
        <pt x="347" y="325" on="0"/>
        <pt x="339" y="309" on="1"/>
        <pt x="259" y="314" on="0"/>
        <pt x="231" y="314" on="1"/>
        <pt x="202" y="314" on="0"/>
        <pt x="120" y="309" on="1"/>
        <pt x="117" y="328" on="0"/>
        <pt x="122" y="344" on="1"/>
        <pt x="191" y="364" on="1"/>
        <pt x="191" y="419" on="1"/>
        <pt x="25" y="419" on="1"/>
        <pt x="19" y="437" on="1"/>
        <pt x="205" y="729" on="1"/>
        <pt x="241" y="729" on="0"/>
        <pt x="271" y="715" on="1"/>
        <pt x="271" y="468" on="1"/>
        <pt x="338" y="468" on="1"/>
        <pt x="344" y="444" on="0"/>
        <pt x="329" y="419" on="1"/>
        <pt x="271" y="419" on="1"/>
      </contour>
      <contour>
        <pt x="91" y="468" on="1"/>
        <pt x="191" y="468" on="1"/>
        <pt x="191" y="628" on="1"/>
        <pt x="189" y="630" on="1"/>
        <pt x="155" y="567" on="1"/>
      </contour>
    </TTGlyph>
    <TTGlyph name="fraction" xMin="-12" yMin="-12" xMax="345" yMax="712">
      <contour>
        <pt x="345" y="706" on="1"/>
        <pt x="55" y="0" on="1"/>
        <pt x="21" y="-12" on="0"/>
        <pt x="-12" y="-7" on="1"/>
        <pt x="278" y="700" on="1"/>
        <pt x="313" y="712" on="0"/>
      </contour>
    </TTGlyph>
    <TTGlyph name="g" xMin="40" yMin="-226" xMax="520" yMax="569">
      <contour>
        <pt x="373" y="335" on="1"/>
        <pt x="373" y="396" on="0"/>
        <pt x="308" y="467" on="0"/>
        <pt x="256" y="467" on="1"/>
        <pt x="204" y="467" on="0"/>
        <pt x="139" y="396" on="0"/>
        <pt x="139" y="335" on="1"/>
        <pt x="139" y="278" on="0"/>
        <pt x="205" y="205" on="0"/>
        <pt x="256" y="205" on="1"/>
        <pt x="307" y="205" on="0"/>
        <pt x="373" y="278" on="0"/>
      </contour>
      <contour>
        <pt x="256" y="167" on="1"/>
        <pt x="216" y="167" on="0"/>
        <pt x="180" y="178" on="1"/>
        <pt x="162" y="152" on="0"/>
        <pt x="162" y="139" on="1"/>
        <pt x="162" y="128" on="0"/>
        <pt x="176" y="112" on="0"/>
        <pt x="237" y="95" on="0"/>
        <pt x="304" y="87" on="1"/>
        <pt x="412" y="76" on="0"/>
        <pt x="507" y="17" on="0"/>
        <pt x="507" y="-55" on="1"/>
        <pt x="507" y="-113" on="0"/>
        <pt x="429" y="-192" on="0"/>
        <pt x="315" y="-226" on="0"/>
        <pt x="256" y="-226" on="1"/>
        <pt x="148" y="-226" on="0"/>
        <pt x="40" y="-151" on="0"/>
        <pt x="40" y="-94" on="1"/>
        <pt x="40" y="-4" on="0"/>
        <pt x="134" y="35" on="1"/>
        <pt x="101" y="64" on="0"/>
        <pt x="101" y="101" on="1"/>
        <pt x="101" y="153" on="0"/>
        <pt x="142" y="192" on="1"/>
        <pt x="48" y="238" on="0"/>
        <pt x="48" y="333" on="1"/>
        <pt x="49" y="420" on="0"/>
        <pt x="174" y="506" on="0"/>
        <pt x="256" y="505" on="1"/>
        <pt x="312" y="505" on="0"/>
        <pt x="356" y="487" on="1"/>
        <pt x="489" y="569" on="1"/>
        <pt x="500" y="562" on="0"/>
        <pt x="520" y="510" on="0"/>
        <pt x="517" y="496" on="1"/>
        <pt x="451" y="474" on="0"/>
        <pt x="390" y="470" on="1"/>
        <pt x="464" y="425" on="0"/>
        <pt x="464" y="333" on="1"/>
        <pt x="464" y="277" on="0"/>
        <pt x="395" y="199" on="0"/>
        <pt x="301" y="167" on="0"/>
      </contour>
      <contour>
        <pt x="271" y="7" on="1"/>
        <pt x="263" y="8" on="0"/>
        <pt x="225" y="13" on="0"/>
        <pt x="186" y="19" on="0"/>
        <pt x="170" y="23" on="1"/>
        <pt x="144" y="1" on="0"/>
        <pt x="121" y="-44" on="0"/>
        <pt x="121" y="-80" on="1"/>
        <pt x="121" y="-125" on="0"/>
        <pt x="197" y="-188" on="0"/>
        <pt x="261" y="-188" on="1"/>
        <pt x="330" y="-188" on="0"/>
        <pt x="417" y="-122" on="0"/>
        <pt x="417" y="-81" on="1"/>
        <pt x="417" y="-43" on="0"/>
        <pt x="340" y="-2" on="0"/>
      </contour>
    </TTGlyph>
    <TTGlyph name="germandbls" xMin="22" yMin="-20" xMax="613" yMax="765">
      <contour>
        <pt x="195" y="0" on="1"/>
        <pt x="114" y="-1" on="0"/>
        <pt x="23" y="-5" on="1"/>
        <pt x="22" y="0" on="0"/>
        <pt x="22" y="9" on="1"/>
        <pt x="22" y="20" on="0"/>
        <pt x="25" y="30" on="1"/>
        <pt x="75" y="43" on="0"/>
        <pt x="95" y="50" on="1"/>
        <pt x="95" y="485" on="1"/>
        <pt x="30" y="485" on="1"/>
        <pt x="29" y="501" on="0"/>
        <pt x="35" y="527" on="0"/>
        <pt x="40" y="535" on="1"/>
        <pt x="95" y="535" on="1"/>
        <pt x="95" y="642" on="0"/>
        <pt x="214" y="765" on="0"/>
        <pt x="325" y="765" on="1"/>
        <pt x="418" y="764" on="0"/>
        <pt x="527" y="669" on="0"/>
        <pt x="538" y="604" on="1"/>
        <pt x="547" y="557" on="0"/>
        <pt x="503" y="496" on="0"/>
        <pt x="438" y="474" on="1"/>
        <pt x="398" y="460" on="0"/>
        <pt x="371" y="427" on="0"/>
        <pt x="372" y="400" on="1"/>
        <pt x="371" y="370" on="0"/>
        <pt x="417" y="321" on="0"/>
        <pt x="487" y="287" on="1"/>
        <pt x="563" y="250" on="0"/>
        <pt x="613" y="180" on="0"/>
        <pt x="612" y="125" on="1"/>
        <pt x="611" y="52" on="0"/>
        <pt x="511" y="-20" on="0"/>
        <pt x="432" y="-20" on="1"/>
        <pt x="381" y="-20" on="0"/>
        <pt x="315" y="-5" on="0"/>
        <pt x="276" y="19" on="1"/>
        <pt x="274" y="96" on="0"/>
        <pt x="294" y="154" on="1"/>
        <pt x="322" y="158" on="0"/>
        <pt x="344" y="150" on="1"/>
        <pt x="357" y="43" on="1"/>
        <pt x="384" y="25" on="0"/>
        <pt x="425" y="26" on="1"/>
        <pt x="468" y="26" on="0"/>
        <pt x="522" y="64" on="0"/>
        <pt x="522" y="102" on="1"/>
        <pt x="524" y="137" on="0"/>
        <pt x="480" y="187" on="0"/>
        <pt x="407" y="221" on="1"/>
        <pt x="345" y="249" on="0"/>
        <pt x="286" y="322" on="0"/>
        <pt x="286" y="382" on="1"/>
        <pt x="285" y="430" on="0"/>
        <pt x="334" y="487" on="0"/>
        <pt x="393" y="507" on="1"/>
        <pt x="488" y="538" on="0"/>
        <pt x="468" y="612" on="1"/>
        <pt x="441" y="716" on="0"/>
        <pt x="327" y="716" on="1"/>
        <pt x="252" y="716" on="0"/>
        <pt x="193" y="637" on="0"/>
        <pt x="195" y="560" on="1"/>
      </contour>
    </TTGlyph>
    <TTGlyph name="grave" xMin="4" yMin="566" xMax="164" yMax="757">
      <contour>
        <pt x="84" y="757" on="1"/>
        <pt x="164" y="583" on="1"/>
        <pt x="151" y="570" on="0"/>
        <pt x="128" y="566" on="1"/>
        <pt x="83" y="608" on="0"/>
        <pt x="4" y="717" on="1"/>
        <pt x="31" y="748" on="0"/>
      </contour>
    </TTGlyph>
    <TTGlyph name="grave.case" xMin="29" yMin="796" xMax="221" yMax="969">
      <contour>
        <pt x="198" y="796" on="1"/>
        <pt x="29" y="893" on="1"/>
        <pt x="43" y="942" on="0"/>
        <pt x="83" y="969" on="1"/>
        <pt x="221" y="825" on="1"/>
        <pt x="212" y="809" on="0"/>
      </contour>
    </TTGlyph>
    <TTGlyph name="greater" xMin="58" yMin="37" xMax="503" yMax="559">
      <contour>
        <pt x="503" y="323" on="1"/>
        <pt x="503" y="273" on="1"/>
        <pt x="58" y="37" on="1"/>
        <pt x="58" y="99" on="1"/>
        <pt x="416" y="298" on="1"/>
        <pt x="58" y="497" on="1"/>
        <pt x="58" y="559" on="1"/>
      </contour>
    </TTGlyph>
    <TTGlyph name="guillemotleft" xMin="36" yMin="70" xMax="536" yMax="510">
      <contour>
        <pt x="284" y="70" on="1"/>
        <pt x="42" y="270" on="1"/>
        <pt x="36" y="292" on="0"/>
        <pt x="42" y="310" on="1"/>
        <pt x="284" y="510" on="1"/>
        <pt x="309" y="509" on="0"/>
        <pt x="326" y="483" on="1"/>
        <pt x="137" y="292" on="1"/>
        <pt x="137" y="288" on="1"/>
        <pt x="326" y="97" on="1"/>
        <pt x="309" y="71" on="0"/>
      </contour>
      <contour>
        <pt x="494" y="70" on="1"/>
        <pt x="252" y="270" on="1"/>
        <pt x="246" y="292" on="0"/>
        <pt x="252" y="310" on="1"/>
        <pt x="494" y="510" on="1"/>
        <pt x="519" y="509" on="0"/>
        <pt x="536" y="483" on="1"/>
        <pt x="347" y="292" on="1"/>
        <pt x="347" y="288" on="1"/>
        <pt x="536" y="97" on="1"/>
        <pt x="519" y="71" on="0"/>
      </contour>
    </TTGlyph>
    <TTGlyph name="guillemotright" xMin="40" yMin="70" xMax="540" yMax="510">
      <contour>
        <pt x="292" y="70" on="1"/>
        <pt x="267" y="71" on="0"/>
        <pt x="250" y="97" on="1"/>
        <pt x="439" y="288" on="1"/>
        <pt x="439" y="292" on="1"/>
        <pt x="250" y="483" on="1"/>
        <pt x="267" y="509" on="0"/>
        <pt x="292" y="510" on="1"/>
        <pt x="534" y="310" on="1"/>
        <pt x="540" y="292" on="0"/>
        <pt x="534" y="270" on="1"/>
      </contour>
      <contour>
        <pt x="82" y="70" on="1"/>
        <pt x="57" y="71" on="0"/>
        <pt x="40" y="97" on="1"/>
        <pt x="229" y="288" on="1"/>
        <pt x="229" y="292" on="1"/>
        <pt x="40" y="483" on="1"/>
        <pt x="57" y="509" on="0"/>
        <pt x="82" y="510" on="1"/>
        <pt x="324" y="310" on="1"/>
        <pt x="330" y="292" on="0"/>
        <pt x="324" y="270" on="1"/>
      </contour>
    </TTGlyph>
    <TTGlyph name="guilsinglleft" xMin="36" yMin="70" xMax="326" yMax="510">
      <contour>
        <pt x="284" y="70" on="1"/>
        <pt x="42" y="270" on="1"/>
        <pt x="36" y="292" on="0"/>
        <pt x="42" y="310" on="1"/>
        <pt x="284" y="510" on="1"/>
        <pt x="309" y="509" on="0"/>
        <pt x="326" y="483" on="1"/>
        <pt x="137" y="292" on="1"/>
        <pt x="137" y="288" on="1"/>
        <pt x="326" y="97" on="1"/>
        <pt x="309" y="71" on="0"/>
      </contour>
    </TTGlyph>
    <TTGlyph name="guilsinglright" xMin="39" yMin="70" xMax="329" yMax="510">
      <contour>
        <pt x="81" y="70" on="1"/>
        <pt x="56" y="71" on="0"/>
        <pt x="39" y="97" on="1"/>
        <pt x="228" y="288" on="1"/>
        <pt x="228" y="292" on="1"/>
        <pt x="39" y="483" on="1"/>
        <pt x="56" y="509" on="0"/>
        <pt x="81" y="510" on="1"/>
        <pt x="323" y="310" on="1"/>
        <pt x="329" y="292" on="0"/>
        <pt x="323" y="270" on="1"/>
        <pt x="81" y="70" on="1"/>
      </contour>
    </TTGlyph>
    <TTGlyph name="h" xMin="4" yMin="-5" xMax="586" yMax="756">
      <contour>
        <pt x="185" y="745" on="1"/>
        <pt x="185" y="445" on="1"/>
        <pt x="190" y="445" on="1"/>
        <pt x="274" y="520" on="0"/>
        <pt x="354" y="520" on="1"/>
        <pt x="433" y="520" on="0"/>
        <pt x="511" y="437" on="0"/>
        <pt x="511" y="364" on="1"/>
        <pt x="511" y="50" on="1"/>
        <pt x="583" y="30" on="1"/>
        <pt x="586" y="11" on="0"/>
        <pt x="578" y="-5" on="1"/>
        <pt x="488" y="0" on="0"/>
        <pt x="461" y="0" on="1"/>
        <pt x="431" y="0" on="0"/>
        <pt x="339" y="-5" on="1"/>
        <pt x="336" y="14" on="0"/>
        <pt x="341" y="30" on="1"/>
        <pt x="391" y="40" on="0"/>
        <pt x="411" y="50" on="1"/>
        <pt x="411" y="349" on="1"/>
        <pt x="411" y="406" on="0"/>
        <pt x="360" y="451" on="0"/>
        <pt x="314" y="450" on="1"/>
        <pt x="282" y="450" on="0"/>
        <pt x="213" y="418" on="0"/>
        <pt x="190" y="392" on="1"/>
        <pt x="190" y="50" on="1"/>
        <pt x="257" y="30" on="1"/>
        <pt x="260" y="11" on="0"/>
        <pt x="252" y="-5" on="1"/>
        <pt x="162" y="0" on="0"/>
        <pt x="140" y="0" on="1"/>
        <pt x="111" y="0" on="0"/>
        <pt x="18" y="-5" on="1"/>
        <pt x="15" y="14" on="0"/>
        <pt x="20" y="30" on="1"/>
        <pt x="76" y="43" on="0"/>
        <pt x="90" y="50" on="1"/>
        <pt x="90" y="686" on="1"/>
        <pt x="7" y="694" on="1"/>
        <pt x="4" y="714" on="0"/>
        <pt x="12" y="729" on="1"/>
        <pt x="84" y="740" on="0"/>
        <pt x="147" y="756" on="1"/>
        <pt x="164" y="755" on="0"/>
      </contour>
    </TTGlyph>
    <TTGlyph name="hyphen" xMin="61" yMin="285" xMax="463" yMax="349">
      <contour>
        <pt x="452" y="285" on="1"/>
        <pt x="62" y="285" on="1"/>
        <pt x="61" y="299" on="0"/>
        <pt x="68" y="343" on="0"/>
        <pt x="73" y="349" on="1"/>
        <pt x="463" y="349" on="1"/>
        <pt x="461" y="302" on="0"/>
      </contour>
    </TTGlyph>
    <TTGlyph name="i" xMin="19" yMin="-5" xMax="275" yMax="728">
      <contour>
        <pt x="67" y="669" on="1"/>
        <pt x="67" y="688" on="0"/>
        <pt x="113" y="728" on="0"/>
        <pt x="138" y="728" on="1"/>
        <pt x="163" y="728" on="0"/>
        <pt x="199" y="683" on="0"/>
        <pt x="199" y="660" on="1"/>
        <pt x="199" y="640" on="0"/>
        <pt x="154" y="601" on="0"/>
        <pt x="128" y="601" on="1"/>
        <pt x="105" y="601" on="0"/>
        <pt x="67" y="646" on="0"/>
      </contour>
      <contour>
        <pt x="205" y="499" on="1"/>
        <pt x="205" y="50" on="1"/>
        <pt x="272" y="30" on="1"/>
        <pt x="275" y="11" on="0"/>
        <pt x="267" y="-5" on="1"/>
        <pt x="177" y="0" on="0"/>
        <pt x="155" y="0" on="1"/>
        <pt x="125" y="0" on="0"/>
        <pt x="33" y="-5" on="1"/>
        <pt x="30" y="14" on="0"/>
        <pt x="35" y="30" on="1"/>
        <pt x="91" y="43" on="0"/>
        <pt x="105" y="50" on="1"/>
        <pt x="105" y="440" on="1"/>
        <pt x="22" y="448" on="1"/>
        <pt x="19" y="468" on="0"/>
        <pt x="27" y="483" on="1"/>
        <pt x="110" y="495" on="0"/>
        <pt x="167" y="510" on="1"/>
        <pt x="184" y="509" on="0"/>
      </contour>
    </TTGlyph>
    <TTGlyph name="iacute" xMin="20" yMin="-5" xMax="279" yMax="757">
      <component glyphName="dotlessi" x="1" y="0" flags="0x204"/>
      <component glyphName="acute" x="115" y="0" flags="0x4"/>
    </TTGlyph>
    <TTGlyph name="icircumflex" xMin="12" yMin="-5" xMax="275" yMax="756">
      <component glyphName="dotlessi" x="0" y="0" flags="0x204"/>
      <component glyphName="circumflex" x="14" y="0" flags="0x4"/>
    </TTGlyph>
    <TTGlyph name="idieresis" xMin="-3" yMin="-5" xMax="289" yMax="708">
      <component glyphName="dotlessi" x="0" y="0" flags="0x204"/>
      <component glyphName="dieresis" x="-14" y="0" flags="0x4"/>
    </TTGlyph>
    <TTGlyph name="igrave" xMin="20" yMin="-5" xMax="276" yMax="757">
      <component glyphName="dotlessi" x="1" y="0" flags="0x204"/>
      <component glyphName="grave" x="24" y="0" flags="0x4"/>
    </TTGlyph>
    <TTGlyph name="j" xMin="-25" yMin="-246" xMax="189" yMax="728">
      <contour>
        <pt x="51" y="669" on="1"/>
        <pt x="51" y="688" on="0"/>
        <pt x="97" y="728" on="0"/>
        <pt x="122" y="728" on="1"/>
        <pt x="147" y="728" on="0"/>
        <pt x="183" y="683" on="0"/>
        <pt x="183" y="660" on="1"/>
        <pt x="183" y="640" on="0"/>
        <pt x="138" y="601" on="0"/>
        <pt x="112" y="601" on="1"/>
        <pt x="89" y="601" on="0"/>
        <pt x="51" y="646" on="0"/>
      </contour>
      <contour>
        <pt x="189" y="34" on="1"/>
        <pt x="189" y="-60" on="0"/>
        <pt x="89" y="-195" on="0"/>
        <pt x="-6" y="-246" on="1"/>
        <pt x="-25" y="-231" on="0"/>
        <pt x="-25" y="-203" on="1"/>
        <pt x="45" y="-162" on="0"/>
        <pt x="90" y="-58" on="0"/>
        <pt x="89" y="30" on="1"/>
        <pt x="89" y="440" on="1"/>
        <pt x="6" y="448" on="1"/>
        <pt x="3" y="468" on="0"/>
        <pt x="11" y="483" on="1"/>
        <pt x="94" y="495" on="0"/>
        <pt x="151" y="510" on="1"/>
        <pt x="168" y="509" on="0"/>
        <pt x="189" y="499" on="1"/>
      </contour>
    </TTGlyph>
    <TTGlyph name="k" xMin="3" yMin="-5" xMax="541" yMax="756">
      <contour>
        <pt x="187" y="745" on="1"/>
        <pt x="187" y="277" on="1"/>
        <pt x="213" y="277" on="1"/>
        <pt x="373" y="455" on="1"/>
        <pt x="300" y="470" on="1"/>
        <pt x="299" y="474" on="0"/>
        <pt x="299" y="481" on="1"/>
        <pt x="299" y="493" on="0"/>
        <pt x="305" y="505" on="1"/>
        <pt x="375" y="500" on="0"/>
        <pt x="407" y="500" on="1"/>
        <pt x="438" y="500" on="0"/>
        <pt x="501" y="505" on="1"/>
        <pt x="502" y="500" on="0"/>
        <pt x="502" y="480" on="0"/>
        <pt x="499" y="470" on="1"/>
        <pt x="452" y="465" on="0"/>
        <pt x="424" y="445" on="1"/>
        <pt x="288" y="299" on="1"/>
        <pt x="473" y="50" on="1"/>
        <pt x="493" y="34" on="0"/>
        <pt x="540" y="30" on="1"/>
        <pt x="540" y="28" on="0"/>
        <pt x="541" y="21" on="0"/>
        <pt x="541" y="19" on="1"/>
        <pt x="541" y="7" on="0"/>
        <pt x="535" y="-5" on="1"/>
        <pt x="457" y="-1" on="0"/>
        <pt x="416" y="-1" on="1"/>
        <pt x="368" y="-1" on="0"/>
        <pt x="325" y="-5" on="1"/>
        <pt x="324" y="0" on="0"/>
        <pt x="324" y="9" on="1"/>
        <pt x="324" y="20" on="0"/>
        <pt x="327" y="30" on="1"/>
        <pt x="376" y="33" on="1"/>
        <pt x="233" y="237" on="1"/>
        <pt x="187" y="237" on="1"/>
        <pt x="187" y="50" on="1"/>
        <pt x="254" y="30" on="1"/>
        <pt x="254" y="28" on="0"/>
        <pt x="255" y="21" on="0"/>
        <pt x="255" y="19" on="1"/>
        <pt x="255" y="7" on="0"/>
        <pt x="249" y="-5" on="1"/>
        <pt x="159" y="0" on="0"/>
        <pt x="137" y="0" on="1"/>
        <pt x="108" y="0" on="0"/>
        <pt x="15" y="-5" on="1"/>
        <pt x="14" y="0" on="0"/>
        <pt x="14" y="9" on="1"/>
        <pt x="14" y="20" on="0"/>
        <pt x="17" y="30" on="1"/>
        <pt x="73" y="43" on="0"/>
        <pt x="87" y="50" on="1"/>
        <pt x="87" y="686" on="1"/>
        <pt x="4" y="694" on="1"/>
        <pt x="3" y="698" on="0"/>
        <pt x="3" y="705" on="1"/>
        <pt x="3" y="717" on="0"/>
        <pt x="9" y="729" on="1"/>
        <pt x="92" y="741" on="0"/>
        <pt x="149" y="756" on="1"/>
        <pt x="166" y="755" on="0"/>
      </contour>
    </TTGlyph>
    <TTGlyph name="l" xMin="4" yMin="-5" xMax="270" yMax="756">
      <contour>
        <pt x="190" y="745" on="1"/>
        <pt x="190" y="50" on="1"/>
        <pt x="267" y="30" on="1"/>
        <pt x="270" y="11" on="0"/>
        <pt x="262" y="-5" on="1"/>
        <pt x="172" y="0" on="0"/>
        <pt x="140" y="0" on="1"/>
        <pt x="111" y="0" on="0"/>
        <pt x="18" y="-5" on="1"/>
        <pt x="15" y="14" on="0"/>
        <pt x="20" y="30" on="1"/>
        <pt x="76" y="44" on="0"/>
        <pt x="90" y="50" on="1"/>
        <pt x="90" y="686" on="1"/>
        <pt x="7" y="694" on="1"/>
        <pt x="4" y="714" on="0"/>
        <pt x="12" y="729" on="1"/>
        <pt x="95" y="741" on="0"/>
        <pt x="152" y="756" on="1"/>
        <pt x="169" y="755" on="0"/>
      </contour>
    </TTGlyph>
    <TTGlyph name="less" xMin="38" yMin="37" xMax="483" yMax="559">
      <contour>
        <pt x="483" y="559" on="1"/>
        <pt x="483" y="497" on="1"/>
        <pt x="125" y="298" on="1"/>
        <pt x="483" y="99" on="1"/>
        <pt x="483" y="37" on="1"/>
        <pt x="38" y="273" on="1"/>
        <pt x="38" y="323" on="1"/>
      </contour>
    </TTGlyph>
    <TTGlyph name="logicalnot" xMin="68" yMin="149" xMax="548" yMax="355">
      <contour>
        <pt x="548" y="150" on="1"/>
        <pt x="533" y="149" on="0"/>
        <pt x="487" y="156" on="0"/>
        <pt x="482" y="161" on="1"/>
        <pt x="482" y="292" on="1"/>
        <pt x="69" y="292" on="1"/>
        <pt x="68" y="305" on="0"/>
        <pt x="76" y="350" on="0"/>
        <pt x="80" y="355" on="1"/>
        <pt x="548" y="355" on="1"/>
      </contour>
    </TTGlyph>
    <TTGlyph name="m" xMin="15" yMin="-5" xMax="886" yMax="517">
      <contour>
        <pt x="196" y="501" on="1"/>
        <pt x="193" y="433" on="1"/>
        <pt x="194" y="432" on="1"/>
        <pt x="274" y="514" on="0"/>
        <pt x="372" y="516" on="1"/>
        <pt x="473" y="515" on="0"/>
        <pt x="503" y="432" on="1"/>
        <pt x="578" y="517" on="0"/>
        <pt x="672" y="516" on="1"/>
        <pt x="738" y="516" on="0"/>
        <pt x="812" y="441" on="0"/>
        <pt x="812" y="371" on="1"/>
        <pt x="813" y="50" on="1"/>
        <pt x="883" y="30" on="1"/>
        <pt x="886" y="11" on="0"/>
        <pt x="878" y="-5" on="1"/>
        <pt x="788" y="0" on="0"/>
        <pt x="763" y="0" on="1"/>
        <pt x="737" y="0" on="0"/>
        <pt x="645" y="-5" on="1"/>
        <pt x="642" y="14" on="0"/>
        <pt x="647" y="30" on="1"/>
        <pt x="678" y="36" on="0"/>
        <pt x="713" y="50" on="1"/>
        <pt x="713" y="326" on="1"/>
        <pt x="713" y="392" on="0"/>
        <pt x="672" y="444" on="0"/>
        <pt x="625" y="444" on="1"/>
        <pt x="568" y="443" on="0"/>
        <pt x="512" y="379" on="1"/>
        <pt x="513" y="50" on="1"/>
        <pt x="583" y="30" on="1"/>
        <pt x="586" y="11" on="0"/>
        <pt x="578" y="-5" on="1"/>
        <pt x="495" y="0" on="0"/>
        <pt x="463" y="0" on="1"/>
        <pt x="432" y="0" on="0"/>
        <pt x="345" y="-5" on="1"/>
        <pt x="342" y="14" on="0"/>
        <pt x="347" y="30" on="1"/>
        <pt x="378" y="36" on="0"/>
        <pt x="413" y="50" on="1"/>
        <pt x="413" y="326" on="1"/>
        <pt x="413" y="392" on="0"/>
        <pt x="372" y="446" on="0"/>
        <pt x="325" y="446" on="1"/>
        <pt x="270" y="445" on="0"/>
        <pt x="201" y="386" on="1"/>
        <pt x="201" y="50" on="1"/>
        <pt x="268" y="30" on="1"/>
        <pt x="271" y="11" on="0"/>
        <pt x="263" y="-5" on="1"/>
        <pt x="183" y="0" on="0"/>
        <pt x="151" y="0" on="1"/>
        <pt x="115" y="0" on="0"/>
        <pt x="29" y="-5" on="1"/>
        <pt x="26" y="14" on="0"/>
        <pt x="31" y="30" on="1"/>
        <pt x="79" y="42" on="0"/>
        <pt x="101" y="50" on="1"/>
        <pt x="101" y="440" on="1"/>
        <pt x="18" y="448" on="1"/>
        <pt x="15" y="468" on="0"/>
        <pt x="23" y="483" on="1"/>
        <pt x="100" y="496" on="0"/>
        <pt x="162" y="510" on="1"/>
        <pt x="179" y="509" on="0"/>
      </contour>
    </TTGlyph>
    <TTGlyph name="macron" xMin="-1" yMin="566" xMax="530" yMax="630">
      <contour>
        <pt x="519" y="566" on="1"/>
        <pt x="1" y="566" on="1"/>
        <pt x="-1" y="577" on="0"/>
        <pt x="7" y="624" on="0"/>
        <pt x="12" y="630" on="1"/>
        <pt x="530" y="630" on="1"/>
        <pt x="530" y="583" on="0"/>
      </contour>
    </TTGlyph>
    <TTGlyph name="minus" xMin="68" yMin="285" xMax="470" yMax="349">
      <contour>
        <pt x="459" y="285" on="1"/>
        <pt x="69" y="285" on="1"/>
        <pt x="68" y="298" on="0"/>
        <pt x="75" y="343" on="0"/>
        <pt x="80" y="349" on="1"/>
        <pt x="470" y="349" on="1"/>
        <pt x="468" y="302" on="0"/>
      </contour>
    </TTGlyph>
    <TTGlyph name="mu" xMin="95" yMin="-168" xMax="597" yMax="505">
      <contour>
        <pt x="514" y="500" on="1"/>
        <pt x="514" y="41" on="1"/>
        <pt x="545" y="27" on="0"/>
        <pt x="594" y="21" on="1"/>
        <pt x="597" y="2" on="0"/>
        <pt x="589" y="-14" on="1"/>
        <pt x="552" y="-21" on="0"/>
        <pt x="501" y="-21" on="1"/>
        <pt x="466" y="-21" on="0"/>
        <pt x="442" y="-15" on="1"/>
        <pt x="427" y="71" on="1"/>
        <pt x="422" y="71" on="1"/>
        <pt x="375" y="24" on="0"/>
        <pt x="292" y="-16" on="0"/>
        <pt x="240" y="-16" on="1"/>
        <pt x="190" y="-16" on="0"/>
        <pt x="160" y="-1" on="1"/>
        <pt x="160" y="-165" on="1"/>
        <pt x="142" y="-168" on="0"/>
        <pt x="124" y="-168" on="1"/>
        <pt x="110" y="-168" on="0"/>
        <pt x="95" y="-165" on="1"/>
        <pt x="95" y="500" on="1"/>
        <pt x="111" y="505" on="0"/>
        <pt x="135" y="505" on="1"/>
        <pt x="145" y="505" on="0"/>
        <pt x="195" y="500" on="1"/>
        <pt x="195" y="149" on="1"/>
        <pt x="195" y="93" on="0"/>
        <pt x="243" y="52" on="0"/>
        <pt x="289" y="54" on="1"/>
        <pt x="320" y="54" on="0"/>
        <pt x="390" y="91" on="0"/>
        <pt x="414" y="118" on="1"/>
        <pt x="414" y="500" on="1"/>
        <pt x="430" y="505" on="0"/>
        <pt x="454" y="505" on="1"/>
        <pt x="464" y="505" on="0"/>
      </contour>
    </TTGlyph>
    <TTGlyph name="multiply" xMin="55" yMin="153" xMax="390" yMax="482">
      <contour>
        <pt x="110" y="479" on="1"/>
        <pt x="223" y="364" on="1"/>
        <pt x="341" y="482" on="1"/>
        <pt x="370" y="450" on="0"/>
        <pt x="378" y="429" on="1"/>
        <pt x="268" y="319" on="1"/>
        <pt x="390" y="198" on="1"/>
        <pt x="382" y="188" on="0"/>
        <pt x="343" y="160" on="0"/>
        <pt x="335" y="160" on="1"/>
        <pt x="222" y="273" on="1"/>
        <pt x="102" y="153" on="1"/>
        <pt x="93" y="159" on="0"/>
        <pt x="65" y="199" on="0"/>
        <pt x="65" y="206" on="1"/>
        <pt x="177" y="318" on="1"/>
        <pt x="55" y="440" on="1"/>
        <pt x="86" y="469" on="0"/>
      </contour>
    </TTGlyph>
    <TTGlyph name="n" xMin="15" yMin="-5" xMax="596" yMax="516">
      <contour>
        <pt x="196" y="501" on="1"/>
        <pt x="193" y="433" on="1"/>
        <pt x="194" y="432" on="1"/>
        <pt x="278" y="514" on="0"/>
        <pt x="382" y="516" on="1"/>
        <pt x="448" y="516" on="0"/>
        <pt x="522" y="441" on="0"/>
        <pt x="522" y="371" on="1"/>
        <pt x="523" y="50" on="1"/>
        <pt x="593" y="30" on="1"/>
        <pt x="596" y="11" on="0"/>
        <pt x="588" y="-5" on="1"/>
        <pt x="508" y="0" on="0"/>
        <pt x="473" y="0" on="1"/>
        <pt x="437" y="0" on="0"/>
        <pt x="355" y="-5" on="1"/>
        <pt x="352" y="14" on="0"/>
        <pt x="357" y="30" on="1"/>
        <pt x="388" y="36" on="0"/>
        <pt x="423" y="50" on="1"/>
        <pt x="423" y="326" on="1"/>
        <pt x="423" y="392" on="0"/>
        <pt x="382" y="446" on="0"/>
        <pt x="335" y="446" on="1"/>
        <pt x="254" y="446" on="0"/>
        <pt x="201" y="386" on="1"/>
        <pt x="201" y="50" on="1"/>
        <pt x="268" y="30" on="1"/>
        <pt x="271" y="11" on="0"/>
        <pt x="263" y="-5" on="1"/>
        <pt x="183" y="0" on="0"/>
        <pt x="151" y="0" on="1"/>
        <pt x="121" y="0" on="0"/>
        <pt x="29" y="-5" on="1"/>
        <pt x="26" y="14" on="0"/>
        <pt x="31" y="30" on="1"/>
        <pt x="79" y="42" on="0"/>
        <pt x="101" y="50" on="1"/>
        <pt x="101" y="440" on="1"/>
        <pt x="18" y="448" on="1"/>
        <pt x="15" y="468" on="0"/>
        <pt x="23" y="483" on="1"/>
        <pt x="100" y="496" on="0"/>
        <pt x="162" y="510" on="1"/>
        <pt x="179" y="509" on="0"/>
      </contour>
    </TTGlyph>
    <TTGlyph name="nine" xMin="22" yMin="-15" xMax="504" yMax="720">
      <contour>
        <pt x="104" y="39" on="1"/>
        <pt x="357" y="75" on="0"/>
        <pt x="398" y="295" on="1"/>
        <pt x="321" y="244" on="0"/>
        <pt x="232" y="242" on="1"/>
        <pt x="144" y="242" on="0"/>
        <pt x="23" y="369" on="0"/>
        <pt x="22" y="488" on="1"/>
        <pt x="23" y="591" on="0"/>
        <pt x="154" y="719" on="0"/>
        <pt x="250" y="720" on="1"/>
        <pt x="371" y="720" on="0"/>
        <pt x="504" y="552" on="0"/>
        <pt x="504" y="410" on="1"/>
        <pt x="503" y="222" on="0"/>
        <pt x="295" y="11" on="0"/>
        <pt x="110" y="-15" on="1"/>
        <pt x="106" y="-7" on="0"/>
        <pt x="102" y="28" on="0"/>
      </contour>
      <contour>
        <pt x="406" y="382" on="1"/>
        <pt x="405" y="529" on="0"/>
        <pt x="321" y="677" on="0"/>
        <pt x="251" y="677" on="1"/>
        <pt x="193" y="676" on="0"/>
        <pt x="122" y="569" on="0"/>
        <pt x="122" y="487" on="1"/>
        <pt x="122" y="396" on="0"/>
        <pt x="198" y="297" on="0"/>
        <pt x="260" y="297" on="1"/>
        <pt x="331" y="297" on="0"/>
        <pt x="405" y="343" on="1"/>
        <pt x="406" y="356" on="0"/>
      </contour>
    </TTGlyph>
    <TTGlyph name="ntilde" xMin="15" yMin="-5" xMax="596" yMax="698">
      <component glyphName="n" x="0" y="0" flags="0x204"/>
      <component glyphName="tilde" x="138" y="0" flags="0x4"/>
    </TTGlyph>
    <TTGlyph name="numbersign" xMin="-6" yMin="-9" xMax="518" yMax="715">
      <contour>
        <pt x="9" y="0" on="1"/>
        <pt x="82" y="215" on="1"/>
        <pt x="-5" y="215" on="1"/>
        <pt x="-6" y="227" on="0"/>
        <pt x="1" y="255" on="0"/>
        <pt x="6" y="261" on="1"/>
        <pt x="97" y="261" on="1"/>
        <pt x="149" y="419" on="1"/>
        <pt x="42" y="419" on="1"/>
        <pt x="41" y="431" on="0"/>
        <pt x="48" y="459" on="0"/>
        <pt x="53" y="465" on="1"/>
        <pt x="164" y="465" on="1"/>
        <pt x="181" y="519" on="0"/>
        <pt x="226" y="669" on="0"/>
        <pt x="237" y="705" on="1"/>
        <pt x="281" y="715" on="0"/>
        <pt x="298" y="705" on="1"/>
        <pt x="216" y="465" on="1"/>
        <pt x="369" y="465" on="1"/>
        <pt x="386" y="519" on="0"/>
        <pt x="431" y="669" on="0"/>
        <pt x="442" y="705" on="1"/>
        <pt x="486" y="715" on="0"/>
        <pt x="503" y="705" on="1"/>
        <pt x="421" y="465" on="1"/>
        <pt x="518" y="465" on="1"/>
        <pt x="518" y="436" on="0"/>
        <pt x="507" y="419" on="1"/>
        <pt x="406" y="419" on="1"/>
        <pt x="354" y="261" on="1"/>
        <pt x="471" y="261" on="1"/>
        <pt x="471" y="232" on="0"/>
        <pt x="460" y="215" on="1"/>
        <pt x="340" y="215" on="1"/>
        <pt x="321" y="155" on="0"/>
        <pt x="275" y="0" on="1"/>
        <pt x="230" y="-9" on="0"/>
        <pt x="214" y="0" on="1"/>
        <pt x="287" y="215" on="1"/>
        <pt x="135" y="215" on="1"/>
        <pt x="116" y="155" on="0"/>
        <pt x="70" y="0" on="1"/>
        <pt x="25" y="-9" on="0"/>
      </contour>
      <contour>
        <pt x="201" y="419" on="1"/>
        <pt x="149" y="261" on="1"/>
        <pt x="302" y="261" on="1"/>
        <pt x="354" y="419" on="1"/>
      </contour>
    </TTGlyph>
    <TTGlyph name="o" xMin="36" yMin="-21" xMax="540" yMax="521">
      <contour>
        <pt x="36" y="250" on="1"/>
        <pt x="36" y="375" on="0"/>
        <pt x="182" y="521" on="0"/>
        <pt x="288" y="520" on="1"/>
        <pt x="404" y="520" on="0"/>
        <pt x="540" y="366" on="0"/>
        <pt x="540" y="250" on="1"/>
        <pt x="540" y="123" on="0"/>
        <pt x="396" y="-21" on="0"/>
        <pt x="288" y="-20" on="1"/>
        <pt x="169" y="-20" on="0"/>
        <pt x="36" y="134" on="0"/>
      </contour>
      <contour>
        <pt x="432" y="236" on="1"/>
        <pt x="434" y="331" on="0"/>
        <pt x="362" y="477" on="0"/>
        <pt x="286" y="477" on="1"/>
        <pt x="212" y="477" on="0"/>
        <pt x="143" y="348" on="0"/>
        <pt x="144" y="243" on="1"/>
        <pt x="144" y="197" on="0"/>
        <pt x="161" y="117" on="0"/>
        <pt x="197" y="57" on="0"/>
        <pt x="252" y="23" on="0"/>
        <pt x="290" y="23" on="1"/>
        <pt x="352" y="22" on="0"/>
        <pt x="432" y="124" on="0"/>
      </contour>
    </TTGlyph>
    <TTGlyph name="oacute" xMin="39" yMin="-21" xMax="543" yMax="758">
      <component glyphName="o" x="3" y="0" flags="0x4"/>
      <component glyphName="acute" x="254" y="1" flags="0x4"/>
    </TTGlyph>
    <TTGlyph name="ocircumflex" xMin="39" yMin="-21" xMax="543" yMax="757">
      <component glyphName="o" x="3" y="0" flags="0x4"/>
      <component glyphName="circumflex" x="164" y="1" flags="0x4"/>
    </TTGlyph>
    <TTGlyph name="odieresis" xMin="39" yMin="-21" xMax="543" yMax="709">
      <component glyphName="o" x="3" y="0" flags="0x4"/>
      <component glyphName="dieresis" x="135" y="1" flags="0x4"/>
    </TTGlyph>
    <TTGlyph name="oe" xMin="36" yMin="-20" xMax="849" yMax="520">
      <contour>
        <pt x="527" y="270" on="1"/>
        <pt x="527" y="250" on="1"/>
        <pt x="527" y="148" on="0"/>
        <pt x="603" y="35" on="0"/>
        <pt x="673" y="35" on="1"/>
        <pt x="721" y="35" on="0"/>
        <pt x="777" y="53" on="0"/>
        <pt x="817" y="80" on="1"/>
        <pt x="833" y="73" on="0"/>
        <pt x="835" y="56" on="1"/>
        <pt x="773" y="-18" on="0"/>
        <pt x="670" y="-20" on="1"/>
        <pt x="548" y="-20" on="0"/>
        <pt x="478" y="59" on="1"/>
        <pt x="405" y="-18" on="0"/>
        <pt x="291" y="-20" on="1"/>
        <pt x="181" y="-20" on="0"/>
        <pt x="37" y="131" on="0"/>
        <pt x="36" y="250" on="1"/>
        <pt x="37" y="367" on="0"/>
        <pt x="182" y="519" on="0"/>
        <pt x="291" y="520" on="1"/>
        <pt x="379" y="520" on="0"/>
        <pt x="445" y="468" on="1"/>
        <pt x="461" y="456" on="0"/>
        <pt x="477" y="424" on="1"/>
        <pt x="501" y="471" on="0"/>
        <pt x="603" y="520" on="0"/>
        <pt x="665" y="520" on="1"/>
        <pt x="755" y="519" on="0"/>
        <pt x="849" y="402" on="0"/>
        <pt x="849" y="304" on="1"/>
        <pt x="849" y="287" on="0"/>
        <pt x="848" y="278" on="1"/>
        <pt x="834" y="267" on="1"/>
      </contour>
      <contour>
        <pt x="435" y="236" on="1"/>
        <pt x="435" y="342" on="0"/>
        <pt x="363" y="473" on="0"/>
        <pt x="289" y="474" on="1"/>
        <pt x="148" y="473" on="0"/>
        <pt x="147" y="243" on="1"/>
        <pt x="147" y="148" on="0"/>
        <pt x="220" y="27" on="0"/>
        <pt x="293" y="26" on="1"/>
        <pt x="368" y="27" on="0"/>
        <pt x="435" y="143" on="0"/>
      </contour>
      <contour>
        <pt x="665" y="480" on="1"/>
        <pt x="608" y="480" on="0"/>
        <pt x="540" y="393" on="0"/>
        <pt x="532" y="311" on="1"/>
        <pt x="755" y="323" on="1"/>
        <pt x="755" y="404" on="0"/>
        <pt x="715" y="480" on="0"/>
      </contour>
    </TTGlyph>
    <TTGlyph name="ograve" xMin="39" yMin="-21" xMax="543" yMax="758">
      <component glyphName="o" x="3" y="0" flags="0x4"/>
      <component glyphName="grave" x="163" y="1" flags="0x4"/>
    </TTGlyph>
    <TTGlyph name="one" xMin="27" yMin="-5" xMax="340" yMax="701">
      <contour>
        <pt x="239" y="690" on="1"/>
        <pt x="239" y="50" on="1"/>
        <pt x="337" y="30" on="1"/>
        <pt x="340" y="11" on="0"/>
        <pt x="332" y="-5" on="1"/>
        <pt x="242" y="0" on="0"/>
        <pt x="190" y="0" on="1"/>
        <pt x="141" y="0" on="0"/>
        <pt x="48" y="-5" on="1"/>
        <pt x="45" y="14" on="0"/>
        <pt x="50" y="30" on="1"/>
        <pt x="119" y="40" on="0"/>
        <pt x="139" y="50" on="1"/>
        <pt x="139" y="611" on="1"/>
        <pt x="30" y="621" on="1"/>
        <pt x="27" y="641" on="0"/>
        <pt x="35" y="656" on="1"/>
        <pt x="128" y="674" on="0"/>
        <pt x="199" y="701" on="1"/>
        <pt x="218" y="700" on="0"/>
      </contour>
    </TTGlyph>
    <TTGlyph name="onehalf" xMin="42" yMin="-12" xMax="807" yMax="720">
      <component glyphName="fraction" x="230" y="0" flags="0x4"/>
      <component glyphName="onesuperior" x="-2" y="0" flags="0x4"/>
      <component glyphName="twosuperior" x="479" y="-313" flags="0x4"/>
    </TTGlyph>
    <TTGlyph name="onequarter" xMin="44" yMin="-12" xMax="795" yMax="720">
      <component glyphName="fraction" x="233" y="0" flags="0x4"/>
      <component glyphName="foursuperior" x="448" y="-283" flags="0x4"/>
      <component glyphName="onesuperior" x="0" y="0" flags="0x4"/>
    </TTGlyph>
    <TTGlyph name="onesuperior" xMin="44" yMin="309" xMax="296" yMax="720">
      <contour>
        <pt x="210" y="713" on="1"/>
        <pt x="210" y="364" on="1"/>
        <pt x="293" y="344" on="1"/>
        <pt x="296" y="325" on="0"/>
        <pt x="288" y="309" on="1"/>
        <pt x="208" y="314" on="0"/>
        <pt x="132" y="314" on="0"/>
        <pt x="49" y="309" on="1"/>
        <pt x="46" y="328" on="0"/>
        <pt x="51" y="344" on="1"/>
        <pt x="130" y="364" on="1"/>
        <pt x="130" y="642" on="1"/>
        <pt x="50" y="646" on="1"/>
        <pt x="44" y="658" on="0"/>
        <pt x="45" y="675" on="1"/>
        <pt x="129" y="692" on="0"/>
        <pt x="180" y="720" on="1"/>
      </contour>
    </TTGlyph>
    <TTGlyph name="ordfeminine" xMin="45" yMin="380" xMax="354" yMax="720">
      <contour>
        <pt x="113" y="478" on="1"/>
        <pt x="113" y="453" on="0"/>
        <pt x="145" y="425" on="0"/>
        <pt x="168" y="425" on="1"/>
        <pt x="185" y="425" on="0"/>
        <pt x="225" y="448" on="0"/>
        <pt x="235" y="463" on="1"/>
        <pt x="235" y="541" on="1"/>
        <pt x="168" y="541" on="0"/>
        <pt x="113" y="515" on="0"/>
      </contour>
      <contour>
        <pt x="307" y="584" on="1"/>
        <pt x="307" y="428" on="1"/>
        <pt x="325" y="419" on="0"/>
        <pt x="351" y="416" on="1"/>
        <pt x="354" y="394" on="0"/>
        <pt x="348" y="383" on="1"/>
        <pt x="330" y="380" on="0"/>
        <pt x="297" y="380" on="1"/>
        <pt x="269" y="380" on="0"/>
        <pt x="254" y="384" on="1"/>
        <pt x="243" y="422" on="1"/>
        <pt x="239" y="422" on="1"/>
        <pt x="197" y="380" on="0"/>
        <pt x="91" y="380" on="0"/>
        <pt x="45" y="432" on="0"/>
        <pt x="45" y="472" on="1"/>
        <pt x="45" y="530" on="0"/>
        <pt x="159" y="584" on="0"/>
        <pt x="235" y="582" on="1"/>
        <pt x="235" y="645" on="0"/>
        <pt x="211" y="683" on="0"/>
        <pt x="177" y="683" on="1"/>
        <pt x="149" y="683" on="0"/>
        <pt x="116" y="673" on="1"/>
        <pt x="107" y="615" on="1"/>
        <pt x="96" y="609" on="0"/>
        <pt x="75" y="612" on="1"/>
        <pt x="66" y="631" on="0"/>
        <pt x="63" y="696" on="1"/>
        <pt x="119" y="720" on="0"/>
        <pt x="197" y="720" on="1"/>
        <pt x="261" y="720" on="0"/>
        <pt x="304" y="662" on="0"/>
      </contour>
    </TTGlyph>
    <TTGlyph name="ordmasculine" xMin="40" yMin="375" xMax="373" yMax="723">
      <contour>
        <pt x="212" y="723" on="1"/>
        <pt x="289" y="723" on="0"/>
        <pt x="373" y="623" on="0"/>
        <pt x="373" y="554" on="1"/>
        <pt x="373" y="480" on="0"/>
        <pt x="283" y="375" on="0"/>
        <pt x="208" y="375" on="1"/>
        <pt x="129" y="375" on="0"/>
        <pt x="40" y="477" on="0"/>
        <pt x="40" y="547" on="1"/>
        <pt x="40" y="619" on="0"/>
        <pt x="130" y="723" on="0"/>
      </contour>
      <contour>
        <pt x="208" y="686" on="1"/>
        <pt x="161" y="686" on="0"/>
        <pt x="109" y="609" on="0"/>
        <pt x="109" y="552" on="1"/>
        <pt x="109" y="494" on="0"/>
        <pt x="161" y="413" on="0"/>
        <pt x="208" y="413" on="1"/>
        <pt x="253" y="413" on="0"/>
        <pt x="305" y="495" on="0"/>
        <pt x="305" y="552" on="1"/>
        <pt x="305" y="609" on="0"/>
        <pt x="253" y="686" on="0"/>
      </contour>
    </TTGlyph>
    <TTGlyph name="oslash" xMin="36" yMin="-53" xMax="540" yMax="578">
      <contour>
        <pt x="76" y="-40" on="1"/>
        <pt x="124" y="36" on="1"/>
        <pt x="37" y="111" on="0"/>
        <pt x="36" y="250" on="1"/>
        <pt x="37" y="371" on="0"/>
        <pt x="176" y="520" on="0"/>
        <pt x="288" y="520" on="1"/>
        <pt x="358" y="520" on="0"/>
        <pt x="416" y="488" on="1"/>
        <pt x="469" y="572" on="1"/>
        <pt x="502" y="578" on="0"/>
        <pt x="525" y="563" on="1"/>
        <pt x="458" y="457" on="1"/>
        <pt x="540" y="377" on="0"/>
        <pt x="540" y="250" on="1"/>
        <pt x="539" y="126" on="0"/>
        <pt x="401" y="-20" on="0"/>
        <pt x="288" y="-20" on="1"/>
        <pt x="221" y="-20" on="0"/>
        <pt x="169" y="6" on="1"/>
        <pt x="133" y="-51" on="1"/>
        <pt x="98" y="-53" on="0"/>
      </contour>
      <contour>
        <pt x="144" y="243" on="1"/>
        <pt x="144" y="157" on="0"/>
        <pt x="171" y="102" on="1"/>
        <pt x="376" y="437" on="1"/>
        <pt x="339" y="477" on="0"/>
        <pt x="286" y="477" on="1"/>
        <pt x="213" y="477" on="0"/>
        <pt x="143" y="349" on="0"/>
      </contour>
      <contour>
        <pt x="432" y="236" on="1"/>
        <pt x="432" y="326" on="0"/>
        <pt x="407" y="386" on="1"/>
        <pt x="205" y="55" on="1"/>
        <pt x="239" y="23" on="0"/>
        <pt x="290" y="23" on="1"/>
        <pt x="364" y="24" on="0"/>
        <pt x="432" y="141" on="0"/>
      </contour>
    </TTGlyph>
    <TTGlyph name="otilde" xMin="39" yMin="-21" xMax="543" yMax="699">
      <component glyphName="o" x="3" y="0" flags="0x4"/>
      <component glyphName="tilde" x="120" y="1" flags="0x4"/>
    </TTGlyph>
    <TTGlyph name="p" xMin="5" yMin="-255" xMax="548" yMax="520">
      <contour>
        <pt x="186" y="502" on="1"/>
        <pt x="185" y="462" on="1"/>
        <pt x="190" y="457" on="1"/>
        <pt x="261" y="520" on="0"/>
        <pt x="340" y="520" on="1"/>
        <pt x="435" y="519" on="0"/>
        <pt x="547" y="371" on="0"/>
        <pt x="548" y="263" on="1"/>
        <pt x="548" y="126" on="0"/>
        <pt x="413" y="-19" on="0"/>
        <pt x="292" y="-19" on="1"/>
        <pt x="244" y="-18" on="0"/>
        <pt x="190" y="3" on="1"/>
        <pt x="190" y="-200" on="1"/>
        <pt x="277" y="-220" on="1"/>
        <pt x="280" y="-239" on="0"/>
        <pt x="272" y="-255" on="1"/>
        <pt x="182" y="-250" on="0"/>
        <pt x="140" y="-250" on="1"/>
        <pt x="101" y="-250" on="0"/>
        <pt x="18" y="-255" on="1"/>
        <pt x="15" y="-236" on="0"/>
        <pt x="20" y="-220" on="1"/>
        <pt x="68" y="-210" on="0"/>
        <pt x="90" y="-200" on="1"/>
        <pt x="90" y="440" on="1"/>
        <pt x="8" y="448" on="1"/>
        <pt x="5" y="468" on="0"/>
        <pt x="13" y="483" on="1"/>
        <pt x="56" y="488" on="0"/>
        <pt x="151" y="510" on="1"/>
        <pt x="167" y="509" on="0"/>
      </contour>
      <contour>
        <pt x="190" y="404" on="1"/>
        <pt x="190" y="59" on="1"/>
        <pt x="237" y="27" on="0"/>
        <pt x="290" y="27" on="1"/>
        <pt x="364" y="27" on="0"/>
        <pt x="442" y="147" on="0"/>
        <pt x="442" y="257" on="1"/>
        <pt x="442" y="358" on="0"/>
        <pt x="372" y="460" on="0"/>
        <pt x="310" y="460" on="1"/>
        <pt x="275" y="460" on="0"/>
        <pt x="205" y="425" on="0"/>
      </contour>
    </TTGlyph>
    <TTGlyph name="paragraph" xMin="40" yMin="-86" xMax="505" yMax="705">
      <contour>
        <pt x="242" y="-80" on="1"/>
        <pt x="242" y="281" on="1"/>
        <pt x="146" y="288" on="0"/>
        <pt x="40" y="411" on="0"/>
        <pt x="40" y="493" on="1"/>
        <pt x="40" y="535" on="0"/>
        <pt x="69" y="609" on="0"/>
        <pt x="126" y="669" on="0"/>
        <pt x="219" y="703" on="0"/>
        <pt x="277" y="700" on="1"/>
        <pt x="365" y="700" on="1"/>
        <pt x="410" y="700" on="0"/>
        <pt x="502" y="705" on="1"/>
        <pt x="505" y="686" on="0"/>
        <pt x="500" y="670" on="1"/>
        <pt x="445" y="661" on="0"/>
        <pt x="420" y="650" on="1"/>
        <pt x="420" y="-80" on="1"/>
        <pt x="404" y="-86" on="0"/>
        <pt x="387" y="-86" on="1"/>
        <pt x="372" y="-86" on="0"/>
        <pt x="355" y="-80" on="1"/>
        <pt x="355" y="650" on="1"/>
        <pt x="307" y="650" on="1"/>
        <pt x="307" y="-80" on="1"/>
        <pt x="290" y="-86" on="0"/>
        <pt x="274" y="-86" on="1"/>
        <pt x="258" y="-86" on="0"/>
      </contour>
    </TTGlyph>
    <TTGlyph name="parenleft" xMin="36" yMin="-220" xMax="274" yMax="790">
      <contour>
        <pt x="36" y="285" on="1"/>
        <pt x="36" y="431" on="0"/>
        <pt x="143" y="714" on="0"/>
        <pt x="245" y="790" on="1"/>
        <pt x="265" y="789" on="0"/>
        <pt x="274" y="768" on="1"/>
        <pt x="216" y="707" on="0"/>
        <pt x="125" y="445" on="0"/>
        <pt x="124" y="285" on="1"/>
        <pt x="125" y="126" on="0"/>
        <pt x="216" y="-136" on="0"/>
        <pt x="274" y="-198" on="1"/>
        <pt x="264" y="-215" on="0"/>
        <pt x="245" y="-220" on="1"/>
        <pt x="174" y="-168" on="0"/>
        <pt x="78" y="10" on="0"/>
        <pt x="36" y="196" on="0"/>
      </contour>
    </TTGlyph>
    <TTGlyph name="parenright" xMin="10" yMin="-220" xMax="248" yMax="790">
      <contour>
        <pt x="248" y="285" on="1"/>
        <pt x="248" y="196" on="0"/>
        <pt x="206" y="10" on="0"/>
        <pt x="110" y="-168" on="0"/>
        <pt x="39" y="-220" on="1"/>
        <pt x="20" y="-215" on="0"/>
        <pt x="10" y="-198" on="1"/>
        <pt x="68" y="-136" on="0"/>
        <pt x="159" y="126" on="0"/>
        <pt x="160" y="285" on="1"/>
        <pt x="159" y="445" on="0"/>
        <pt x="68" y="707" on="0"/>
        <pt x="10" y="768" on="1"/>
        <pt x="19" y="789" on="0"/>
        <pt x="39" y="790" on="1"/>
        <pt x="141" y="714" on="0"/>
        <pt x="248" y="431" on="0"/>
      </contour>
    </TTGlyph>
    <TTGlyph name="percent" xMin="41" yMin="-20" xMax="690" yMax="720">
      <contour>
        <pt x="193" y="720" on="1"/>
        <pt x="260" y="719" on="0"/>
        <pt x="334" y="620" on="0"/>
        <pt x="334" y="551" on="1"/>
        <pt x="334" y="477" on="0"/>
        <pt x="256" y="373" on="0"/>
        <pt x="189" y="372" on="1"/>
        <pt x="119" y="373" on="0"/>
        <pt x="41" y="474" on="0"/>
        <pt x="41" y="544" on="1"/>
        <pt x="41" y="617" on="0"/>
        <pt x="122" y="719" on="0"/>
      </contour>
      <contour>
        <pt x="271" y="557" on="1"/>
        <pt x="269" y="610" on="0"/>
        <pt x="227" y="682" on="0"/>
        <pt x="189" y="683" on="1"/>
        <pt x="149" y="682" on="0"/>
        <pt x="105" y="606" on="0"/>
        <pt x="105" y="549" on="1"/>
        <pt x="105" y="491" on="0"/>
        <pt x="150" y="410" on="0"/>
        <pt x="189" y="410" on="1"/>
        <pt x="227" y="410" on="0"/>
        <pt x="272" y="493" on="0"/>
      </contour>
      <contour>
        <pt x="545" y="706" on="1"/>
        <pt x="255" y="0" on="1"/>
        <pt x="221" y="-13" on="0"/>
        <pt x="188" y="-7" on="1"/>
        <pt x="478" y="700" on="1"/>
        <pt x="513" y="712" on="0"/>
      </contour>
      <contour>
        <pt x="549" y="328" on="1"/>
        <pt x="616" y="327" on="0"/>
        <pt x="690" y="228" on="0"/>
        <pt x="690" y="159" on="1"/>
        <pt x="690" y="85" on="0"/>
        <pt x="612" y="-19" on="0"/>
        <pt x="545" y="-20" on="1"/>
        <pt x="475" y="-19" on="0"/>
        <pt x="397" y="82" on="0"/>
        <pt x="397" y="152" on="1"/>
        <pt x="397" y="225" on="0"/>
        <pt x="478" y="327" on="0"/>
      </contour>
      <contour>
        <pt x="627" y="165" on="1"/>
        <pt x="625" y="218" on="0"/>
        <pt x="583" y="290" on="0"/>
        <pt x="545" y="291" on="1"/>
        <pt x="505" y="290" on="0"/>
        <pt x="461" y="214" on="0"/>
        <pt x="461" y="157" on="1"/>
        <pt x="461" y="99" on="0"/>
        <pt x="506" y="18" on="0"/>
        <pt x="545" y="18" on="1"/>
        <pt x="583" y="18" on="0"/>
        <pt x="628" y="101" on="0"/>
      </contour>
    </TTGlyph>
    <TTGlyph name="period" xMin="47" yMin="-15" xMax="173" yMax="106">
      <contour>
        <pt x="47" y="50" on="1"/>
        <pt x="47" y="69" on="0"/>
        <pt x="91" y="106" on="0"/>
        <pt x="114" y="106" on="1"/>
        <pt x="139" y="106" on="0"/>
        <pt x="173" y="63" on="0"/>
        <pt x="173" y="41" on="1"/>
        <pt x="173" y="21" on="0"/>
        <pt x="130" y="-15" on="0"/>
        <pt x="105" y="-15" on="1"/>
        <pt x="82" y="-15" on="0"/>
        <pt x="47" y="28" on="0"/>
      </contour>
    </TTGlyph>
    <TTGlyph name="periodcentered" xMin="59" yMin="235" xMax="185" yMax="371">
      <contour>
        <pt x="122" y="235" on="1"/>
        <pt x="59" y="235" on="0"/>
        <pt x="59" y="303" on="1"/>
        <pt x="59" y="371" on="0"/>
        <pt x="122" y="371" on="1"/>
        <pt x="185" y="371" on="0"/>
        <pt x="185" y="303" on="1"/>
        <pt x="185" y="235" on="0"/>
      </contour>
    </TTGlyph>
    <TTGlyph name="plus" xMin="40" yMin="111" xMax="442" yMax="521">
      <contour>
        <pt x="273" y="510" on="1"/>
        <pt x="273" y="349" on="1"/>
        <pt x="442" y="349" on="1"/>
        <pt x="440" y="302" on="0"/>
        <pt x="431" y="285" on="1"/>
        <pt x="273" y="285" on="1"/>
        <pt x="273" y="113" on="1"/>
        <pt x="262" y="111" on="0"/>
        <pt x="213" y="119" on="0"/>
        <pt x="207" y="124" on="1"/>
        <pt x="207" y="285" on="1"/>
        <pt x="41" y="285" on="1"/>
        <pt x="40" y="298" on="0"/>
        <pt x="47" y="343" on="0"/>
        <pt x="52" y="349" on="1"/>
        <pt x="207" y="349" on="1"/>
        <pt x="207" y="521" on="1"/>
        <pt x="253" y="519" on="0"/>
      </contour>
    </TTGlyph>
    <TTGlyph name="plusminus" xMin="54" yMin="46" xMax="456" yMax="524">
      <contour>
        <pt x="287" y="513" on="1"/>
        <pt x="287" y="352" on="1"/>
        <pt x="456" y="352" on="1"/>
        <pt x="454" y="305" on="0"/>
        <pt x="445" y="288" on="1"/>
        <pt x="287" y="288" on="1"/>
        <pt x="287" y="138" on="1"/>
        <pt x="276" y="136" on="0"/>
        <pt x="227" y="144" on="0"/>
        <pt x="221" y="149" on="1"/>
        <pt x="221" y="288" on="1"/>
        <pt x="55" y="288" on="1"/>
        <pt x="54" y="302" on="0"/>
        <pt x="61" y="346" on="0"/>
        <pt x="66" y="352" on="1"/>
        <pt x="221" y="352" on="1"/>
        <pt x="221" y="524" on="1"/>
        <pt x="267" y="522" on="0"/>
      </contour>
      <contour>
        <pt x="445" y="46" on="1"/>
        <pt x="55" y="46" on="1"/>
        <pt x="54" y="60" on="0"/>
        <pt x="61" y="104" on="0"/>
        <pt x="66" y="110" on="1"/>
        <pt x="456" y="110" on="1"/>
        <pt x="454" y="63" on="0"/>
      </contour>
    </TTGlyph>
    <TTGlyph name="q" xMin="40" yMin="-255" xMax="569" yMax="520">
      <contour>
        <pt x="499" y="465" on="1"/>
        <pt x="499" y="-200" on="1"/>
        <pt x="566" y="-220" on="1"/>
        <pt x="569" y="-239" on="0"/>
        <pt x="561" y="-255" on="1"/>
        <pt x="481" y="-250" on="0"/>
        <pt x="449" y="-250" on="1"/>
        <pt x="410" y="-250" on="0"/>
        <pt x="317" y="-255" on="1"/>
        <pt x="314" y="-236" on="0"/>
        <pt x="319" y="-220" on="1"/>
        <pt x="377" y="-211" on="0"/>
        <pt x="399" y="-200" on="1"/>
        <pt x="399" y="37" on="1"/>
        <pt x="336" y="-20" on="0"/>
        <pt x="249" y="-20" on="1"/>
        <pt x="176" y="-19" on="0"/>
        <pt x="82" y="58" on="0"/>
        <pt x="40" y="178" on="0"/>
        <pt x="40" y="240" on="1"/>
        <pt x="40" y="372" on="0"/>
        <pt x="181" y="520" on="0"/>
        <pt x="309" y="520" on="1"/>
        <pt x="408" y="520" on="0"/>
      </contour>
      <contour>
        <pt x="399" y="95" on="1"/>
        <pt x="399" y="438" on="1"/>
        <pt x="358" y="472" on="0"/>
        <pt x="299" y="471" on="1"/>
        <pt x="223" y="471" on="0"/>
        <pt x="147" y="351" on="0"/>
        <pt x="147" y="240" on="1"/>
        <pt x="147" y="202" on="0"/>
        <pt x="158" y="138" on="0"/>
        <pt x="186" y="77" on="0"/>
        <pt x="240" y="40" on="0"/>
        <pt x="279" y="40" on="1"/>
        <pt x="314" y="40" on="0"/>
        <pt x="384" y="74" on="0"/>
      </contour>
    </TTGlyph>
    <TTGlyph name="question" xMin="50" yMin="-15" xMax="391" yMax="705">
      <contour>
        <pt x="125" y="50" on="1"/>
        <pt x="125" y="69" on="0"/>
        <pt x="169" y="106" on="0"/>
        <pt x="192" y="106" on="1"/>
        <pt x="217" y="106" on="0"/>
        <pt x="251" y="63" on="0"/>
        <pt x="251" y="41" on="1"/>
        <pt x="251" y="21" on="0"/>
        <pt x="208" y="-15" on="0"/>
        <pt x="183" y="-15" on="1"/>
        <pt x="160" y="-15" on="0"/>
        <pt x="125" y="28" on="0"/>
      </contour>
      <contour>
        <pt x="194" y="167" on="1"/>
        <pt x="177" y="167" on="0"/>
        <pt x="165" y="173" on="1"/>
        <pt x="130" y="231" on="0"/>
        <pt x="130" y="275" on="1"/>
        <pt x="130" y="309" on="0"/>
        <pt x="164" y="373" on="0"/>
        <pt x="212" y="427" on="0"/>
        <pt x="262" y="483" on="0"/>
        <pt x="294" y="544" on="0"/>
        <pt x="294" y="576" on="1"/>
        <pt x="294" y="621" on="0"/>
        <pt x="246" y="670" on="0"/>
        <pt x="205" y="670" on="1"/>
        <pt x="154" y="670" on="0"/>
        <pt x="122" y="646" on="1"/>
        <pt x="115" y="575" on="0"/>
        <pt x="100" y="529" on="1"/>
        <pt x="85" y="522" on="0"/>
        <pt x="66" y="528" on="1"/>
        <pt x="53" y="582" on="0"/>
        <pt x="50" y="634" on="0"/>
        <pt x="53" y="663" on="1"/>
        <pt x="133" y="705" on="0"/>
        <pt x="223" y="705" on="1"/>
        <pt x="294" y="705" on="0"/>
        <pt x="391" y="635" on="0"/>
        <pt x="391" y="577" on="1"/>
        <pt x="391" y="533" on="0"/>
        <pt x="352" y="465" on="0"/>
        <pt x="294" y="414" on="0"/>
        <pt x="231" y="359" on="0"/>
        <pt x="192" y="292" on="0"/>
        <pt x="192" y="249" on="1"/>
        <pt x="192" y="224" on="0"/>
        <pt x="207" y="174" on="1"/>
        <pt x="205" y="167" on="0"/>
      </contour>
    </TTGlyph>
    <TTGlyph name="questiondown" xMin="38" yMin="-191" xMax="379" yMax="530">
      <contour>
        <pt x="304" y="465" on="1"/>
        <pt x="304" y="446" on="0"/>
        <pt x="260" y="409" on="0"/>
        <pt x="237" y="409" on="1"/>
        <pt x="212" y="409" on="0"/>
        <pt x="178" y="452" on="0"/>
        <pt x="178" y="474" on="1"/>
        <pt x="178" y="494" on="0"/>
        <pt x="221" y="530" on="0"/>
        <pt x="246" y="530" on="1"/>
        <pt x="269" y="530" on="0"/>
        <pt x="304" y="487" on="0"/>
      </contour>
      <contour>
        <pt x="235" y="348" on="1"/>
        <pt x="252" y="348" on="0"/>
        <pt x="264" y="342" on="1"/>
        <pt x="299" y="284" on="0"/>
        <pt x="299" y="240" on="1"/>
        <pt x="299" y="206" on="0"/>
        <pt x="265" y="142" on="0"/>
        <pt x="217" y="88" on="0"/>
        <pt x="167" y="32" on="0"/>
        <pt x="135" y="-29" on="0"/>
        <pt x="135" y="-61" on="1"/>
        <pt x="135" y="-106" on="0"/>
        <pt x="183" y="-155" on="0"/>
        <pt x="224" y="-155" on="1"/>
        <pt x="275" y="-155" on="0"/>
        <pt x="307" y="-131" on="1"/>
        <pt x="314" y="-60" on="0"/>
        <pt x="329" y="-14" on="1"/>
        <pt x="344" y="-7" on="0"/>
        <pt x="363" y="-13" on="1"/>
        <pt x="376" y="-67" on="0"/>
        <pt x="379" y="-119" on="0"/>
        <pt x="376" y="-148" on="1"/>
        <pt x="296" y="-191" on="0"/>
        <pt x="206" y="-190" on="1"/>
        <pt x="135" y="-190" on="0"/>
        <pt x="38" y="-120" on="0"/>
        <pt x="38" y="-62" on="1"/>
        <pt x="38" y="-18" on="0"/>
        <pt x="77" y="50" on="0"/>
        <pt x="135" y="101" on="0"/>
        <pt x="198" y="156" on="0"/>
        <pt x="237" y="223" on="0"/>
        <pt x="237" y="266" on="1"/>
        <pt x="237" y="291" on="0"/>
        <pt x="222" y="341" on="1"/>
        <pt x="224" y="348" on="0"/>
      </contour>
    </TTGlyph>
    <TTGlyph name="quotedbl" xMin="46" yMin="430" xMax="303" yMax="724">
      <contour>
        <pt x="146" y="707" on="1"/>
        <pt x="115" y="438" on="1"/>
        <pt x="93" y="430" on="0"/>
        <pt x="75" y="438" on="1"/>
        <pt x="46" y="707" on="1"/>
        <pt x="51" y="713" on="0"/>
        <pt x="83" y="724" on="0"/>
        <pt x="96" y="724" on="1"/>
        <pt x="110" y="724" on="0"/>
        <pt x="142" y="714" on="0"/>
      </contour>
      <contour>
        <pt x="303" y="707" on="1"/>
        <pt x="272" y="438" on="1"/>
        <pt x="250" y="430" on="0"/>
        <pt x="232" y="438" on="1"/>
        <pt x="203" y="707" on="1"/>
        <pt x="208" y="713" on="0"/>
        <pt x="240" y="724" on="0"/>
        <pt x="253" y="724" on="1"/>
        <pt x="267" y="724" on="0"/>
        <pt x="299" y="714" on="0"/>
      </contour>
    </TTGlyph>
    <TTGlyph name="quotedblbase" xMin="25" yMin="-136" xMax="360" yMax="118">
      <contour>
        <pt x="86" y="118" on="1"/>
        <pt x="129" y="118" on="0"/>
        <pt x="169" y="53" on="0"/>
        <pt x="169" y="9" on="1"/>
        <pt x="169" y="-40" on="0"/>
        <pt x="124" y="-119" on="0"/>
        <pt x="88" y="-136" on="1"/>
        <pt x="68" y="-136" on="0"/>
        <pt x="63" y="-110" on="1"/>
        <pt x="94" y="-89" on="0"/>
        <pt x="116" y="-52" on="0"/>
        <pt x="116" y="-26" on="1"/>
        <pt x="117" y="2" on="0"/>
        <pt x="91" y="1" on="1"/>
        <pt x="76" y="1" on="1"/>
        <pt x="53" y="1" on="0"/>
        <pt x="25" y="31" on="0"/>
        <pt x="25" y="57" on="1"/>
        <pt x="25" y="86" on="0"/>
        <pt x="60" y="118" on="0"/>
      </contour>
      <contour>
        <pt x="277" y="118" on="1"/>
        <pt x="320" y="118" on="0"/>
        <pt x="360" y="53" on="0"/>
        <pt x="360" y="9" on="1"/>
        <pt x="360" y="-40" on="0"/>
        <pt x="315" y="-119" on="0"/>
        <pt x="279" y="-136" on="1"/>
        <pt x="259" y="-136" on="0"/>
        <pt x="254" y="-110" on="1"/>
        <pt x="285" y="-89" on="0"/>
        <pt x="307" y="-52" on="0"/>
        <pt x="307" y="-26" on="1"/>
        <pt x="308" y="2" on="0"/>
        <pt x="282" y="1" on="1"/>
        <pt x="267" y="1" on="1"/>
        <pt x="244" y="1" on="0"/>
        <pt x="216" y="31" on="0"/>
        <pt x="216" y="57" on="1"/>
        <pt x="216" y="86" on="0"/>
        <pt x="251" y="118" on="0"/>
      </contour>
    </TTGlyph>
    <TTGlyph name="quotedblleft" xMin="42" yMin="498" xMax="369" yMax="752">
      <contour>
        <pt x="125" y="498" on="1"/>
        <pt x="82" y="499" on="0"/>
        <pt x="42" y="563" on="0"/>
        <pt x="42" y="607" on="1"/>
        <pt x="42" y="656" on="0"/>
        <pt x="87" y="735" on="0"/>
        <pt x="123" y="752" on="1"/>
        <pt x="143" y="752" on="0"/>
        <pt x="148" y="726" on="1"/>
        <pt x="117" y="705" on="0"/>
        <pt x="95" y="668" on="0"/>
        <pt x="95" y="642" on="1"/>
        <pt x="94" y="614" on="0"/>
        <pt x="120" y="615" on="1"/>
        <pt x="135" y="615" on="1"/>
        <pt x="158" y="615" on="0"/>
        <pt x="186" y="585" on="0"/>
        <pt x="186" y="559" on="1"/>
        <pt x="186" y="530" on="0"/>
        <pt x="151" y="498" on="0"/>
      </contour>
      <contour>
        <pt x="308" y="498" on="1"/>
        <pt x="265" y="499" on="0"/>
        <pt x="225" y="563" on="0"/>
        <pt x="225" y="607" on="1"/>
        <pt x="225" y="656" on="0"/>
        <pt x="270" y="735" on="0"/>
        <pt x="306" y="752" on="1"/>
        <pt x="326" y="752" on="0"/>
        <pt x="331" y="726" on="1"/>
        <pt x="300" y="705" on="0"/>
        <pt x="278" y="668" on="0"/>
        <pt x="278" y="642" on="1"/>
        <pt x="277" y="614" on="0"/>
        <pt x="303" y="615" on="1"/>
        <pt x="318" y="615" on="1"/>
        <pt x="341" y="615" on="0"/>
        <pt x="369" y="585" on="0"/>
        <pt x="369" y="559" on="1"/>
        <pt x="369" y="530" on="0"/>
        <pt x="334" y="498" on="0"/>
      </contour>
    </TTGlyph>
    <TTGlyph name="quotedblright" xMin="25" yMin="498" xMax="360" yMax="752">
      <contour>
        <pt x="86" y="752" on="1"/>
        <pt x="129" y="752" on="0"/>
        <pt x="169" y="687" on="0"/>
        <pt x="169" y="643" on="1"/>
        <pt x="169" y="594" on="0"/>
        <pt x="124" y="515" on="0"/>
        <pt x="88" y="498" on="1"/>
        <pt x="68" y="498" on="0"/>
        <pt x="63" y="524" on="1"/>
        <pt x="94" y="545" on="0"/>
        <pt x="116" y="582" on="0"/>
        <pt x="116" y="608" on="1"/>
        <pt x="117" y="636" on="0"/>
        <pt x="91" y="635" on="1"/>
        <pt x="76" y="635" on="1"/>
        <pt x="53" y="635" on="0"/>
        <pt x="25" y="665" on="0"/>
        <pt x="25" y="691" on="1"/>
        <pt x="25" y="720" on="0"/>
        <pt x="60" y="752" on="0"/>
      </contour>
      <contour>
        <pt x="277" y="752" on="1"/>
        <pt x="320" y="752" on="0"/>
        <pt x="360" y="687" on="0"/>
        <pt x="360" y="643" on="1"/>
        <pt x="360" y="594" on="0"/>
        <pt x="315" y="515" on="0"/>
        <pt x="279" y="498" on="1"/>
        <pt x="259" y="498" on="0"/>
        <pt x="254" y="524" on="1"/>
        <pt x="285" y="545" on="0"/>
        <pt x="307" y="582" on="0"/>
        <pt x="307" y="608" on="1"/>
        <pt x="308" y="636" on="0"/>
        <pt x="282" y="635" on="1"/>
        <pt x="267" y="635" on="1"/>
        <pt x="244" y="635" on="0"/>
        <pt x="216" y="665" on="0"/>
        <pt x="216" y="691" on="1"/>
        <pt x="216" y="720" on="0"/>
        <pt x="251" y="752" on="0"/>
      </contour>
    </TTGlyph>
    <TTGlyph name="quoteleft" xMin="39" yMin="498" xMax="183" yMax="752">
      <contour>
        <pt x="122" y="498" on="1"/>
        <pt x="79" y="499" on="0"/>
        <pt x="39" y="563" on="0"/>
        <pt x="39" y="607" on="1"/>
        <pt x="39" y="656" on="0"/>
        <pt x="84" y="735" on="0"/>
        <pt x="120" y="752" on="1"/>
        <pt x="140" y="752" on="0"/>
        <pt x="145" y="726" on="1"/>
        <pt x="114" y="705" on="0"/>
        <pt x="92" y="668" on="0"/>
        <pt x="92" y="642" on="1"/>
        <pt x="91" y="614" on="0"/>
        <pt x="117" y="615" on="1"/>
        <pt x="132" y="615" on="1"/>
        <pt x="155" y="615" on="0"/>
        <pt x="183" y="585" on="0"/>
        <pt x="183" y="559" on="1"/>
        <pt x="183" y="530" on="0"/>
        <pt x="148" y="498" on="0"/>
      </contour>
    </TTGlyph>
    <TTGlyph name="quoteright" xMin="25" yMin="498" xMax="169" yMax="752">
      <contour>
        <pt x="86" y="752" on="1"/>
        <pt x="129" y="752" on="0"/>
        <pt x="169" y="687" on="0"/>
        <pt x="169" y="643" on="1"/>
        <pt x="169" y="594" on="0"/>
        <pt x="124" y="515" on="0"/>
        <pt x="88" y="498" on="1"/>
        <pt x="68" y="498" on="0"/>
        <pt x="63" y="524" on="1"/>
        <pt x="94" y="545" on="0"/>
        <pt x="116" y="582" on="0"/>
        <pt x="116" y="608" on="1"/>
        <pt x="117" y="636" on="0"/>
        <pt x="91" y="635" on="1"/>
        <pt x="76" y="635" on="1"/>
        <pt x="53" y="635" on="0"/>
        <pt x="25" y="665" on="0"/>
        <pt x="25" y="691" on="1"/>
        <pt x="25" y="720" on="0"/>
        <pt x="60" y="752" on="0"/>
      </contour>
    </TTGlyph>
    <TTGlyph name="quotesinglbase" xMin="25" yMin="-136" xMax="169" yMax="118">
      <contour>
        <pt x="86" y="118" on="1"/>
        <pt x="129" y="118" on="0"/>
        <pt x="169" y="53" on="0"/>
        <pt x="169" y="9" on="1"/>
        <pt x="169" y="-40" on="0"/>
        <pt x="124" y="-119" on="0"/>
        <pt x="88" y="-136" on="1"/>
        <pt x="68" y="-136" on="0"/>
        <pt x="63" y="-110" on="1"/>
        <pt x="94" y="-89" on="0"/>
        <pt x="116" y="-52" on="0"/>
        <pt x="116" y="-26" on="1"/>
        <pt x="117" y="2" on="0"/>
        <pt x="91" y="1" on="1"/>
        <pt x="76" y="1" on="1"/>
        <pt x="53" y="1" on="0"/>
        <pt x="25" y="31" on="0"/>
        <pt x="25" y="57" on="1"/>
        <pt x="25" y="86" on="0"/>
        <pt x="60" y="118" on="0"/>
      </contour>
    </TTGlyph>
    <TTGlyph name="quotesingle" xMin="46" yMin="430" xMax="146" yMax="724">
      <contour>
        <pt x="146" y="707" on="1"/>
        <pt x="115" y="438" on="1"/>
        <pt x="93" y="430" on="0"/>
        <pt x="75" y="438" on="1"/>
        <pt x="46" y="707" on="1"/>
        <pt x="51" y="713" on="0"/>
        <pt x="83" y="724" on="0"/>
        <pt x="96" y="724" on="1"/>
        <pt x="110" y="724" on="0"/>
        <pt x="142" y="714" on="0"/>
      </contour>
    </TTGlyph>
    <TTGlyph name="r" xMin="15" yMin="-5" xMax="418" yMax="518">
      <contour>
        <pt x="201" y="337" on="1"/>
        <pt x="201" y="50" on="1"/>
        <pt x="298" y="30" on="1"/>
        <pt x="301" y="11" on="0"/>
        <pt x="293" y="-5" on="1"/>
        <pt x="203" y="0" on="0"/>
        <pt x="151" y="0" on="1"/>
        <pt x="111" y="0" on="0"/>
        <pt x="29" y="-5" on="1"/>
        <pt x="26" y="14" on="0"/>
        <pt x="31" y="30" on="1"/>
        <pt x="87" y="42" on="0"/>
        <pt x="101" y="50" on="1"/>
        <pt x="101" y="440" on="1"/>
        <pt x="18" y="448" on="1"/>
        <pt x="15" y="468" on="0"/>
        <pt x="23" y="483" on="1"/>
        <pt x="106" y="495" on="0"/>
        <pt x="163" y="510" on="1"/>
        <pt x="174" y="510" on="0"/>
        <pt x="196" y="499" on="1"/>
        <pt x="196" y="408" on="1"/>
        <pt x="197" y="407" on="1"/>
        <pt x="271" y="517" on="0"/>
        <pt x="349" y="517" on="1"/>
        <pt x="389" y="518" on="0"/>
        <pt x="415" y="502" on="1"/>
        <pt x="418" y="428" on="0"/>
        <pt x="395" y="352" on="1"/>
        <pt x="370" y="349" on="0"/>
        <pt x="350" y="356" on="1"/>
        <pt x="336" y="456" on="1"/>
        <pt x="253" y="456" on="0"/>
      </contour>
    </TTGlyph>
</ttFont>
